<svg width="40" height="33" viewBox="0 0 40 33" fill="none" xmlns="http://www.w3.org/2000/svg">
<g filter="url(#filter0_d_1_20867)">
<path d="M18.3288 24.8919C18.5848 25.3107 18.7323 25.8029 18.7323 26.3297C18.7323 27.8543 17.4963 29.0902 15.9717 29.0902H11.7464C11.5337 29.0902 11.3215 29.0657 11.1141 29.0169L18.3288 24.8919ZM18.3288 24.8919C19.1976 24.427 19.7886 23.5107 19.7886 22.4564C19.7886 21.8642 19.6022 21.3156 19.2848 20.8661C20.014 20.3692 20.4929 19.5321 20.4929 18.5831C20.4929 18.1872 20.4095 17.8108 20.2595 17.4705H24.7746C26.2992 17.4705 27.5352 16.2345 27.5352 14.7099C27.5352 13.1852 26.2992 11.9493 24.7746 11.9493H15.5862C16.4166 11.0006 16.5123 9.57147 15.7395 8.5088L15.7395 8.50878C14.8428 7.27581 13.1162 7.00323 11.8832 7.89992L12.4705 8.70743L11.8832 7.89993L4.13673 13.5336L4.13668 13.5337C3.78456 13.7898 3.49801 14.1255 3.30044 14.5135C3.10286 14.9015 2.99986 15.3308 2.99985 15.7662V15.7662V24.9212C2.99985 26.2022 3.88112 27.315 5.12812 27.6084C5.12813 27.6084 5.12813 27.6084 5.12814 27.6084L11.1139 29.0168L18.3288 24.8919Z" fill="#FF00FF" stroke="white" stroke-width="2"/>
<path d="M34.6967 16.2995L34.6973 16.2995C35.7582 16.2989 36.6176 15.4391 36.6184 14.3786L36.6184 14.3777C36.6183 13.3165 35.7581 12.4563 34.6969 12.4562L34.6968 12.4562L31.801 12.4562L31.8007 12.4562C31.2708 12.4563 30.789 12.6723 30.4422 13.019C30.0953 13.366 29.8798 13.8477 29.8794 14.377L29.8794 14.3779C29.8796 15.439 30.7398 16.2992 31.8009 16.2993L31.801 16.2993L34.6967 16.2995Z" fill="#FF00FF" stroke="white" stroke-width="2"/>
<path d="M28.0932 8.37432L28.0931 8.37445C27.3431 9.1247 27.3427 10.3413 28.0931 11.0918C28.8437 11.8424 30.0604 11.8419 30.8106 11.0917L32.8582 9.04409C33.6082 8.29405 33.609 7.07737 32.8583 6.32665C32.1079 5.57629 30.8911 5.57638 30.1408 6.32672L28.0932 8.37432Z" fill="#FF00FF" stroke="white" stroke-width="2"/>
<path d="M28.0531 8.109L28.0531 8.10926C28.0528 9.17002 27.193 10.0305 26.1317 10.0305L28.0531 8.109ZM28.0531 8.109L28.0531 5.21336M28.0531 8.109L28.0531 5.21336M28.0531 5.21336C28.0531 5.2133 28.0531 5.21323 28.0531 5.21317M28.0531 5.21336L28.0531 5.21317M28.0531 5.21317C28.0531 5.21311 28.0531 5.21304 28.0531 5.21297M28.0531 5.21317V5.21297M28.0531 5.21297C28.0533 4.15155 27.1927 3.29145 26.1316 3.29152L28.0531 5.21297ZM26.1315 3.29152C25.6014 3.29156 25.1197 3.50747 24.7729 3.85432C24.4262 4.20104 24.2102 4.6828 24.2102 5.21291L24.2101 8.10881C24.21 9.17002 25.0703 10.0305 26.1315 10.0305L26.1315 3.29152Z" fill="#FF00FF" stroke="white" stroke-width="2"/>
<path d="M28.5862 17.8099C27.8358 18.5603 27.8359 19.7771 28.5862 20.5274L30.634 22.5752C31.3843 23.3255 32.601 23.3256 33.3515 22.5752C34.1019 21.8247 34.1017 20.6081 33.3514 19.8578L31.3035 17.81C30.5534 17.0598 29.3368 17.0593 28.5862 17.8099Z" fill="#FF00FF" stroke="white" stroke-width="2"/>
<path d="M24.2102 21.548C24.2101 21.0171 24.4267 20.5356 24.7731 20.1892C25.1193 19.843 25.6008 19.6264 26.1315 19.6264L24.2102 21.548ZM24.2102 21.548C24.2102 21.5481 24.2102 21.5481 24.2102 21.5482L24.2102 24.4435M24.2102 21.548L24.2102 24.4435M24.2102 24.4435C24.2102 24.4436 24.2102 24.4436 24.2102 24.4437M24.2102 24.4435V24.4437M24.2102 24.4437C24.2102 25.5048 25.0703 26.3652 26.1316 26.3652L24.2102 24.4437ZM28.0532 21.548C28.0532 21.548 28.0532 21.5481 28.0532 21.5481L28.0532 24.4433C28.0532 24.4435 28.0532 24.4436 28.0532 24.4437C28.0534 25.5049 27.1929 26.3651 26.132 26.3652L28.0532 21.548ZM28.0532 21.548C28.0533 20.4869 27.193 19.6265 26.1319 19.6264L28.0532 21.548Z" fill="#FF00FF" stroke="white" stroke-width="2"/>
</g>
<defs>
<filter id="filter0_d_1_20867" x="0" y="0.291534" width="39.6182" height="31.7987" filterUnits="userSpaceOnUse" color-interpolation-filters="sRGB">
<feFlood flood-opacity="0" result="BackgroundImageFix"/>
<feColorMatrix in="SourceAlpha" type="matrix" values="0 0 0 0 0 0 0 0 0 0 0 0 0 0 0 0 0 0 127 0" result="hardAlpha"/>
<feOffset/>
<feGaussianBlur stdDeviation="1"/>
<feComposite in2="hardAlpha" operator="out"/>
<feColorMatrix type="matrix" values="0 0 0 0 0 0 0 0 0 0 0 0 0 0 0 0 0 0 0.3 0"/>
<feBlend mode="normal" in2="BackgroundImageFix" result="effect1_dropShadow_1_20867"/>
<feBlend mode="normal" in="SourceGraphic" in2="effect1_dropShadow_1_20867" result="shape"/>
</filter>
</defs>
</svg>
