<svg width="23" height="23" viewBox="0 0 23 23" fill="none" xmlns="http://www.w3.org/2000/svg">
<path fill-rule="evenodd" clip-rule="evenodd" d="M13.1368 0.757895L21.9789 9.6C22.9895 10.6105 22.9895 12.1263 21.9789 13.1368L13.1368 21.9789C12.6316 22.4842 12 22.7368 11.3684 22.7368C10.7368 22.7368 10.1053 22.4842 9.6 21.9789L0.757895 13.1368C-0.252632 12.1263 -0.252632 10.6105 0.757895 9.6L9.6 0.757895C10.1053 0.252632 10.7368 0 11.3684 0C12 0 12.6316 0.252632 13.1368 0.757895ZM12.1265 20.9683L20.9686 12.1262C21.2212 11.8735 21.3475 11.6209 21.3475 11.3683C21.3475 11.1156 21.2212 10.863 20.8423 10.6104L12.0002 1.76826C11.7475 1.64194 11.4949 1.51562 11.2423 1.51562C10.9896 1.51562 10.737 1.51562 10.4844 1.76826L1.64228 10.6104C1.51596 10.863 1.38965 11.1156 1.38965 11.3683C1.38965 11.6209 1.51596 11.8735 1.7686 12.1262L10.6107 20.9683C10.8633 21.2209 11.116 21.2209 11.3686 21.2209C11.6212 21.2209 11.8739 21.2209 12.1265 20.9683Z" fill="black"/>
</svg>
