<svg width="23" height="23" viewBox="0 0 23 23" fill="none" xmlns="http://www.w3.org/2000/svg">
<path fill-rule="evenodd" clip-rule="evenodd" d="M22.8633 11.4949C22.8633 5.1791 17.6844 0.126465 11.4949 0.126465C5.1791 0.126465 0.126465 5.1791 0.126465 11.4949C0.126465 17.8107 5.1791 22.8633 11.4949 22.8633V21.4738C7.70541 21.4738 4.4212 19.3265 2.65278 16.1686L5.55804 15.6633L4.67383 9.9791L1.64225 10.4844C2.14752 5.43173 6.44226 1.51594 11.4949 1.51594C16.6738 1.51594 20.8423 5.43173 21.3475 10.4844L18.3159 9.9791L17.3054 15.6633L21.8528 16.4212L22.8633 11.4949ZM3.53698 11.6211L4.04224 14.4L2.27382 14.6527L1.76855 12L3.53698 11.6211ZM19.0737 14.5265L20.8422 14.7791L21.3474 12.0002L19.579 11.7476L19.0737 14.5265Z" fill="black"/>
</svg>
