<svg width="23" height="23" viewBox="0 0 23 23" fill="none" xmlns="http://www.w3.org/2000/svg">
<path fill-rule="evenodd" clip-rule="evenodd" d="M19.7054 12.6317C20.4633 13.0107 21.0949 13.5159 21.6001 14.1475C23.4949 16.4212 23.1159 19.8317 20.8423 21.7265C18.5686 23.6212 15.2844 23.2423 13.3896 20.9686L9.9791 22.8633L0.126465 17.1791V5.81068L9.9791 0.126465L19.7054 5.81068V12.6317ZM13.137 3.53699L9.9791 1.76857L2.27383 6.18962L5.30541 7.95804L13.137 3.53699ZM9.22138 20.7158L1.51611 16.2947V7.45264L9.22138 11.8737V20.7158ZM14.5266 4.42139L6.82129 8.84244L9.97918 10.6109L17.6844 6.31612L14.5266 4.42139ZM12.5056 19.7054L10.6108 20.8423V12.0002L18.3161 7.5791V12.3791C15.4108 11.7475 12.7582 13.6423 12.1266 16.5475C12.0003 17.558 12.1266 18.6949 12.5056 19.7054ZM17.4318 21.6003C19.7054 21.6003 21.4739 19.7056 21.4739 17.5582C21.4739 15.2845 19.7054 13.5161 17.4318 13.5161C15.1581 13.5161 13.3896 15.4109 13.3896 17.5582C13.3896 19.8319 15.2844 21.6003 17.4318 21.6003Z" fill="black"/>
</svg>
