<svg width="23" height="23" viewBox="0 0 23 23" fill="none" xmlns="http://www.w3.org/2000/svg">
<path fill-rule="evenodd" clip-rule="evenodd" d="M15.158 9.34752C12.758 9.34752 10.8633 11.2423 10.8633 13.6423V18.5686C10.8633 20.0844 9.60015 21.4738 7.95804 21.4738C6.31594 21.4738 5.1791 20.2107 5.1791 18.5686V15.7896H7.32646L8.71594 10.1054V4.4212H7.95804V0.126465H0.88436V4.4212H0.126465V10.1054L1.51594 15.7896H3.78962V18.5686C3.78962 20.9686 5.68436 22.8633 8.08436 22.8633C10.4844 22.8633 12.3791 20.9686 12.3791 18.5686V13.6423C12.3791 12.1265 13.6423 10.8633 15.158 10.8633H22.9896V9.34752H15.158ZM2.40039 1.51611H6.56881V4.29506H2.40039V1.51611ZM1.64209 9.85265L2.65262 14.4V14.2737H6.18946L7.3263 9.85265V5.81055H1.64209V9.85265Z" fill="black"/>
</svg>
