<svg width="19" height="24" viewBox="0 0 19 24" fill="none" xmlns="http://www.w3.org/2000/svg">
<path fill-rule="evenodd" clip-rule="evenodd" d="M18.5895 6.44192L17.579 7.45244L12.1474 2.02086V4.04192L16.5685 8.46297L15.5579 9.47349L12.1474 6.06297V16.9261C12.0211 19.0735 10.6316 21.0945 8.73688 22.1051C7.72635 22.7367 6.46319 23.1156 5.20003 23.1156C3.55793 23.2419 2.04214 22.484 1.15793 21.0945C-0.105229 18.8209 1.15793 15.5367 4.06319 13.8945C5.07372 13.263 6.33688 12.884 7.60003 12.884C8.73688 12.884 9.87372 13.263 10.7579 13.8945V0.252441H12.5264L18.5895 6.44192ZM8.10514 20.8419C9.11567 20.2103 9.99988 19.3261 10.5051 18.1893C10.8841 17.305 10.8841 16.4208 10.5051 15.6629C9.87356 14.6524 8.86303 14.1472 7.72619 14.2735C6.71567 14.2735 5.70514 14.5261 4.82093 15.0314C3.8104 15.6629 2.92619 16.5472 2.42093 17.684C2.04198 18.4419 2.04198 19.4524 2.42093 20.2103C3.05251 21.2208 4.06303 21.7261 5.19988 21.5998C6.2104 21.5998 7.22093 21.3472 8.10514 20.8419Z" fill="black"/>
</svg>
