<svg width="20" height="23" viewBox="0 0 20 23" fill="none" xmlns="http://www.w3.org/2000/svg">
<path fill-rule="evenodd" clip-rule="evenodd" d="M19.7264 11.2423C19.7264 8.21068 17.3264 5.81068 14.4211 5.55804V0.126465H0.147461V22.8633H14.2948V16.8001C14.9264 16.8001 15.4317 16.6738 15.9369 16.4212L18.2106 20.9686L19.4738 20.337L17.2001 15.7896C18.8422 14.7791 19.7264 13.0107 19.7264 11.2423ZM1.53711 1.64209H12.9055V3.78946H1.53711V1.64209ZM1.53711 21.474H12.9055V19.3267H8.61079V20.7161H5.83185V19.3267H1.53711V21.474ZM1.53711 17.9371V5.1792H12.9055V5.68446C9.87395 6.31604 7.8529 9.2213 8.48448 12.3792C8.98974 14.6529 10.6318 16.4213 12.9055 16.8003V17.9371H1.53711ZM9.74746 11.1159C9.74746 13.5159 11.6422 15.4107 14.0422 15.4107C16.3159 15.4107 18.3369 13.5159 18.3369 11.1159C18.3369 8.71594 16.4422 6.8212 14.0422 6.8212C11.6422 6.8212 9.74746 8.71594 9.74746 11.1159Z" fill="black"/>
</svg>
