<svg width="23" height="24" viewBox="0 0 23 24" fill="none" xmlns="http://www.w3.org/2000/svg">
<path fill-rule="evenodd" clip-rule="evenodd" d="M15.2844 16.1684C16.0423 15.1579 17.3054 14.4 18.6949 14.4C20.9686 14.4 22.8633 16.4211 22.8633 18.8211C22.8633 21.2211 20.9686 23.1158 18.5686 23.1158C16.1686 23.1158 14.2738 21.2211 14.2738 18.8211C14.2738 18.3158 14.4001 17.9368 14.5265 17.5579L7.83173 14.1474C7.07383 15.1579 5.81068 15.9158 4.4212 15.9158C2.0212 15.9158 0.126465 14.0211 0.126465 11.6211C0.126465 9.22105 2.0212 7.32632 4.4212 7.32632C5.81068 7.32632 7.07383 8.08421 7.83173 9.09474L14.6528 5.55789C14.5265 5.17895 14.4001 4.67368 14.4001 4.29474C14.4001 1.89474 16.2949 0 18.6949 0C21.0949 0 22.9896 1.89474 22.9896 4.29474C22.9896 6.69474 21.0949 8.58947 18.6949 8.58947C17.3054 8.58947 16.0423 7.83158 15.2844 6.82105L8.58962 10.2316C8.71594 10.6105 8.84225 10.9895 8.84225 11.4947C8.84225 12 8.71594 12.3789 8.58962 12.7579L15.2844 16.1684ZM21.4738 4.42105C21.4738 2.90526 20.2107 1.64211 18.6949 1.64211C17.0528 1.64211 15.9159 2.77895 15.9159 4.42105C15.9159 6.06316 17.1791 7.32632 18.6949 7.32632C20.2107 7.32632 21.4738 5.93684 21.4738 4.42105ZM4.42104 14.4002C2.90525 14.4002 1.64209 13.137 1.64209 11.6212C1.64209 10.1054 2.90525 8.84229 4.42104 8.84229C5.93683 8.84229 7.19998 10.1054 7.19998 11.6212C7.19998 13.137 6.06314 14.4002 4.42104 14.4002ZM15.916 18.8209C15.916 20.3367 17.1792 21.5999 18.695 21.5999C20.2108 21.5999 21.4739 20.3367 21.4739 18.8209C21.4739 17.3051 20.2108 16.042 18.695 16.042C17.1792 16.042 15.916 17.3051 15.916 18.8209Z" fill="black"/>
</svg>
