<svg width="14" height="13" viewBox="0 0 14 13" fill="none" xmlns="http://www.w3.org/2000/svg">
<path fill-rule="evenodd" clip-rule="evenodd" d="M7.58567 0.905492L12.5792 5.63623C13.1499 6.17689 13.1499 6.98787 12.5792 7.52853L7.58567 12.2593C7.30032 12.5296 6.94364 12.6648 6.58696 12.6648C6.23027 12.6648 5.87359 12.5296 5.58824 12.2593L0.594684 7.52853C0.023991 6.98787 0.023991 6.17689 0.594684 5.63623L5.58824 0.905492C5.87359 0.635164 6.23027 0.5 6.58696 0.5C6.94364 0.5 7.30032 0.635164 7.58567 0.905492ZM7.01497 11.7184L12.0085 6.98768C12.1512 6.85252 12.2225 6.71736 12.2225 6.58219C12.2225 6.44703 12.1512 6.31186 11.9372 6.1767L6.94364 1.44596C6.80096 1.37838 6.65829 1.31079 6.51562 1.31079C6.37295 1.31079 6.23027 1.31079 6.0876 1.44596L1.09404 6.1767C1.0227 6.31186 0.951367 6.44703 0.951367 6.58219C0.951367 6.71736 1.0227 6.85252 1.16538 6.98768L6.15894 11.7184C6.30161 11.8536 6.44428 11.8536 6.58696 11.8536C6.72963 11.8536 6.8723 11.8536 7.01497 11.7184Z" fill="black"/>
</svg>
