<svg width="23" height="23" viewBox="0 0 23 23" fill="none" xmlns="http://www.w3.org/2000/svg">
<path fill-rule="evenodd" clip-rule="evenodd" d="M18.6947 7.32646C19.2 3.66331 16.2947 0.126465 12.3789 0.126465C9.59996 0.126465 7.19996 1.89489 6.31575 4.4212C3.03154 4.67383 0.378906 7.45278 0.378906 10.8633C0.378906 13.8949 2.52627 16.4212 5.43154 17.0528C5.68417 20.337 8.46312 22.8633 11.7473 22.8633C15.0315 22.8633 17.6842 20.337 18.0631 17.1791C20.8421 17.1791 22.9894 14.9054 22.9894 12.2528C23.1157 9.72647 21.221 7.70541 18.6947 7.32646ZM11.7471 21.4737C8.96817 21.4737 6.8208 19.2 6.8208 16.5474C6.8208 13.8948 9.09449 11.6211 11.7471 11.6211C14.3997 11.6211 16.6734 13.8948 16.6734 16.5474C16.6734 19.2 14.3997 21.4737 11.7471 21.4737ZM11.7475 10.1056C15.0317 10.1056 17.6843 12.6319 18.0633 15.7898C20.0843 15.7898 21.6001 14.274 21.6001 12.0003C21.6001 10.1056 19.958 8.46348 18.0633 8.46348C18.0493 8.46348 18.0368 8.46348 18.0244 8.46365C17.9245 8.46504 17.8249 8.4775 16.9264 8.5898C16.9612 8.41617 17.0054 8.23299 17.0514 8.04289C17.1726 7.5415 17.3054 6.99197 17.3054 6.44243C17.3054 3.7898 15.158 1.51611 12.3791 1.51611C8.21066 1.51611 7.45277 5.68453 7.45277 5.81085H6.9475C3.91592 5.68453 1.76855 8.08453 1.76855 10.7372C1.76855 13.0109 3.28434 14.9056 5.43171 15.5372C5.81066 12.5056 8.58961 10.1056 11.7475 10.1056Z" fill="black"/>
</svg>
