<svg width="24" height="24" viewBox="0 0 24 24" fill="none" xmlns="http://www.w3.org/2000/svg">
<path fill-rule="evenodd" clip-rule="evenodd" d="M19.2 2.8H20.4V1.33333H12.8V0H11.2V1.33333H3.6V2.8H4.8L0 11.2L0.133333 11.4667C0.8 14.2667 3.73333 16 6.53333 15.3333C8.4 14.8 9.86667 13.3333 10.4 11.4667L10.5333 11.2L5.6 2.8H11.2V22.5333H4.53333V24H18.9333V22.5333H12.8V2.8H18.4L13.6 11.0667L13.7333 11.3333C14.4 14.1333 17.3333 15.8667 20.1333 15.2C22 14.6667 23.4667 13.2 24 11.3333V11.2L19.2 2.8ZM5.2 14C3.86667 14 2.66667 13.3333 2 12.2667H8.4C7.73333 13.3333 6.53333 14 5.2 14ZM2 10.6669H8.53333L5.2 5.06689L2 10.6669ZM18.8 14C17.4667 14 16.2667 13.3333 15.6 12.2667H22C21.3333 13.3333 20.1333 14 18.8 14ZM18.8001 5.06689L15.6001 10.6669H22.1334L18.8001 5.06689Z" fill="black"/>
</svg>
