<svg width="22" height="24" viewBox="0 0 22 24" fill="none" xmlns="http://www.w3.org/2000/svg">
<path fill-rule="evenodd" clip-rule="evenodd" d="M19.2082 8.38263H11.8589V2.45863C11.8589 1.7413 11.5469 1.06263 11.0015 0.595967C10.2669 -0.0333666 9.26154 -0.177367 8.37888 0.230633C7.49888 0.634633 6.95088 1.49063 6.95088 2.45863V8.78663H0.081543V24H8.42421V22.528H19.2082C20.7015 22.528 21.9175 21.312 21.9175 19.8186V11.092C21.9189 9.5973 20.7015 8.38263 19.2082 8.38263ZM6.95238 22.5281H1.55371V10.2588H6.95238V22.5281ZM8.42432 21.0561H19.2083C19.891 21.0561 20.447 20.5014 20.4457 19.8188V19.3828H15.9403V17.9108H20.4457V16.3001H15.9403V14.8281H20.4457V12.9828H15.9403V11.5108H20.4457V11.0921C20.4457 10.4108 19.891 9.85609 19.2083 9.85609H10.387V2.45875C10.387 2.17075 10.2617 1.89875 10.0443 1.71342C9.74432 1.45475 9.35232 1.40009 8.99498 1.56675C8.63765 1.73075 8.42432 2.06542 8.42432 2.45875V21.0561Z" fill="black"/>
</svg>
