<svg width="16" height="24" viewBox="0 0 16 24" fill="none" xmlns="http://www.w3.org/2000/svg">
<path fill-rule="evenodd" clip-rule="evenodd" d="M15.5 7.5C15.5 3.35733 12.1427 0 8 0C3.85733 0 0.5 3.35733 0.5 7.5C0.5 9.952 1.68133 12.1213 3.5 13.4893V23.56L8 19.06L12.5 23.56V13.4893C14.3187 12.1213 15.5 9.952 15.5 7.5ZM2 7.5C2 4.192 4.692 1.5 8 1.5C11.308 1.5 14 4.192 14 7.5C14 10.808 11.308 13.5 8 13.5C4.692 13.5 2 10.808 2 7.5ZM8 16.94L11 19.94V14.372C10.0813 14.7733 9.068 15 8 15C6.932 15 5.91867 14.7733 5 14.372V19.94L8 16.94Z" fill="black"/>
</svg>
