<svg width="16" height="16" viewBox="0 0 16 16" fill="none" xmlns="http://www.w3.org/2000/svg">
<path fill-rule="evenodd" clip-rule="evenodd" d="M14.6527 6.90481C14.2317 7.32586 14.2317 8.08376 14.6527 8.50481L15.158 9.01007C15.5791 9.43113 15.4106 9.93639 14.8212 10.1048L14.0633 10.2732C13.3896 10.4417 13.0527 11.1153 13.2212 11.7048L13.3896 12.3785C13.4738 12.8838 13.2212 13.2206 12.8001 13.2206H12.5475L11.7896 13.0522H11.537C11.0317 13.0522 10.6106 13.389 10.4422 13.8943L10.2738 14.568C10.1896 14.989 9.93695 15.1574 9.68432 15.1574C9.5159 15.1574 9.34748 15.0732 9.17906 14.9048L8.6738 14.3995C8.42117 14.1469 8.16853 14.0627 7.83169 14.0627C7.49485 14.0627 7.24222 14.1469 6.98959 14.3995L6.48432 14.9048C6.3159 15.0732 6.14748 15.1574 5.97906 15.1574C5.72643 15.1574 5.4738 14.989 5.38959 14.568L5.22117 13.8943C5.13695 13.389 4.63169 13.0522 4.12643 13.0522H3.8738L3.1159 13.2206H2.86327C2.35801 13.2206 2.10538 12.8838 2.2738 12.3785L2.44222 11.7048C2.52643 11.0311 2.18959 10.4417 1.60011 10.2732L0.842218 10.1048C0.252744 9.93639 0.0843232 9.43113 0.505376 8.92586L1.01064 8.4206C1.43169 7.99955 1.43169 7.24165 1.01064 6.8206L0.505376 6.31534C0.0843232 5.89429 0.252744 5.38902 0.842218 5.2206L1.60011 4.96797C2.18959 4.79955 2.52643 4.21007 2.35801 3.6206L2.18959 2.94692C2.10538 2.44165 2.35801 2.10481 2.77906 2.10481H3.03169L3.78959 2.27323H4.04222C4.54748 2.27323 4.96853 1.93639 5.13696 1.43113L5.38959 0.757442C5.4738 0.33639 5.72643 0.167969 5.97906 0.167969C6.14748 0.167969 6.3159 0.252179 6.48432 0.4206L6.98959 0.925864C7.24222 1.1785 7.49485 1.26271 7.83169 1.26271C8.16853 1.26271 8.42117 1.1785 8.6738 0.925864L9.17906 0.4206C9.34748 0.252179 9.5159 0.167969 9.68432 0.167969C9.93695 0.167969 10.1896 0.4206 10.2738 0.757442L10.4422 1.43113C10.5264 1.93639 11.0317 2.27323 11.537 2.27323H11.7896L12.5475 2.10481H12.8001C13.3054 2.10481 13.558 2.44165 13.3896 2.94692L13.2212 3.6206C13.137 4.29428 13.4738 4.88376 14.0633 5.05218L14.8212 5.2206C15.4949 5.38902 15.5791 5.89429 15.158 6.31534L14.6527 6.90481ZM14.1474 9.34701L13.979 9.17858C13.1369 8.33648 13.1369 6.98911 13.979 6.14701L14.1474 5.97858L13.8948 5.89437C12.8001 5.64174 12.1264 4.46279 12.379 3.36806L12.4632 3.03122L12.1264 3.11543C11.958 3.19964 11.7895 3.19964 11.6211 3.19964C10.6948 3.19964 9.85269 2.61016 9.60006 1.68385V1.34701L9.34743 1.59964C8.92638 2.02069 8.3369 2.18911 7.83164 2.18911C7.32638 2.18911 6.7369 2.02069 6.40006 1.76806L6.14743 1.51543L6.06322 1.76806C5.81059 2.61016 4.96848 3.28385 4.04217 3.28385C3.95796 3.28385 3.87375 3.26279 3.78954 3.24174C3.70532 3.22069 3.62111 3.19964 3.5369 3.19964L3.20006 3.11543L3.28427 3.36806C3.62111 4.46279 2.94743 5.55753 1.85269 5.89437L1.51585 5.97858L1.60006 6.23122C2.35796 7.07332 2.35796 8.33648 1.60006 9.17858L1.43164 9.34701L1.68427 9.43122C2.77901 9.68385 3.45269 10.8628 3.20006 11.9575L3.11585 12.2102L3.45269 12.126C3.62111 12.0417 3.78954 12.0417 3.95796 12.0417C4.88427 12.0417 5.72638 12.6312 5.97901 13.5575L6.06322 13.8102L6.31585 13.5575C6.65269 13.1365 7.15796 12.9681 7.74743 12.9681C8.3369 12.9681 8.84217 13.1365 9.26322 13.5575L9.51585 13.8102L9.60006 13.5575C9.85269 12.7154 10.6948 12.0417 11.6211 12.0417C11.7053 12.0417 11.7895 12.0628 11.8737 12.0838C11.958 12.1049 12.0422 12.126 12.1264 12.126L12.4632 12.2102L12.379 11.9575C12.1264 10.8628 12.8001 9.76806 13.8948 9.43122L14.1474 9.34701Z" fill="black"/>
</svg>
