<svg width="24" height="19" viewBox="0 0 24 19" fill="none" xmlns="http://www.w3.org/2000/svg">
<path fill-rule="evenodd" clip-rule="evenodd" d="M0 0.666504H16.5333L24 9.73317V15.5998H22.2667C22.2667 17.1998 20.9333 18.5332 19.3333 18.5332C17.7333 18.5332 16.4 17.1998 16.4 15.5998H7.33333C7.33333 17.1998 6 18.5332 4.4 18.5332C2.8 18.5332 1.46667 17.1998 1.46667 15.5998H0V0.666504ZM3.06689 15.7333C3.06689 16.5333 3.73356 17.1999 4.53356 17.1999C5.33356 17.1999 6.00023 16.5333 6.00023 15.7333C6.00023 14.9333 5.33356 14.2666 4.53356 14.2666C3.73356 14.2666 3.06689 14.9333 3.06689 15.7333ZM19.4667 17.1998C18.6667 17.1998 18 16.5332 18 15.7332C18 14.9332 18.6667 14.2665 19.4667 14.2665C20.2667 14.2665 20.9333 14.9332 20.9333 15.7332C20.9333 16.5332 20.2667 17.1998 19.4667 17.1998ZM22.1335 14.1333H22.4001V10.1333L15.7335 2.1333H1.4668V14.1333H2.00013C2.2668 13.7333 2.6668 13.3333 3.0668 13.0666C4.40013 12.2666 6.2668 12.6666 7.0668 14.1333H17.0668C17.3335 13.7333 17.7335 13.3333 18.1335 13.0666C19.4668 12.2666 21.3335 12.6666 22.1335 14.1333Z" fill="black"/>
</svg>
