<svg width="22" height="22" viewBox="0 0 22 22" fill="none" xmlns="http://www.w3.org/2000/svg">
<path fill-rule="evenodd" clip-rule="evenodd" d="M8.695 9.03999C4.35637 9.59999 0.666504 11 0.666504 15.56C0.666504 19.64 3.66705 21.88 7.84349 21.84C11.0062 21.84 12.8714 20.72 14.0879 19H14.1284C14.2906 20.08 14.4934 20.88 14.8177 21.32H21.3054V21.04C20.7377 20.68 20.5755 19.72 20.5755 18.08V7.63999C20.5755 5.03999 19.6835 2.99999 17.8994 1.71999C16.3586 0.599993 14.2501 0.0399933 11.0873 0.0399933C4.76185 0.0399933 1.7613 3.31999 1.59911 7.15999H7.72185C7.92459 5.39999 8.97883 4.47999 11.1279 4.47999C13.1553 4.47999 14.0068 5.39999 14.0068 6.71999C14.0068 8.15999 12.6281 8.55999 8.695 9.03999ZM14.2095 11.48V13.96C14.2095 16.16 12.466 17.68 9.99253 17.68C8.33007 17.68 7.11363 17 7.11363 15.36C7.11363 13.76 8.16787 13.12 10.7629 12.56C12.101 12.24 13.358 11.92 14.2095 11.48Z" fill="black"/>
</svg>
