<svg width="24" height="23" viewBox="0 0 24 23" fill="none" xmlns="http://www.w3.org/2000/svg">
<path fill-rule="evenodd" clip-rule="evenodd" d="M22.9893 11.4949C22.9893 12.758 22.7367 14.0212 22.484 15.2844C22.863 16.0423 23.1156 16.8001 23.1156 17.6844C23.1156 20.5896 20.8419 22.8633 17.9367 22.8633C17.0524 22.8633 16.2945 22.6107 15.5367 22.2317C14.2735 22.6107 12.884 22.8633 11.6209 22.8633C5.30507 22.8633 0.252441 17.8107 0.252441 11.4949C0.252441 5.1791 5.30507 0.126465 11.6209 0.126465C17.9367 0.126465 22.9893 5.1791 22.9893 11.4949ZM5.05225 18.9474C6.82067 20.5896 9.22067 21.4738 11.6207 21.4738C12.5049 21.4738 13.2628 21.3474 14.147 21.0948C12.8838 19.7053 12.3786 17.6843 13.0101 15.9159C12.6312 15.7896 12.1259 15.7896 11.747 15.7896C9.09435 15.9159 6.69435 17.0527 5.05225 18.9474ZM17.8105 21.3475C15.6631 21.3475 14.021 19.7054 14.021 17.558C14.021 15.4107 15.6631 13.7686 17.8105 13.7686C19.9578 13.7686 21.5999 15.4107 21.5999 17.558C21.5999 19.7054 19.9578 21.3475 17.8105 21.3475ZM14.147 14.0211C16.0417 12 19.1996 11.8737 21.2206 13.7684C21.4733 13.0106 21.5996 12.2527 21.5996 11.4948C21.5996 9.09476 20.7154 6.82108 19.1996 5.05266C15.6627 0.884237 9.34696 0.378974 5.17854 3.91582C1.01012 7.45266 0.504853 13.7684 4.16801 17.8106C6.06275 15.5369 8.96801 14.2737 11.8733 14.2737C12.5049 14.2737 13.1364 14.4 13.768 14.5263C13.8312 14.4632 13.8943 14.3684 13.9575 14.2737C14.0206 14.179 14.0838 14.0842 14.147 14.0211Z" fill="black"/>
</svg>
