<svg width="24" height="24" viewBox="0 0 24 24" fill="none" xmlns="http://www.w3.org/2000/svg">
<path fill-rule="evenodd" clip-rule="evenodd" d="M12.5682 0C20.3815 0 23.9402 5.492 23.9402 10.5947C23.9402 15.4133 21.9909 18.2907 18.7269 18.2907C17.1082 18.2907 15.9629 17.58 15.5029 16.2893L15.4482 16.1373H15.1042L15.0375 16.24C14.1029 17.6547 12.5655 18.4987 10.9242 18.4987C7.95619 18.4987 6.04019 16.3573 6.04019 13.044C6.04019 8.74267 8.46552 5.73867 11.9389 5.73867C14.0495 5.73867 15.0242 6.992 15.4162 7.73867L15.4802 7.86133H15.8789L16.1189 6.03867H17.9922L17.0069 14.092C16.8775 15.1053 17.0095 15.8213 17.4135 16.2787C17.7349 16.644 18.2282 16.8307 18.8762 16.8307C20.4722 16.8307 22.3349 15.228 22.3349 10.7107C22.3349 4.98267 18.5575 1.424 12.4789 1.424C7.13486 1.424 1.72552 5.26267 1.72552 12.596C1.72552 18.6907 5.73486 22.6307 11.9389 22.6307C13.8149 22.6307 15.5949 22.3093 17.3749 21.6493L17.8909 22.8813C16.1589 23.6133 14.1589 24 12.0909 24C4.89352 24 0.0601904 19.4053 0.0615234 12.568C0.0615234 6.47467 4.44419 0 12.5682 0ZM8.00293 13.0158C8.00293 15.5745 9.1856 17.1012 11.1643 17.1012C13.8509 17.1012 15.4563 14.8825 15.4563 11.1638C15.4563 8.62384 14.1976 7.1665 12.0003 7.1665C9.4976 7.1665 8.00293 9.35317 8.00293 13.0158Z" fill="black"/>
</svg>
