<svg width="23" height="18" viewBox="0 0 23 18" fill="none" xmlns="http://www.w3.org/2000/svg">
<path fill-rule="evenodd" clip-rule="evenodd" d="M19.9579 5.46328V0.410645L8.96842 5.08433H0V11.6528H2.90526V17.5896H7.70526V11.6528H8.96842L19.8316 16.3264V11.2738C21.4737 11.2738 22.7368 9.88433 22.7368 8.36854C22.7368 6.85275 21.4737 5.46328 19.9579 5.46328ZM6.31597 16.2002H4.29492V11.6528H6.31597V16.2002ZM1.51562 10.2633H9.09457V6.6001H1.51562V10.2633ZM18.5686 14.1792L10.4844 10.6423V6.09495L18.5686 2.55811V14.1792ZM19.958 6.85254V9.88412C20.7159 9.88412 21.3475 9.25254 21.3475 8.49464C21.4738 7.73675 20.8422 6.97885 19.958 6.85254Z" fill="black"/>
</svg>
