<svg width="22" height="24" viewBox="0 0 22 24" fill="none" xmlns="http://www.w3.org/2000/svg">
<path fill-rule="evenodd" clip-rule="evenodd" d="M21.5828 6.36933L18.8415 9.228L21.5828 12.088L18.6415 14.4573V17.9053L11.0228 24L3.40415 17.904V14.496L0.41748 12.0867L3.15881 9.228L0.41748 6.36933L8.31081 0L11.0535 2.86133L13.7441 0.0546667L21.5828 6.36933ZM5.45898 9.2279L11.0003 13.6612L16.5417 9.22923L11.0003 4.7959L5.45898 9.2279ZM17.7094 10.2148L19.3681 11.9455L13.8747 16.3708L12.1987 14.6228L17.7094 10.2148ZM19.3681 6.51176L13.8747 2.08643L12.1987 3.83309L17.7094 8.24243L19.3681 6.51176ZM8.18019 2.03223L9.86153 3.78556L4.29086 8.24289L2.63086 6.51089L8.18019 2.03223ZM9.86153 14.6722L4.29086 10.2148L2.63086 11.9455L8.18019 16.4255L9.86153 14.6722ZM4.90283 15.7065L8.3095 18.4559L10.3042 16.3759V21.5039L4.90283 17.1825V15.7065ZM11.8057 21.4535L17.1417 17.1842H17.143V15.6655L13.7457 18.4015L11.8057 16.3789V21.4535Z" fill="black"/>
</svg>
