<svg width="14" height="14" viewBox="0 0 14 14" fill="none" xmlns="http://www.w3.org/2000/svg">
<path fill-rule="evenodd" clip-rule="evenodd" d="M8.05 0.7L13.3 5.95C13.9 6.55 13.9 7.45 13.3 8.05L8.05 13.3C7.75 13.6 7.375 13.75 7 13.75C6.625 13.75 6.25 13.6 5.95 13.3L0.7 8.05C0.1 7.45 0.1 6.55 0.7 5.95L5.95 0.7C6.25 0.4 6.625 0.25 7 0.25C7.375 0.25 7.75 0.4 8.05 0.7ZM7.45 12.6999L12.7 7.4499C12.85 7.2999 12.925 7.1499 12.925 6.9999C12.925 6.8499 12.85 6.6999 12.625 6.5499L7.375 1.2999C7.225 1.2249 7.075 1.1499 6.925 1.1499C6.775 1.1499 6.625 1.1499 6.475 1.2999L1.225 6.5499C1.15 6.6999 1.075 6.8499 1.075 6.9999C1.075 7.1499 1.15 7.2999 1.3 7.4499L6.55 12.6999C6.7 12.8499 6.85 12.8499 7 12.8499C7.15 12.8499 7.3 12.8499 7.45 12.6999Z" fill="black"/>
</svg>
