<svg width="18" height="23" viewBox="0 0 18 23" fill="none" xmlns="http://www.w3.org/2000/svg">
<path fill-rule="evenodd" clip-rule="evenodd" d="M0.536621 8.7156C0.536621 4.04191 4.32609 0.252441 8.99978 0.252441C13.6735 0.252441 17.4629 4.04191 17.4629 8.7156C17.4629 9.47349 17.084 11.1156 16.5787 12.2524C14.9366 15.663 8.99978 22.9893 8.99978 22.9893C8.99978 22.9893 2.43136 14.9051 1.1682 12.1261C0.789253 10.9893 0.536621 9.85244 0.536621 8.7156ZM8.99995 20.7158C10.7684 18.4421 14.1789 14.021 15.3157 11.621C15.821 10.6105 16.0736 9.22104 16.0736 8.71577C16.0736 4.79998 12.9157 1.64209 8.99995 1.64209C5.08416 1.64209 1.92627 4.79998 1.92627 8.71577C1.92627 9.59998 2.05259 10.6105 2.43153 11.4947C3.31574 13.2631 6.85259 17.9368 8.99995 20.7158Z" fill="black"/>
</svg>
