<svg width="23" height="23" viewBox="0 0 23 23" fill="none" xmlns="http://www.w3.org/2000/svg">
<path fill-rule="evenodd" clip-rule="evenodd" d="M0.252441 11.6209C0.252441 5.30507 5.30507 0.252441 11.6209 0.252441C17.9367 0.252441 22.9893 5.30507 22.9893 11.6209C22.9893 17.9367 17.9367 22.9893 11.6209 22.9893C9.47349 22.9893 7.45244 22.484 5.68402 21.3472L0.631389 22.863L2.02086 17.684C0.88402 15.9156 0.252441 13.8945 0.252441 11.6209ZM6.44175 20.0842C7.95754 21.0947 9.72596 21.6 11.6207 21.6C17.0523 21.6 21.726 17.1789 21.726 11.621C21.726 6.06314 17.3049 1.64209 11.747 1.64209C6.18912 1.64209 1.76807 6.18946 1.76807 11.621C1.76807 13.5158 2.27333 15.2842 3.28386 16.9263L3.6628 17.4316L3.53649 18.0631L2.77859 20.7158L5.30491 19.9579L5.93649 19.7052L6.44175 20.0842Z" fill="black"/>
</svg>
