<svg width="12" height="13" viewBox="0 0 12 13" fill="none" xmlns="http://www.w3.org/2000/svg">
<path fill-rule="evenodd" clip-rule="evenodd" d="M7.9799 7.82631L11.7694 11.6158L11.2767 12.1337L7.48727 8.34421C5.9613 9.64223 3.73805 9.70469 2.14162 8.49439C0.545189 7.28409 0.00497191 5.12656 0.842708 3.30678C1.68044 1.48699 3.6708 0.494414 5.62839 0.920198C7.58597 1.34598 8.98424 3.0756 8.99042 5.07894C8.99283 6.08609 8.63433 7.06076 7.9799 7.82631ZM1.44787 6.43199C1.99787 7.76147 3.29484 8.6285 4.73359 8.6285C5.67606 8.63017 6.58051 8.25695 7.24753 7.59112C7.91456 6.92528 8.28938 6.0215 8.28938 5.07902C8.29194 3.64027 7.42722 2.34176 6.09872 1.7894C4.77021 1.23704 3.23977 1.5397 2.22151 2.55615C1.20325 3.5726 0.897875 5.1025 1.44787 6.43199Z" fill="black"/>
</svg>
