<svg width="23" height="23" viewBox="0 0 23 23" fill="none" xmlns="http://www.w3.org/2000/svg">
<path fill-rule="evenodd" clip-rule="evenodd" d="M0.126465 11.4949C0.126465 5.1791 5.1791 0.126465 11.4949 0.126465C17.8107 0.126465 22.8633 5.1791 22.8633 11.4949C22.8633 17.8107 17.8107 22.8633 11.4949 22.8633C9.34752 22.8633 7.32647 22.2317 5.55804 21.2212L0.505412 22.737L1.89489 17.558C0.758044 15.7896 0.126465 13.7686 0.126465 11.4949ZM6.1246 19.9195C6.97217 20.3902 8.92395 21.474 11.4951 21.474C17.053 21.474 21.474 16.9266 21.474 11.4951C21.474 6.06348 17.053 1.51611 11.4951 1.51611C5.93717 1.51611 1.51611 6.06348 1.51611 11.4951C1.51611 14.3394 2.58228 16.0413 3.11807 16.8966C3.27232 17.1429 3.38261 17.319 3.41085 17.4319C3.41085 17.5799 3.10744 18.6381 2.85608 19.5148C2.69055 20.0921 2.5476 20.5907 2.52874 20.6987C2.50874 20.71 2.50699 20.7161 2.52664 20.7161C2.52664 20.7125 2.52735 20.7067 2.52874 20.6987C2.7659 20.565 5.56805 19.7056 5.68453 19.7056C5.73939 19.7056 5.88952 19.789 6.1246 19.9195Z" fill="black"/>
</svg>
