<svg width="10" height="10" viewBox="0 0 10 10" fill="none" xmlns="http://www.w3.org/2000/svg">
<path fill-rule="evenodd" clip-rule="evenodd" d="M5.79997 0.648716L9.47943 4.32818C9.89994 4.74869 9.89994 5.37946 9.47943 5.79997L5.79997 9.47943C5.58971 9.68969 5.32689 9.79481 5.06407 9.79481C4.80126 9.79481 4.53844 9.68969 4.32818 9.47943L0.648716 5.79997C0.228206 5.37946 0.228206 4.74869 0.648716 4.32818L4.32818 0.648716C4.53844 0.438461 4.80126 0.333333 5.06407 0.333333C5.32689 0.333333 5.58971 0.438461 5.79997 0.648716ZM5.37946 9.05877L9.05892 5.37931C9.16405 5.27418 9.21661 5.16905 9.21661 5.06393C9.21661 4.9588 9.16405 4.85367 9.00636 4.74854L5.32689 1.06908C5.22177 1.01652 5.11664 0.963952 5.01151 0.963952C4.90638 0.963952 4.80125 0.963952 4.69613 1.06908L1.01666 4.74854C0.964099 4.85367 0.911535 4.9588 0.911535 5.06393C0.911535 5.16905 0.964099 5.27418 1.06923 5.37931L4.74869 9.05877C4.85382 9.1639 4.95895 9.1639 5.06407 9.1639C5.1692 9.1639 5.27433 9.1639 5.37946 9.05877Z" fill="black"/>
</svg>
