<svg width="8" height="9" viewBox="0 0 8 9" fill="none" xmlns="http://www.w3.org/2000/svg">
<path fill-rule="evenodd" clip-rule="evenodd" d="M4.58333 1L7.5 3.91667C7.83333 4.25 7.83333 4.75 7.5 5.08333L4.58333 8C4.41667 8.16667 4.20833 8.25 4 8.25C3.79167 8.25 3.58333 8.16667 3.41667 8L0.5 5.08333C0.166667 4.75 0.166667 4.25 0.5 3.91667L3.41667 1C3.58333 0.833333 3.79167 0.75 4 0.75C4.20833 0.75 4.41667 0.833333 4.58333 1ZM4.25 7.66661L7.16666 4.74995C7.25 4.66661 7.29166 4.58328 7.29166 4.49995C7.29166 4.41661 7.25 4.33328 7.125 4.24995L4.20833 1.33328C4.125 1.29161 4.04166 1.24995 3.95833 1.24995C3.875 1.24995 3.79166 1.24995 3.70833 1.33328L0.791664 4.24995C0.749997 4.33328 0.708331 4.41661 0.708331 4.49995C0.708331 4.58328 0.749997 4.66661 0.833331 4.74995L3.75 7.66661C3.83333 7.74995 3.91666 7.74995 4 7.74995C4.08333 7.74995 4.16666 7.74995 4.25 7.66661Z" fill="#747676"/>
</svg>
