<svg width="8" height="8" viewBox="0 0 8 8" fill="none" xmlns="http://www.w3.org/2000/svg">
<path fill-rule="evenodd" clip-rule="evenodd" d="M4.10019 0.100098C1.9002 0.100098 0.200195 1.9001 0.200195 4.0001C0.200195 6.1001 2.0002 7.9001 4.10019 7.9001C6.20019 7.9001 8.00019 6.1001 8.00019 4.0001C8.00019 1.9001 6.20019 0.100098 4.10019 0.100098ZM4.10027 1.2002C5.50027 1.2002 6.60027 2.2002 6.90027 3.4002L1.40027 3.4002C1.60027 2.2002 2.70027 1.2002 4.10027 1.2002ZM1.30029 4.70007C1.60029 5.90007 2.70029 6.90007 4.10029 6.90007C5.40029 6.90007 6.60029 5.90007 6.80029 4.70007L1.30029 4.70007Z" fill="black"/>
</svg>
