<svg width="33" height="40" viewBox="0 0 33 40" fill="none" xmlns="http://www.w3.org/2000/svg">
<g filter="url(#filter0_d_1_470)">
<path d="M24.8919 21.6711C25.3107 21.4151 25.8029 21.2676 26.3297 21.2676C27.8543 21.2676 29.0902 22.5036 29.0902 24.0282V28.2536C29.0902 28.4662 29.0657 28.6784 29.0169 28.8859L24.8919 21.6711ZM24.8919 21.6711C24.427 20.8023 23.5107 20.2113 22.4564 20.2113C21.8642 20.2113 21.3156 20.3977 20.8661 20.7151C20.3692 19.9859 19.5321 19.5071 18.5831 19.5071C18.1872 19.5071 17.8108 19.5904 17.4705 19.7405V15.2253C17.4705 13.7008 16.2345 12.4648 14.7099 12.4648C13.1852 12.4648 11.9493 13.7008 11.9493 15.2253V24.4138C11.0006 23.5833 9.57147 23.4876 8.5088 24.2604L8.50878 24.2604C7.27581 25.1572 7.00323 26.8837 7.89992 28.1167L8.70743 27.5294L7.89993 28.1167L13.5336 35.8632L13.5337 35.8632C13.7898 36.2154 14.1255 36.5019 14.5135 36.6995C14.9015 36.8971 15.3308 37.0001 15.7662 37.0001H15.7662H24.9212C26.2022 37.0001 27.315 36.1188 27.6084 34.8718C27.6084 34.8718 27.6084 34.8718 27.6084 34.8718L29.0168 28.886L24.8919 21.6711Z" fill="#FF00FF" stroke="white" stroke-width="2"/>
<path d="M16.2995 5.30321L16.2995 5.30264C16.2989 4.24177 15.4391 3.38233 14.3786 3.38151L14.3777 3.38151C13.3165 3.38165 12.4563 4.2418 12.4562 5.30303L12.4562 5.30316L12.4562 8.19893L12.4562 8.19918C12.4563 8.72908 12.6723 9.21095 13.019 9.55771C13.366 9.90465 13.8477 10.1201 14.377 10.1205L14.3779 10.1205C15.439 10.1204 16.2992 9.26015 16.2993 8.19905L16.2993 8.19897L16.2995 5.30321Z" fill="#FF00FF" stroke="white" stroke-width="2"/>
<path d="M8.37432 11.9067L8.37445 11.9069C9.1247 12.6568 10.3413 12.6573 11.0918 11.9068C11.8424 11.1562 11.8419 9.93955 11.0917 9.18936L9.04409 7.14176C8.29405 6.39172 7.07737 6.3909 6.32665 7.14163C5.57629 7.89199 5.57638 9.10879 6.32672 9.85913L8.37432 11.9067Z" fill="#FF00FF" stroke="white" stroke-width="2"/>
<path d="M8.109 11.9469L8.10926 11.9469C9.17002 11.9471 10.0305 12.8069 10.0305 13.8682L8.109 11.9469ZM8.109 11.9469L5.21336 11.9469M8.109 11.9469L5.21336 11.9469M5.21336 11.9469C5.2133 11.9469 5.21323 11.9469 5.21317 11.9469M5.21336 11.9469L5.21317 11.9469M5.21317 11.9469C5.21311 11.9469 5.21304 11.9469 5.21297 11.9469M5.21317 11.9469H5.21297M5.21297 11.9469C4.15155 11.9467 3.29145 12.8072 3.29152 13.8683L5.21297 11.9469ZM3.29152 13.8684C3.29156 14.3985 3.50747 14.8802 3.85432 15.227C4.20104 15.5737 4.6828 15.7897 5.21291 15.7897L8.10881 15.7898C9.17002 15.79 10.0305 14.9296 10.0305 13.8684L3.29152 13.8684Z" fill="#FF00FF" stroke="white" stroke-width="2"/>
<path d="M17.8099 11.4138C18.5603 12.1641 19.7771 12.164 20.5274 11.4137L22.5752 9.36589C23.3255 8.61563 23.3256 7.39889 22.5752 6.64846C21.8247 5.89799 20.6081 5.89824 19.8578 6.64853L17.81 8.69639C17.0598 9.44651 17.0593 10.6631 17.8099 11.4138Z" fill="#FF00FF" stroke="white" stroke-width="2"/>
<path d="M21.548 15.7898C21.0171 15.7898 20.5356 15.5732 20.1892 15.2268C19.843 14.8806 19.6264 14.3992 19.6264 13.8684L21.548 15.7898ZM21.548 15.7898C21.5481 15.7898 21.5481 15.7898 21.5482 15.7898L24.4435 15.7897M21.548 15.7898L24.4435 15.7897M24.4435 15.7897C24.4436 15.7897 24.4436 15.7897 24.4437 15.7897M24.4435 15.7897H24.4437M24.4437 15.7897C25.5048 15.7898 26.3652 14.9296 26.3652 13.8683L24.4437 15.7897ZM21.548 11.9467C21.548 11.9467 21.5481 11.9467 21.5481 11.9467L24.4433 11.9467C24.4435 11.9467 24.4436 11.9467 24.4437 11.9467C25.5049 11.9465 26.3651 12.8071 26.3652 13.8679L21.548 11.9467ZM21.548 11.9467C20.4869 11.9467 19.6265 12.8069 19.6264 13.868L21.548 11.9467Z" fill="#FF00FF" stroke="white" stroke-width="2"/>
</g>
<defs>
<filter id="filter0_d_1_470" x="0.291504" y="0.381512" width="31.7987" height="39.6186" filterUnits="userSpaceOnUse" color-interpolation-filters="sRGB">
<feFlood flood-opacity="0" result="BackgroundImageFix"/>
<feColorMatrix in="SourceAlpha" type="matrix" values="0 0 0 0 0 0 0 0 0 0 0 0 0 0 0 0 0 0 127 0" result="hardAlpha"/>
<feOffset/>
<feGaussianBlur stdDeviation="1"/>
<feComposite in2="hardAlpha" operator="out"/>
<feColorMatrix type="matrix" values="0 0 0 0 0 0 0 0 0 0 0 0 0 0 0 0 0 0 0.3 0"/>
<feBlend mode="normal" in2="BackgroundImageFix" result="effect1_dropShadow_1_470"/>
<feBlend mode="normal" in="SourceGraphic" in2="effect1_dropShadow_1_470" result="shape"/>
</filter>
</defs>
</svg>
