<svg width="16" height="17" viewBox="0 0 16 17" fill="none" xmlns="http://www.w3.org/2000/svg">
<path d="M14.7563 8.5C14.7563 12.2333 11.7341 15.2556 8.00074 15.2556C5.8674 15.2556 3.91185 14.2778 2.6674 12.5889H5.8674V11.6111H0.978516V16.5H1.95629V13.3889C3.4674 15.1667 5.60074 16.2333 8.00074 16.2333C12.2674 16.2333 15.7341 12.7667 15.7341 8.5H14.7563Z" fill="black"/>
<path d="M8.00091 1.74444C10.1342 1.74444 12.0898 2.72222 13.3342 4.41111H10.0454V5.38889H14.9342V0.5H13.9565V3.52222C12.4454 1.74444 10.312 0.766667 8.00091 0.766667C3.73425 0.766667 0.267578 4.23333 0.267578 8.5H1.24536C1.24536 4.76667 4.26758 1.74444 8.00091 1.74444Z" fill="black"/>
</svg>
