<svg width="21" height="22" viewBox="0 0 21 22" fill="none" xmlns="http://www.w3.org/2000/svg">
<path d="M0.330963 14.64H6.65644C6.89973 16.72 8.27836 17.72 10.5085 17.72C12.5359 17.72 13.7929 17 13.7929 15.64C13.7929 13.8 11.2384 13.56 8.4811 13.08C4.83178 12.48 0.939182 11.52 0.939182 6.64C0.939182 2.28 5.03452 0 9.98137 0C15.9419 0 19.1047 2.56 19.429 6.64H13.2658C13.0225 4.76 11.7655 4.2 9.90028 4.2C8.27836 4.2 6.98083 4.8 6.98083 6.08C6.98083 7.52 9.37315 7.72 12.0088 8.24C15.6986 8.84 20.0373 9.76 20.0373 15.08C20.0373 19.6 15.9825 21.96 10.4679 21.96C4.38576 22 0.533703 19.2 0.330963 14.64Z" fill="black"/>
</svg>
