<svg width="5" height="7" viewBox="0 0 5 7" fill="none" xmlns="http://www.w3.org/2000/svg">
<path d="M2.61681 5.67004C1.68148 5.67004 1.09415 5.16604 1.06948 4.25537H0.382812C0.407479 5.54671 1.39215 6.25004 2.64148 6.25004C3.79148 6.25004 4.67681 5.62937 4.67681 4.54537C4.67681 3.80937 4.32948 3.30404 3.53481 3.09737V3.07271C4.08148 2.89071 4.47015 2.51871 4.47015 1.88071C4.47015 0.89604 3.63481 0.324707 2.58348 0.324707C1.33348 0.324707 0.580812 1.06937 0.572812 2.18671H1.25148C1.25148 1.40004 1.73948 0.870707 2.55815 0.870707C3.23681 0.870707 3.79081 1.24271 3.79081 1.86404C3.79081 2.46804 3.34415 2.84004 2.45881 2.84004H2.11148V3.37804H2.46748C3.41881 3.37804 3.95681 3.75937 3.95681 4.47937C3.95681 5.28137 3.40281 5.67004 2.61681 5.67004Z" fill="black"/>
</svg>
