<svg width="11" height="10" viewBox="0 0 11 10" fill="none" xmlns="http://www.w3.org/2000/svg">
<path d="M5.46683 9.8001L4.9335 9.26676C2.66683 7.13343 1.20016 5.13343 0.933496 3.93343C0.800163 3.4001 0.800163 2.86676 0.933496 2.46676C1.06683 2.06676 1.3335 1.53343 1.60016 1.26676C2.1335 0.866764 2.66683 0.600098 3.3335 0.600098C4.1335 0.600098 4.80016 0.733431 5.3335 1.26676C6.00016 0.733431 6.9335 0.600098 7.7335 0.733431C8.40016 0.733431 8.80016 1.0001 9.20016 1.26676C9.60016 1.66676 9.86683 2.06676 10.0002 2.73343C10.1335 3.13343 10.1335 3.66676 10.0002 4.06676C9.7335 5.4001 7.7335 7.66676 6.00016 9.4001L5.46683 9.8001Z" fill="black"/>
</svg>
