<svg width="5" height="7" viewBox="0 0 5 7" fill="none" xmlns="http://www.w3.org/2000/svg">
<path d="M2.61681 6.17004C1.68148 6.17004 1.09415 5.66604 1.06948 4.75537H0.382812C0.407479 6.04671 1.39215 6.75004 2.64148 6.75004C3.79148 6.75004 4.67681 6.12937 4.67681 5.04537C4.67681 4.30937 4.32948 3.80404 3.53481 3.59737V3.57271C4.08148 3.39071 4.47015 3.01871 4.47015 2.38071C4.47015 1.39604 3.63481 0.824707 2.58348 0.824707C1.33348 0.824707 0.580812 1.56937 0.572812 2.68671H1.25148C1.25148 1.90004 1.73948 1.37071 2.55815 1.37071C3.23681 1.37071 3.79081 1.74271 3.79081 2.36404C3.79081 2.96804 3.34415 3.34004 2.45881 3.34004H2.11148V3.87804H2.46748C3.41881 3.87804 3.95681 4.25937 3.95681 4.97937C3.95681 5.78137 3.40281 6.17004 2.61681 6.17004Z" fill="black"/>
</svg>
