<svg width="14" height="13" viewBox="0 0 14 13" fill="none" xmlns="http://www.w3.org/2000/svg">
<path fill-rule="evenodd" clip-rule="evenodd" d="M7.586 0.905492L12.5796 5.63623C13.1502 6.17689 13.1502 6.98787 12.5796 7.52853L7.586 12.2593C7.30065 12.5296 6.94397 12.6648 6.58728 12.6648C6.2306 12.6648 5.87392 12.5296 5.58857 12.2593L0.595012 7.52853C0.024319 6.98787 0.024319 6.17689 0.595012 5.63623L5.58857 0.905492C5.87392 0.635164 6.2306 0.5 6.58728 0.5C6.94397 0.5 7.30065 0.635164 7.586 0.905492ZM7.0153 11.7184L12.0089 6.98768C12.1515 6.85252 12.2229 6.71736 12.2229 6.58219C12.2229 6.44703 12.1515 6.31186 11.9375 6.1767L6.94397 1.44596C6.80129 1.37838 6.65862 1.31079 6.51595 1.31079C6.37327 1.31079 6.2306 1.31079 6.08793 1.44596L1.09437 6.1767C1.02303 6.31186 0.951695 6.44703 0.951695 6.58219C0.951695 6.71736 1.02303 6.85252 1.1657 6.98768L6.15926 11.7184C6.30194 11.8536 6.44461 11.8536 6.58728 11.8536C6.72996 11.8536 6.87263 11.8536 7.0153 11.7184Z" fill="black"/>
</svg>
