<svg width="22" height="22" viewBox="0 0 22 22" fill="none" xmlns="http://www.w3.org/2000/svg">
<path fill-rule="evenodd" clip-rule="evenodd" d="M8.69451 9.04001C4.35588 9.60001 0.666016 11 0.666016 15.56C0.666016 19.64 3.66656 21.88 7.843 21.84C11.0057 21.84 12.8709 20.72 14.0874 19H14.1279C14.2901 20.08 14.4929 20.88 14.8172 21.32H21.3049V21.04C20.7372 20.68 20.5751 19.72 20.5751 18.08V7.64001C20.5751 5.04001 19.683 3.00001 17.8989 1.72001C16.3581 0.600008 14.2496 0.0400085 11.0868 0.0400085C4.76136 0.0400085 1.76081 3.32001 1.59862 7.16001H7.72136C7.9241 5.40001 8.97834 4.48001 11.1274 4.48001C13.1548 4.48001 14.0063 5.40001 14.0063 6.72001C14.0063 8.16001 12.6277 8.56001 8.69451 9.04001ZM14.209 11.48V13.96C14.209 16.16 12.4655 17.68 9.99204 17.68C8.32958 17.68 7.11314 17 7.11314 15.36C7.11314 13.76 8.16739 13.12 10.7625 12.56C12.1005 12.24 13.3575 11.92 14.209 11.48Z" fill="black"/>
</svg>
