<svg width="16" height="24" viewBox="0 0 16 24" fill="none" xmlns="http://www.w3.org/2000/svg">
<path fill-rule="evenodd" clip-rule="evenodd" d="M15.2573 12.8987C15.097 12.5537 14.8481 12.071 14.5401 11.4979C15.3341 10.5883 15.5354 9.30373 15.0576 8.19491C14.58 7.16647 12.1476 3.10059 12.1476 3.10059C12.1476 3.10059 11.5833 4.06247 10.9472 5.17704C9.32579 2.40133 7.88933 0 7.88933 0C7.88933 0 2.30933 9.508 0.770667 12.7267C0.302613 13.7735 0.0409406 14.9007 0 16.0467C0.00144235 19.2761 1.9557 22.184 4.94534 23.4053C7.93499 24.6265 11.3663 23.9185 13.6284 21.6137C15.8905 19.3089 16.5342 15.865 15.2573 12.8987ZM11.6846 6.44365C11.8568 6.14221 12.0211 5.85698 12.158 5.62061C12.7041 6.54317 13.6695 8.19114 13.9076 8.70393C14.2112 9.40849 14.0584 10.2267 13.521 10.7742C12.9837 11.3218 12.1685 11.4899 11.4584 11.1997C10.7482 10.9094 10.2842 10.2184 10.2842 9.45126C10.2966 9.18147 10.3585 8.91625 10.4667 8.66881C10.5508 8.49273 10.6809 8.24534 10.8323 7.96574C11.0822 7.50478 11.3942 6.95181 11.6846 6.44365ZM1.49854 16.0465C1.50241 19.609 4.38946 22.496 7.95198 22.4998L7.95195 22.4998C10.1228 22.4985 12.1476 21.4061 13.341 19.5927C14.5343 17.7792 14.7363 15.4874 13.8786 13.4932C13.7478 13.2115 13.5474 12.8213 13.3044 12.3655C12.3388 12.7416 11.2497 12.6162 10.3948 12.0304C9.53988 11.4447 9.02969 10.4743 9.03175 9.43806C9.04786 8.98548 9.15115 8.54026 9.33596 8.12682C9.49839 7.78708 9.77612 7.26818 10.0939 6.69276C9.3008 5.33002 8.52151 4.00676 7.90112 2.9585C6.16653 5.95316 3.16534 11.1918 2.12267 13.3732C1.75281 14.2186 1.54126 15.1247 1.49854 16.0465Z" fill="black"/>
</svg>
