<svg width="12" height="12" viewBox="0 0 12 12" fill="none" xmlns="http://www.w3.org/2000/svg">
<path fill-rule="evenodd" clip-rule="evenodd" d="M6.81667 1.1L10.9 5.18333C11.3667 5.65 11.3667 6.35 10.9 6.81667L6.81667 10.9C6.58333 11.1333 6.29167 11.25 6 11.25C5.70833 11.25 5.41667 11.1333 5.18333 10.9L1.1 6.81667C0.633333 6.35 0.633333 5.65 1.1 5.18333L5.18333 1.1C5.41667 0.866667 5.70833 0.75 6 0.75C6.29167 0.75 6.58333 0.866667 6.81667 1.1ZM6.35 10.4333L10.4333 6.34992C10.55 6.23326 10.6083 6.11659 10.6083 5.99992C10.6083 5.88326 10.55 5.76659 10.375 5.64992L6.29166 1.56659C6.175 1.50826 6.05833 1.44992 5.94166 1.44992C5.825 1.44992 5.70833 1.44992 5.59166 1.56659L1.50833 5.64992C1.45 5.76659 1.39166 5.88326 1.39166 5.99992C1.39166 6.11659 1.45 6.23326 1.56666 6.34992L5.65 10.4333C5.76666 10.5499 5.88333 10.5499 6 10.5499C6.11666 10.5499 6.23333 10.5499 6.35 10.4333Z" fill="#747676"/>
</svg>
