<svg width="22" height="22" viewBox="0 0 22 22" fill="none" xmlns="http://www.w3.org/2000/svg">
<path fill-rule="evenodd" clip-rule="evenodd" d="M8.46355 9.04001C4.12492 9.60001 0.435059 11 0.435059 15.56C0.435059 19.64 3.43561 21.88 7.53095 21.84C10.6937 21.84 12.5589 20.72 13.7753 19H13.8564C14.0186 20.08 14.2214 20.88 14.5457 21.32H21.0334V21.04C20.4657 20.68 20.3036 19.72 20.3036 18.08V7.64001C20.3036 5.04001 19.4115 3.00001 17.6274 1.72001C16.0866 0.600008 13.9781 0.0400085 10.8153 0.0400085C4.48985 0.0400085 1.48931 3.32001 1.32711 7.16001H7.4904C7.69314 5.40001 8.74739 4.48001 10.8964 4.48001C12.9238 4.48001 13.7753 5.40001 13.7753 6.72001C13.7753 8.16001 12.3967 8.56001 8.46355 9.04001ZM13.9781 11.48V13.96C13.9781 16.16 12.2345 17.68 9.76109 17.68C8.09862 17.68 6.88218 17 6.88218 15.36C6.88218 13.76 7.93643 13.12 10.5315 12.56C11.8696 12.24 13.1266 11.92 13.9781 11.48Z" fill="black"/>
</svg>
