<svg width="21" height="24" viewBox="0 0 21 24" fill="none" xmlns="http://www.w3.org/2000/svg">
<path fill-rule="evenodd" clip-rule="evenodd" d="M18.7805 7.30461C20.6472 6.10461 21.1805 3.70461 19.9805 1.83795C19.4472 0.904615 18.5138 0.371281 17.4472 0.104615C16.3805 -0.162052 15.3138 0.104615 14.5138 0.637948C13.3138 1.43795 11.4472 4.37128 10.2472 6.37128C9.04718 4.37128 7.18051 1.43795 6.11385 0.637948C5.18051 0.104615 4.11385 -0.162052 3.04718 0.104615C2.11385 0.371281 1.18051 0.904615 0.64718 1.83795C-0.55282 3.70461 -0.0194863 6.10461 1.71385 7.30461C2.24718 7.70461 3.31385 7.97128 4.51385 8.23795H0.780514V23.9713H19.7138V8.23795H15.8472C17.1805 7.97128 18.2472 7.70461 18.7805 7.30461ZM15.3138 1.97128C15.7138 1.70461 16.1138 1.57128 16.6472 1.57128H17.1805C17.7138 1.83795 18.2472 2.10461 18.5138 2.63795C19.1805 3.70461 18.9138 5.17128 17.8472 5.97128C17.1805 6.37128 14.6472 6.90461 11.5805 7.17128C13.1805 4.50461 14.6472 2.37128 15.3138 1.97128ZM3.44741 1.70465C2.78074 1.83798 2.24741 2.10465 1.84741 2.77132C1.18074 3.83798 1.58074 5.30465 2.64741 5.97132C3.18074 6.37132 5.84741 6.90465 8.91408 7.30465C7.31408 4.50465 5.84741 2.37132 5.18074 1.97132C4.64741 1.70465 4.11408 1.57132 3.44741 1.70465ZM2.38037 9.83789H9.44704V22.5046H2.38037V9.83789ZM11.0474 22.3712H18.114V9.83789H11.0474V22.3712Z" fill="black"/>
</svg>
