<svg width="24" height="24" viewBox="0 0 24 24" fill="none" xmlns="http://www.w3.org/2000/svg">
<path fill-rule="evenodd" clip-rule="evenodd" d="M0 12C0 5.37258 5.37258 0 12 0C18.6244 0.00734817 23.9927 5.37563 24 12C24 18.6274 18.6274 24 12 24C5.37258 24 0 18.6274 0 12ZM17.2808 18.0999L21.1674 17.2044C21.8793 15.9601 22.3278 14.5827 22.4852 13.1577L19.9553 10.2461L17.5692 11.5283L15.9292 16.5918L17.2808 18.0999ZM6.74676 18.1016L2.82942 17.1994C2.12414 15.9642 1.67841 14.598 1.51953 13.1845L4.08401 10.2319L6.40562 11.367L8.09896 16.5918L6.74676 18.1016ZM1.49854 10.9992L3.15351 9.09408L2.93542 6.62549C2.13784 7.9587 1.64701 9.45272 1.49854 10.9992ZM9.44283 16.0409L7.85107 11.1278L12.0125 8.09375L16.176 11.1278L14.5855 16.0409H9.44283ZM21.0859 6.66162L20.8711 9.09163L22.4993 10.966C22.3479 9.44526 21.8655 7.9761 21.0859 6.66162ZM19.7869 4.90447L19.4354 8.88117L17.2004 10.0819L12.7368 6.82861V3.90251L16.3078 2.37744C17.6281 2.97302 18.8122 3.83308 19.7869 4.90447ZM12.0124 2.63679L14.2285 1.69036C12.7656 1.36931 11.2506 1.36786 9.78711 1.68612L12.0124 2.63679ZM7.70459 2.37161L11.2886 3.9027V6.82897L6.92592 10.0093L4.58805 8.86605L4.23584 4.87973C5.20922 3.81619 6.3896 2.96269 7.70459 2.37158V2.37161ZM6.53727 19.5402L4.10889 18.981C5.13306 20.1424 6.3996 21.0651 7.81918 21.6838L6.53727 19.5402ZM9.8986 22.3402L7.896 18.9894L9.23974 17.4888H14.7886L16.1317 18.9878L14.1343 22.334C12.7373 22.6221 11.2965 22.6242 9.89865 22.3402L9.8986 22.3402ZM17.4902 19.5384L16.2207 21.6646V21.6646C17.6219 21.0475 18.8724 20.1338 19.8861 18.9863L17.4902 19.5384Z" fill="black"/>
</svg>
