<svg width="24" height="24" viewBox="0 0 24 24" fill="none" xmlns="http://www.w3.org/2000/svg">
<path fill-rule="evenodd" clip-rule="evenodd" d="M17.5566 11.2393C20.1929 11.9151 22.4084 13.6972 23.6335 16.1274L24 16.7481L23.3887 17.1298C21.7188 18.1036 19.8285 18.6361 17.8958 18.677C17.207 18.6791 16.5206 18.5958 15.8522 18.429C13.7352 17.8498 11.9173 16.4881 10.7663 14.6194C8.85418 16.9432 7.97625 19.9482 8.33659 22.9358L6.86133 23.0308C6.5342 19.9125 7.35852 16.7822 9.17904 14.2295L9.10965 14.2313H9.10963H9.10961C9.0401 14.2333 8.97059 14.2352 8.89779 14.2352C7.14102 14.2683 5.41345 13.7829 3.93099 12.8397C1.73541 11.2315 0.342067 8.75277 0.109333 6.04117L0 5.32829L0.71028 5.20166C3.31472 4.79474 5.97769 5.36398 8.18815 6.80013C8.95064 7.37297 9.60161 8.0808 10.1087 8.8885C10.1445 7.7103 10.4311 6.55326 10.9492 5.4945C12.2739 3.11728 14.5614 1.42864 17.2233 0.862957L17.9173 0.666504L18.1309 1.35514C18.8562 3.8895 18.6204 6.60241 17.4687 8.97364C17.022 9.77945 16.4359 10.4996 15.7376 11.1007C16.3473 11.0749 16.9579 11.1214 17.5566 11.2393ZM16.8868 2.51611C14.9235 3.06338 13.2611 4.37404 12.2709 6.15543H12.2709C11.5109 7.86059 11.3672 9.77695 11.8647 11.5763C13.6749 11.067 15.2187 9.87875 16.1745 8.25927C17.0476 6.47844 17.2984 4.45628 16.8868 2.51611ZM4.73958 11.6026C3.10007 10.3993 2.00905 8.59101 1.70898 6.57956C3.68506 6.41069 5.66067 6.90957 7.31965 7.99638C8.80831 9.14402 9.79648 10.822 10.0781 12.6805C8.22747 12.9508 6.34038 12.5698 4.73958 11.6026ZM11.9087 13.6725C12.862 15.2933 14.404 16.4837 16.2134 16.9956C18.1577 17.3868 20.177 17.1147 21.9484 16.2228C20.9196 14.4634 19.2287 13.1895 17.2537 12.6858C15.4116 12.3849 13.5221 12.7337 11.9087 13.6725Z" fill="black"/>
</svg>
