<svg width="24" height="20" viewBox="0 0 24 20" fill="none" xmlns="http://www.w3.org/2000/svg">
<path fill-rule="evenodd" clip-rule="evenodd" d="M21.6 5.2V10.1333H24V14.9333H21.6V20H2.4V15.0667H0V10.2667H2.4V5.2H16V2.4C15.7333 2.13333 15.4667 1.73333 15.4667 1.33333C15.4667 0.533333 16.1333 0 16.8 0C17.6 0 18.1333 0.666667 18.1333 1.33333C18.1333 1.73333 18 2.13333 17.6 2.4V5.2H21.6ZM1.46667 13.4667H2.4V11.6H1.46667V13.4667ZM20.1334 18.3998H3.8667V6.6665H20.1334V18.3998ZM21.6 13.4667H22.5333V11.6H21.6V13.4667Z" fill="black"/>
</svg>
