<svg width="24" height="23" viewBox="0 0 24 23" fill="none" xmlns="http://www.w3.org/2000/svg">
<path fill-rule="evenodd" clip-rule="evenodd" d="M23.7017 11.4947C23.7017 5.17894 18.5227 0.126312 12.3333 0.126312C6.01748 0.126312 0.964844 5.17894 0.964844 11.4947C0.964844 17.8105 6.01748 22.8632 12.3333 22.8632V21.4737C8.54379 21.4737 5.25958 19.3263 3.49116 16.1684L6.39642 15.6632L5.51221 9.97894L2.48063 10.4842C2.9859 5.43158 7.28063 1.51579 12.3333 1.51579C17.5122 1.51579 21.6806 5.43158 22.1859 10.4842L19.1543 9.97894L18.1438 15.6632L22.6912 16.421L23.7017 11.4947ZM4.37537 11.621L4.88063 14.4L3.11221 14.6526L2.60695 12L4.37537 11.621ZM19.9122 14.5263L21.6806 14.7789L22.1859 12L20.4175 11.7474L19.9122 14.5263Z" fill="black"/>
</svg>
