<svg width="19" height="23" viewBox="0 0 19 23" fill="none" xmlns="http://www.w3.org/2000/svg">
<path fill-rule="evenodd" clip-rule="evenodd" d="M15.6844 6.31586C16.4423 6.31586 17.2002 6.5685 17.8318 7.20008C18.4634 7.70534 18.716 8.46323 18.5897 9.22113C18.5897 10.9895 17.2002 12.379 15.5581 12.379C15.241 12.379 15.0123 12.379 14.7241 12.305C14.7441 12.3229 14.768 12.3469 14.8002 12.379C15.3055 12.8843 15.6844 13.7685 15.6844 14.5264C15.6844 16.2948 14.2949 17.6843 12.6528 17.6843C12.4002 17.6843 12.0213 17.6843 11.6423 17.4317C12.4002 18.0632 12.7791 18.9474 12.7791 19.8317C12.7791 21.6001 11.3897 22.9895 9.74757 22.9895C8.73704 22.9895 7.97915 22.4843 7.34757 21.8527C6.33704 20.5896 6.46336 18.6948 7.72652 17.558C7.53705 17.558 7.37916 17.5895 7.22128 17.6211L7.22125 17.6211L7.22123 17.6211C7.06334 17.6527 6.90545 17.6843 6.71599 17.6843C5.83178 17.6843 4.94757 17.3053 4.31599 16.6738C3.30546 15.4106 3.43178 13.5159 4.69494 12.379C4.50546 12.379 4.34757 12.4106 4.18967 12.4422C4.03178 12.4738 3.87388 12.5053 3.68441 12.5053C2.04231 12.5053 0.652832 11.1159 0.652832 9.47376C0.652832 7.70534 2.04231 6.31586 3.81073 6.31586C5.2002 6.31586 6.46336 7.32639 6.71599 8.58955C6.96862 7.57902 7.85283 6.69481 8.98967 6.5685H8.10546C6.71599 6.5685 5.45283 6.18955 4.31599 5.43165C2.92652 4.42113 2.04231 2.90534 1.91599 1.26323L1.78967 0.631654L2.42125 0.379022C4.06336 7.50273e-05 5.83178 0.252707 7.22125 1.13692C8.3581 1.89481 9.24231 3.15797 9.62125 4.54744C9.62125 4.46938 9.6695 4.39131 9.73618 4.28342C9.77739 4.21674 9.82564 4.13868 9.87389 4.04218C10.3791 3.53692 11.2634 3.15797 12.0213 3.15797V4.67376C11.137 4.67376 10.3791 5.43165 10.3791 6.31586H9.87389C11.2634 6.44218 12.4002 7.32639 12.7791 8.58955C13.0318 7.32639 14.2949 6.31586 15.6844 6.31586ZM3.55811 1.7687C3.68442 2.65291 4.316 3.66344 5.20021 4.1687C6.08442 4.80028 7.09495 5.05291 8.23179 5.05291C7.97916 3.91607 7.34758 3.03186 6.46337 2.27397C5.57916 1.7687 4.56863 1.64239 3.55811 1.7687ZM9.74757 7.70557C10.6318 7.70557 11.3897 8.46346 11.3897 9.34767C11.3897 10.2319 10.6318 10.9898 9.74757 10.9898C8.86336 10.9898 8.10547 10.2319 8.10547 9.34767C8.10547 8.46346 8.86336 7.70557 9.74757 7.70557ZM8.73682 12.2529C9.24208 12.6319 9.49471 13.2635 9.74734 13.895C9.87366 13.2635 10.1263 12.8845 10.5052 12.5056C10.6316 12.5056 10.7579 12.3792 10.7579 12.3792C10.5684 12.3792 10.4105 12.4108 10.2526 12.4424L10.2526 12.4424C10.0947 12.474 9.93681 12.5056 9.74734 12.5056C9.36839 12.5056 8.98945 12.3792 8.73682 12.2529ZM3.81056 10.9898C2.92635 10.9898 2.16846 10.2319 2.16846 9.34767C2.16846 8.46346 2.92635 7.70557 3.81056 7.70557C4.69477 7.70557 5.45267 8.46346 5.45267 9.34767C5.45267 10.3582 4.69477 10.9898 3.81056 10.9898ZM7.85293 11.7472C7.34767 11.3683 6.96872 10.863 6.71609 10.2314C6.58978 10.7367 6.21083 11.3683 5.70557 11.7472C5.89504 11.7472 6.05293 11.7157 6.21083 11.6841L6.21084 11.6841C6.36873 11.6525 6.52662 11.6209 6.71609 11.6209C7.09504 11.6209 7.47399 11.6209 7.85293 11.7472ZM6.71584 16.295C5.83162 16.295 5.07373 15.5371 5.07373 14.6528C5.07373 13.7686 5.83162 13.0107 6.71584 13.0107C7.60005 13.0107 8.35794 13.7686 8.35794 14.6528C8.35794 15.5371 7.60005 16.295 6.71584 16.295ZM8.10546 19.8317C8.10546 20.8422 8.86336 21.4738 9.74757 21.4738C10.6318 21.4738 11.3897 20.8422 11.3897 19.8317C11.3897 18.9474 10.6318 18.1895 9.74757 18.1895C8.86336 18.1895 8.10546 18.9474 8.10546 19.8317ZM9.74734 16.8001C9.55787 16.8001 9.39997 16.8317 9.24208 16.8633C9.08418 16.8949 8.92629 16.9264 8.73682 16.9264C9.17131 16.6006 9.41899 16.0879 9.6405 15.6293C9.67658 15.5547 9.71196 15.4814 9.74734 15.4106C9.87366 16.0422 10.2526 16.5475 10.7579 16.9264C10.5684 16.9264 10.4105 16.8949 10.2526 16.8633C10.0947 16.8317 9.93682 16.8001 9.74734 16.8001ZM11.0107 14.6528C11.0107 15.5371 11.7686 16.295 12.6528 16.295C13.5371 16.295 14.295 15.5371 14.295 14.6528C14.295 13.7686 13.5371 13.0107 12.6528 13.0107C11.7686 13.0107 11.0107 13.7686 11.0107 14.6528ZM12.6526 11.4949C12.2737 11.4949 12.021 11.4949 11.6421 11.6213C12.1474 11.2423 12.5263 10.737 12.6526 10.1055C12.7789 10.6107 13.0316 11.116 13.4105 11.4949C13.4831 11.5676 13.514 11.5984 13.5512 11.6116C13.5568 11.6136 13.5626 11.6151 13.5687 11.6164C13.4756 11.6077 13.3703 11.5884 13.2574 11.5676C13.0698 11.5332 12.8612 11.4949 12.6526 11.4949ZM13.6631 11.6213C13.6333 11.6213 13.6018 11.6195 13.5687 11.6164C13.5923 11.6213 13.6205 11.6213 13.6631 11.6213ZM14.0425 9.34767C14.0425 10.2319 14.8004 10.9898 15.6846 10.9898C16.5688 10.9898 17.3267 10.2319 17.3267 9.34767C17.3267 8.46346 16.5688 7.70557 15.6846 7.70557C14.8004 7.70557 14.0425 8.46346 14.0425 9.34767Z" fill="black"/>
</svg>
