<svg width="23" height="23" viewBox="0 0 23 23" fill="none" xmlns="http://www.w3.org/2000/svg">
<path fill-rule="evenodd" clip-rule="evenodd" d="M20.337 10.8633V12.2528L22.8633 14.2738L21.3475 17.8107L18.1896 17.3054C17.937 17.6844 17.558 18.0633 17.1791 18.3159L17.6844 21.4738L14.0212 22.8633L12.1265 20.337H10.737L8.84225 22.8633L5.30541 21.4738L5.81068 18.1896C5.43173 17.937 5.05278 17.558 4.80015 17.1791L1.64225 17.6844L0.126465 14.1475L2.65278 12.2528V10.8633L0.126465 8.96857L1.64225 5.43173L4.80015 5.81068C4.9652 5.5631 5.18416 5.36945 5.42181 5.15926C5.54792 5.04772 5.6793 4.93153 5.81068 4.80015L5.30541 1.64225L8.84225 0.126465L10.8633 2.65278H12.2528L14.1475 0.126465L17.6844 1.64225L17.1791 4.92647C17.558 5.1791 17.937 5.55804 18.1896 5.93699L21.3475 5.43173L22.8633 8.96857L20.337 10.8633ZM17.5582 15.6634L20.4634 16.0424L21.095 14.5266L18.695 12.7582V12.3792C18.8213 11.7477 18.8213 11.1161 18.695 10.4845V10.1055L21.2213 8.46344L20.5898 7.07397L17.6845 7.45291L17.4319 7.07397C17.0529 6.5687 16.5477 6.06344 16.0424 5.68449L15.6634 5.43186L16.0424 2.5266L14.5266 1.89502L12.7582 4.29502H12.3792C11.7477 4.1687 11.1161 4.1687 10.4845 4.29502H10.1055L8.33712 1.89502L6.94765 2.5266L7.45291 5.30555L7.07397 5.55818C6.5687 5.93712 6.06344 6.44239 5.68449 6.94765L5.43186 7.3266L2.5266 6.94765L1.89502 8.46344L4.29502 10.2319V10.6108C4.1687 11.2424 4.1687 11.874 4.29502 12.5055V12.8845L1.89502 14.6529L2.5266 16.0424L5.30555 15.6634L5.55818 16.0424C5.93712 16.5477 6.44239 17.0529 6.94765 17.4319L7.3266 17.6845L7.07397 20.5898L8.46344 21.2213L10.2319 18.8213H10.6108C11.2424 18.9477 11.874 18.9477 12.5055 18.8213H12.8845L14.6529 21.2213L16.0424 20.5898L15.6634 17.6845L15.9161 17.4319C16.4213 17.0529 16.9266 16.5477 17.3055 16.0424L17.5582 15.6634Z" fill="black"/>
</svg>
