<svg width="24" height="24" viewBox="0 0 24 24" fill="none" xmlns="http://www.w3.org/2000/svg">
<path fill-rule="evenodd" clip-rule="evenodd" d="M23.0667 7.33317L22 6.2665L21.0667 5.33317L20.9333 5.19984L20.8 5.0665L18 2.2665C17.0667 1.33317 15.7333 0.666504 14.2667 0.666504C13.0667 0.666504 11.8667 1.19984 10.9333 1.99984L9.86667 2.93317L10.9333 3.99984L11.3333 4.39984L12 5.0665L12.9333 4.39984C13.0667 4.2665 13.3333 4.13317 13.4667 4.13317C13.6 4.13317 13.8667 4.13317 14 4.2665L13.2 5.19984L12.1333 6.13317L13.2 7.19984C12.2667 7.99984 11.2 9.0665 10.8 9.4665C10.4946 9.77186 9.96549 9.9933 9.39194 10.2333C8.7133 10.5173 7.9725 10.8273 7.46667 11.3332C6.90265 11.8972 4.63442 14.2141 2.83941 16.0477L2.83903 16.048L2.83771 16.0494C1.66313 17.2492 0.691534 18.2416 0.533333 18.3998C0.266667 18.7998 0 19.1998 0 19.5998L3.73333 23.3332C4.13333 23.3332 4.66667 23.0665 4.93333 22.7998C5.02545 22.7077 5.40041 22.3469 5.93445 21.833L5.93448 21.833C7.71945 20.1153 11.2816 16.6875 12 15.8665C12.5058 15.3607 12.8158 14.6199 13.0998 13.9412C13.3399 13.3677 13.5613 12.8385 13.8667 12.5332L16.1333 10.2665L16.5333 10.6665L16.9333 11.0665L18.2667 12.3998L19.2 13.3332L20.1333 12.3998L23.0667 9.4665L24 8.39984L23.0667 7.33317ZM12.9333 11.5998C12.4 12.1332 12.1333 12.6665 11.8667 13.3332C11.7333 13.8665 11.4667 14.3998 11.0667 14.9332C10.5333 15.4665 8.26667 17.7332 6.4 19.4665C5.61468 20.35 4.90163 21.0167 4.42048 21.4665L4.42047 21.4665C4.24811 21.6277 4.1055 21.761 4 21.8665L1.6 19.3332L3.86667 17.0665C5.6 15.1998 7.86667 12.9332 8.53333 12.3998C8.93333 11.9998 9.46667 11.7332 10.1333 11.5998C10.8 11.3332 11.4667 11.0665 12 10.5332L14.2667 8.2665L15.3333 9.33317L12.9333 11.5998ZM18.4 9.33333L17.7334 10L19.0667 11.3333L22.2667 8.4L20.9334 7.06667L20.2667 7.73333L19.4667 6.93333L20.1334 6.26667L17.0667 3.33333C16.4 2.53333 15.3334 2 14.2667 2C13.3334 2 12.5334 2.4 11.8667 2.93333L12 3.2C12.4 2.93333 12.8 2.8 13.3334 2.8C14.4 2.93333 15.3334 3.46667 16 4.26667L13.8667 6.13333L16.9334 9.2L17.6 8.53333L18.4 9.33333Z" fill="black"/>
</svg>
