<svg width="23" height="23" viewBox="0 0 23 23" fill="none" xmlns="http://www.w3.org/2000/svg">
<path fill-rule="evenodd" clip-rule="evenodd" d="M0.126465 11.4949C0.126465 5.1791 5.1791 0.126465 11.4949 0.126465C17.8107 0.126465 22.8633 5.1791 22.8633 11.4949C22.8633 17.8107 17.8107 22.8633 11.4949 22.8633C9.34752 22.8633 7.32647 22.2317 5.55804 21.2212L0.505412 22.737L1.89489 17.558C0.758044 15.7896 0.126465 13.7686 0.126465 11.4949ZM6.31611 19.9582C7.8319 20.9687 9.60032 21.474 11.4951 21.474C17.053 21.474 21.474 16.9266 21.474 11.4951C21.474 6.06348 17.053 1.51611 11.4951 1.51611C5.93717 1.51611 1.51611 6.06348 1.51611 11.4951C1.51611 13.3898 2.02138 15.1582 3.0319 16.8003L3.41085 17.3056L3.28453 17.9372L2.52664 20.5898L5.05296 19.8319L5.81085 19.5793L6.31611 19.9582Z" fill="black"/>
</svg>
