<svg width="24" height="24" viewBox="0 0 24 24" fill="none" xmlns="http://www.w3.org/2000/svg">
<path fill-rule="evenodd" clip-rule="evenodd" d="M23.0093 0H14.6027V1.472H3.71867C2.21333 1.472 0.989334 2.688 0.989334 4.184V12.9067C0.989334 14.4027 2.21333 15.6187 3.71867 15.6187H11.136V21.5387C11.136 22.2573 11.4507 22.9373 12.0013 23.4053C12.464 23.7973 13.0267 24 13.6 24C13.9533 24 14.312 23.9227 14.652 23.7653C15.5333 23.3573 16.0787 22.5053 16.0787 21.5387V15.2133H23.0093V0ZM14.6029 21.5399C14.6029 21.9279 14.3882 22.2586 14.0322 22.4239C13.6655 22.5932 13.2642 22.5386 12.9602 22.2799C12.7415 22.0946 12.6149 21.8239 12.6149 21.5399V14.1426H3.71887C3.02954 14.1426 2.46687 13.5879 2.46687 12.9079V12.4932H7.01621V11.0159H2.46687V9.17455H7.01621V7.69722H2.46687V6.09322H7.01621V4.61455H2.46687V4.18389C2.46687 3.50389 3.02821 2.94922 3.71887 2.94922H14.6015C14.6029 9.63455 14.6029 14.8252 14.6029 21.5399ZM16.0802 13.7361H21.5335V1.47744H16.0802V13.7361Z" fill="black"/>
</svg>
