<svg width="24" height="24" viewBox="0 0 24 24" fill="none" xmlns="http://www.w3.org/2000/svg">
<path fill-rule="evenodd" clip-rule="evenodd" d="M23.5703 3.668L22.3307 14.1042L7.54819 15.8766L8.05991 18.3769C9.26451 18.4241 10.3043 19.2357 10.6426 20.3927H16.528C16.9216 19.0483 18.2436 18.1977 19.6302 18.3965C21.0169 18.5953 22.0465 19.7832 22.0465 21.184C22.0465 22.5848 21.0169 23.7727 19.6302 23.9715C18.2436 24.1703 16.9216 23.3197 16.528 21.9753H10.6426C10.2876 23.1976 9.15481 24.0283 7.88229 23.9993C6.60977 23.9703 5.51596 23.0889 5.21709 21.8516C4.91823 20.6143 5.48909 19.3308 6.60807 18.7241L3.29623 2.54525L0 1.41113L0.485027 0L4.58659 1.41145L5.04883 3.668H23.5703ZM20.4489 21.1845C20.449 20.5041 19.8977 19.9524 19.2173 19.9521L19.2173 19.9522C18.5373 19.9531 17.9861 20.504 17.9849 21.1841C17.9848 21.8645 18.5363 22.416 19.2167 22.4161C19.897 22.4163 20.4487 21.8648 20.4489 21.1845ZM21.8905 5.16016L20.9868 12.763L7.24784 14.4103L5.354 5.16016H21.8905ZM8.42437 22.3225C8.88481 22.1318 9.18499 21.6825 9.18493 21.1841C9.18363 20.5043 8.63293 19.9535 7.95315 19.9521C7.45477 19.952 7.0054 20.2521 6.8146 20.7126C6.62381 21.173 6.72917 21.703 7.08155 22.0554C7.43394 22.4078 7.96394 22.5133 8.42437 22.3225Z" fill="black"/>
</svg>
