<svg width="23" height="24" viewBox="0 0 23 24" fill="none" xmlns="http://www.w3.org/2000/svg">
<path fill-rule="evenodd" clip-rule="evenodd" d="M21.2211 2.27369C20.2105 1.26316 18.6947 0.757896 17.1789 0.757896C15.0316 0.757896 12.5053 1.76842 10.6105 3.78948C8.46316 5.81053 7.45263 8.33684 7.57895 10.6105C7.70526 12.6316 7.07368 14.6526 4.92632 15.2842L0 20.2105L3.28421 23.2421L8.21053 18.3158C8.84211 16.5474 10.6105 15.7895 12.5053 15.7895H12.8842H13.1368C15.2842 15.7895 17.8105 14.7789 19.7053 12.7579C23.1158 9.6 23.7474 4.8 21.2211 2.27369ZM6.94737 17.5579L3.28421 21.2211L2.14737 20.0842L5.81053 16.4211C6.44211 16.1684 7.07368 15.7895 7.45263 15.2842L8.08421 15.9158C7.57895 16.5474 7.2 17.0526 6.94737 17.5579ZM13.1368 14.5265C15.0315 14.5265 17.0526 13.6423 18.6947 12.0002C21.4736 9.22123 22.1052 5.30544 20.0841 3.28439C19.1999 2.40018 17.9368 2.14754 17.0526 2.14754C15.1578 2.14754 13.1368 3.03176 11.4947 4.67386C9.85255 6.44228 8.84203 8.58965 8.96834 10.6107C8.96834 12.0002 8.71571 13.2633 8.21045 14.4002L9.09466 15.2844C9.97887 14.7791 11.1157 14.5265 12.3789 14.5265H12.8841H13.1368Z" fill="black"/>
</svg>
