<svg width="16" height="16" viewBox="0 0 16 16" fill="none" xmlns="http://www.w3.org/2000/svg">
<path fill-rule="evenodd" clip-rule="evenodd" d="M5.11998 1.43846C5.79998 0.758457 6.69064 0.418457 7.58131 0.418457C8.47198 0.418457 9.36264 0.758457 10.0426 1.43712L14.1453 5.53846C15.504 6.89712 15.504 9.10112 14.1453 10.4598L10.044 14.5611C9.36398 15.2411 8.47331 15.5811 7.58264 15.5811C6.69198 15.5811 5.80131 15.2411 5.12131 14.5611L1.01998 10.4598C-0.33869 9.10112 -0.33869 6.89712 1.01998 5.53846L5.11998 1.43846ZM8.98131 2.49846C8.60798 2.12379 8.11064 1.91846 7.58131 1.91846C7.05331 1.91846 6.55598 2.12379 6.18131 2.49846L2.07998 6.59979C1.70664 6.97312 1.49998 7.47046 1.49998 7.99979C1.49998 8.52912 1.70664 9.02646 2.07998 9.39979L6.18131 13.5011C6.55464 13.8758 7.05198 14.0811 7.58131 14.0811C8.10931 14.0811 8.60664 13.8758 8.98131 13.5011L13.0826 9.39979C13.8546 8.62779 13.8546 7.37179 13.0826 6.59979L8.98131 2.49846Z" fill="black"/>
</svg>
