<svg width="23" height="20" viewBox="0 0 23 20" fill="none" xmlns="http://www.w3.org/2000/svg">
<path fill-rule="evenodd" clip-rule="evenodd" d="M22.7368 11.3684C22.7368 5.05263 17.6842 0 11.3684 0C5.05263 0 0 5.05263 0 11.3684C0 12.5053 0.126316 13.5158 0.505263 14.5263C1.01053 16.4211 2.02105 18.0632 3.28421 19.3263L7.2 17.0526L4.42105 12.2526L1.76842 13.7684C1.64211 13.0105 1.51579 12.2526 1.51579 11.3684C1.51579 5.93684 5.93684 1.38947 11.4947 1.38947C17.0526 1.38947 21.3474 5.93684 21.3474 11.3684C21.3474 12.1263 21.2211 13.0105 21.0947 13.7684L18.4421 12.2526L15.5368 17.1789L19.4526 19.4526C20.8421 18.0632 21.7263 16.4211 22.3579 14.5263C22.6105 13.5158 22.7368 12.5053 22.7368 11.3684ZM3.91603 14.1475L5.3055 16.5475L3.6634 17.558L2.27393 15.158L3.91603 14.1475ZM17.4316 16.6739L19.2001 17.6845L20.5895 15.2845L18.8211 14.2739L17.4316 16.6739Z" fill="black"/>
</svg>
