<svg width="22" height="22" viewBox="0 0 22 22" fill="none" xmlns="http://www.w3.org/2000/svg">
<path fill-rule="evenodd" clip-rule="evenodd" d="M8.46356 9.04C4.12493 9.6 0.435066 11 0.435066 15.56C0.435066 19.64 3.43561 21.88 7.53096 21.84C10.6937 21.84 12.5589 20.72 13.7753 19H13.8564C14.0186 20.08 14.2214 20.88 14.5458 21.32H21.0334V21.04C20.4658 20.68 20.3036 19.72 20.3036 18.08V7.64C20.3036 5.04 19.4115 3 17.6274 1.72C16.0866 0.6 13.9781 0.04 10.8153 0.04C4.48986 0.04 1.48931 3.32 1.32712 7.16H7.49041C7.69315 5.4 8.74739 4.48 10.8964 4.48C12.9238 4.48 13.7753 5.4 13.7753 6.72C13.7753 8.16 12.3967 8.56 8.46356 9.04ZM13.9781 11.48V13.96C13.9781 16.16 12.2345 17.68 9.76109 17.68C8.09863 17.68 6.88219 17 6.88219 15.36C6.88219 13.76 7.93644 13.12 10.5315 12.56C11.8696 12.24 13.1266 11.92 13.9781 11.48Z" fill="black"/>
</svg>
