<svg width="24" height="14" viewBox="0 0 24 14" fill="none" xmlns="http://www.w3.org/2000/svg">
<path fill-rule="evenodd" clip-rule="evenodd" d="M12 0.333496C17.0667 0.333496 21.6 2.7335 23.7333 6.60016L24 7.00016L23.7333 7.40016C21.6 11.2668 17.0667 13.6668 12 13.6668C6.93333 13.6668 2.4 11.2668 0.266667 7.40016L0 7.00016L0.266667 6.60016C2.4 2.7335 6.93333 0.333496 12 0.333496ZM7.46667 2.60016C5.06667 3.5335 2.93333 5.00016 1.73333 7.00016C2.93333 9.00016 4.93333 10.4668 7.33333 11.4002C6.26667 10.2002 5.6 8.7335 5.6 7.00016C5.6 5.26683 6.26667 3.80016 7.46667 2.60016ZM12.0002 11.9336C9.33356 11.9336 7.06689 9.66689 7.06689 7.00023C7.06689 4.33356 9.33356 2.06689 12.0002 2.06689C14.6669 2.06689 16.9336 4.20023 16.9336 7.00023C16.9336 9.80023 14.6669 11.9336 12.0002 11.9336ZM18.3998 7.0001C18.3998 8.73343 17.7332 10.2001 16.6665 11.4001C19.0665 10.4668 21.0665 9.0001 22.3998 7.0001C21.0665 5.0001 19.0665 3.4001 16.6665 2.6001C17.7332 3.8001 18.3998 5.26676 18.3998 7.0001Z" fill="black"/>
</svg>
