<svg width="16" height="24" viewBox="0 0 16 24" fill="none" xmlns="http://www.w3.org/2000/svg">
<path fill-rule="evenodd" clip-rule="evenodd" d="M14.5508 10.1541C15.1357 10.7359 15.4635 11.5276 15.4609 12.3525C15.4585 13.0567 15.2144 13.7386 14.7695 14.2843V24H9.93549V14.2844C9.50274 13.752 9.26071 13.0901 9.248 12.4041C6.37199 13.9461 2.82438 13.4129 0.52864 11.0937L0 10.5656L10.5658 0L11.0937 0.52864C13.387 2.83759 13.9175 6.36725 12.4043 9.24829C13.2107 9.25797 13.9813 9.58315 14.5508 10.1541ZM13.494 13.4943C14.1242 12.8636 14.1242 11.8415 13.494 11.2107H13.4934C13.0856 10.8029 12.4911 10.6436 11.934 10.7928C11.3768 10.9421 10.9417 11.3773 10.7924 11.9344C10.6431 12.4915 10.8023 13.086 11.2102 13.4938C11.8491 14.1041 12.8549 14.1043 13.494 13.4943ZM2.14648 10.533L10.5332 2.146C11.9319 3.94857 12.1825 6.39023 11.179 8.43933C10.1754 10.4884 8.09285 11.7874 5.8112 11.7875C4.48363 11.7914 3.19316 11.3496 2.14648 10.533ZM11.4297 15.3071V22.5059L13.2754 22.5059V15.3072C12.6773 15.5124 12.0278 15.5124 11.4297 15.3071Z" fill="black"/>
</svg>
