<svg width="23" height="17" viewBox="0 0 23 17" fill="none" xmlns="http://www.w3.org/2000/svg">
<path fill-rule="evenodd" clip-rule="evenodd" d="M0 0H15.6632L22.4842 8.46316V14.1474H21.0947C21.0947 15.6632 19.7053 16.9263 18.1895 16.9263C16.6737 16.9263 15.4105 15.6632 15.4105 14.1474H6.94737C6.94737 15.6632 5.68421 16.9263 4.16842 16.9263C2.65263 16.9263 1.38947 15.6632 1.38947 14.1474H0V0ZM14.9054 1.38965H1.38965V3.28439C1.64228 3.4107 2.02123 3.53702 2.27386 3.53702C2.77912 3.53702 3.15807 3.4107 3.53702 3.03175L4.04228 2.40017L4.67386 3.03175C4.92649 3.4107 5.43175 3.53702 5.93702 3.53702C6.44228 3.53702 6.82123 3.28439 7.20017 3.03175L7.70544 2.40017L8.33702 3.03175C8.58965 3.4107 9.09491 3.53702 9.60017 3.53702C10.1054 3.53702 10.4844 3.4107 10.8633 3.03175L11.4949 2.27386L12.0002 2.90544C12.3791 3.53702 13.2633 3.53702 13.8949 3.4107C14.4002 3.28439 14.7791 2.90544 14.7791 2.40017C14.7791 2.35991 14.8048 2.24266 14.8357 2.10158C14.9017 1.80004 14.9915 1.38965 14.9054 1.38965ZM1.38965 4.79985C1.64228 4.92616 1.89491 4.92616 2.14754 4.92616C2.77912 4.92616 3.4107 4.79985 4.04228 4.4209C4.67386 4.79985 5.30544 4.92616 5.93702 4.92616C6.5686 4.92616 7.20017 4.79985 7.83175 4.4209C8.9686 5.17879 10.3581 5.17879 11.4949 4.4209C11.8739 4.67353 12.2528 4.79985 12.6318 4.92616C12.7581 4.92616 12.8844 4.95774 13.0107 4.98932C13.137 5.0209 13.2633 5.05248 13.3896 5.05248C14.0212 5.05248 14.6528 4.92616 15.1581 4.67353V8.58932H1.38965V4.79985ZM2.90526 14.1474C2.90526 14.9053 3.53684 15.5368 4.29474 15.5368C5.05263 15.5368 5.68421 14.9053 5.68421 14.1474C5.68421 13.3895 5.05263 12.7579 4.29474 12.7579C3.53684 12.7579 2.90526 13.3895 2.90526 14.1474ZM18.4422 15.5368C17.6843 15.5368 17.0527 14.9052 17.0527 14.1473C17.0527 13.3894 17.6843 12.7578 18.4422 12.7578C19.2001 12.7578 19.8317 13.3894 19.8317 14.1473C19.958 14.9052 19.3264 15.5368 18.4422 15.5368ZM20.9686 12.7577H21.3475V8.96824L16.4212 3.15771V9.72614H1.38965V12.7577H1.89491C2.14754 12.3788 2.40017 11.9998 2.90544 11.7472C4.29491 10.9893 5.93702 11.3682 6.69491 12.7577H16.1686C16.4212 12.3788 16.8002 11.9998 17.1791 11.7472C18.4423 10.9893 20.2107 11.3682 20.9686 12.7577Z" fill="black"/>
</svg>
