<svg width="9" height="9" viewBox="0 0 9 9" fill="none" xmlns="http://www.w3.org/2000/svg">
<path fill-rule="evenodd" clip-rule="evenodd" d="M5.35234 0.770328L8.50617 3.92415C8.86661 4.28459 8.86661 4.82525 8.50617 5.18569L5.35234 8.33951C5.17212 8.51973 4.94685 8.60984 4.72158 8.60984C4.4963 8.60984 4.27103 8.51973 4.09081 8.33951L0.936985 5.18569C0.576547 4.82525 0.576547 4.28459 0.936985 3.92415L4.09081 0.770328C4.27103 0.590109 4.4963 0.5 4.72158 0.5C4.94685 0.5 5.17212 0.590109 5.35234 0.770328ZM4.99191 7.97895L8.14573 4.82512C8.23584 4.73501 8.2809 4.6449 8.2809 4.55479C8.2809 4.46468 8.23584 4.37458 8.10068 4.28447L4.94685 1.13064C4.85674 1.08558 4.76663 1.04053 4.67652 1.04053C4.58641 1.04053 4.4963 1.04053 4.40619 1.13064L1.25237 4.28447C1.20731 4.37458 1.16226 4.46468 1.16226 4.55479C1.16226 4.6449 1.20731 4.73501 1.29742 4.82512L4.45125 7.97895C4.54136 8.06906 4.63147 8.06906 4.72158 8.06906C4.81169 8.06906 4.9018 8.06906 4.99191 7.97895Z" fill="black"/>
</svg>
