<svg width="24" height="14" viewBox="0 0 24 14" fill="none" xmlns="http://www.w3.org/2000/svg">
<path fill-rule="evenodd" clip-rule="evenodd" d="M23.2422 0.684082C21.3475 2.83145 18.5685 4.47356 15.2843 5.23145H4.54748C3.41063 5.23145 2.40011 4.59987 1.76853 3.71566C1.64221 3.46303 1.26327 3.33671 1.01063 3.46303C0.631687 3.46303 0.505371 3.84198 0.505371 4.09461V7.88408C0.505371 8.13671 0.758003 8.51566 1.01063 8.51566H1.26327C1.5159 8.51566 1.76853 8.38935 1.89484 8.13671C2.52642 7.2525 3.53695 6.62092 4.67379 6.62092H6.06327C5.17906 7.50513 4.80011 8.38934 4.80011 9.52619C4.80011 11.9262 6.69484 13.8209 9.09484 13.8209H13.3896C15.7896 13.8209 17.6843 11.9262 17.6843 9.52619C17.6843 8.64198 17.4317 7.88408 16.9264 7.2525C19.4527 8.13671 21.6001 9.6525 23.2422 11.2946V0.684082ZM13.3896 12.305H9.09487C7.57908 12.305 6.31592 11.0418 6.31592 9.52602C6.31592 8.01023 7.57908 6.74707 9.09487 6.74707H13.3896C14.9054 6.74707 16.1685 8.01023 16.1685 9.52602C16.1685 11.0418 14.9054 12.305 13.3896 12.305ZM17.6841 5.98917C19.1999 6.49443 20.463 7.25232 21.7262 8.13653V3.8418C20.463 4.72601 19.1999 5.4839 17.6841 5.98917Z" fill="black"/>
</svg>
