<svg width="24" height="24" viewBox="0 0 24 24" fill="none" xmlns="http://www.w3.org/2000/svg">
<path fill-rule="evenodd" clip-rule="evenodd" d="M21.7263 0.88402C21.221 0.505073 20.5894 0.252441 19.8315 0.252441C18.0631 0.252441 16.6736 1.64192 16.6736 3.41034C16.6736 3.9156 16.8 4.42086 17.0526 4.92613L13.6421 7.9577C12 6.56823 9.59996 6.69455 7.95785 8.21034L6.31575 6.94718C7.07364 5.43139 6.31575 3.53665 4.79996 2.77876C4.54733 2.65244 4.04206 2.52613 3.5368 2.52613C1.76838 2.52613 0.378906 3.9156 0.378906 5.68402C0.378906 7.45244 1.76838 8.84192 3.5368 8.84192H4.04206C4.67364 8.7156 5.17891 8.46297 5.68417 8.08402L7.32627 9.34718C6.18943 11.3682 6.94733 14.0209 8.96838 15.0314C9.97891 15.5367 11.2421 15.663 12.3789 15.284L13.3894 17.1788C12 18.3156 11.7473 20.3367 12.8842 21.8524C14.021 23.2419 16.1684 23.4945 17.5579 22.2314C18.9473 20.9682 19.2 19.0735 18.0631 17.5577C17.1789 16.5472 15.9157 16.1682 14.6526 16.4209L13.6421 14.5261C15.4105 13.263 15.9157 10.7367 14.6526 8.84192L18.0631 5.81034C19.4526 6.82086 21.4736 6.44192 22.4842 5.05244C23.4947 3.66297 23.2421 1.89455 21.7263 0.88402ZM5.05243 6.69463C4.67348 7.07357 4.29453 7.32621 3.78927 7.45252C2.90506 7.57884 2.02085 6.94726 1.76822 5.93673C1.6419 5.05252 2.3998 4.16831 3.28401 3.91568C4.29453 3.78936 5.17874 4.54726 5.30506 5.43147C5.43138 5.93673 5.30506 6.44199 5.05243 6.69463ZM17.3054 19.7049C17.3054 18.6944 16.5475 17.9365 15.537 17.9365C14.5264 17.9365 13.7686 18.8207 13.7686 19.7049C13.7686 20.7155 14.5264 21.4734 15.537 21.4734C16.5475 21.4734 17.3054 20.7155 17.3054 19.7049ZM14.021 11.3682C14.021 13.0103 12.7579 14.2735 11.1157 14.2735C9.47364 14.2735 8.21049 13.0103 8.21049 11.3682C8.21049 9.72613 9.47364 8.46297 11.1157 8.46297C12.6315 8.46297 14.021 9.72613 14.021 11.3682ZM18.1895 3.41051C18.1895 4.42104 18.9473 5.17893 19.9579 5.17893C20.9684 5.17893 21.7263 4.42104 21.7263 3.41051C21.7263 2.39998 20.9684 1.64209 19.9579 1.64209C18.9473 1.64209 18.1895 2.39998 18.1895 3.41051Z" fill="black"/>
</svg>
