<svg width="24" height="16" viewBox="0 0 24 16" fill="none" xmlns="http://www.w3.org/2000/svg">
<path fill-rule="evenodd" clip-rule="evenodd" d="M8.07811 3.43933C9.06358 1.34116 11.1724 0.00110019 13.4905 4e-05L13.4905 0C16.7974 4.41823e-05 19.4781 2.68079 19.4781 5.98765C21.9756 5.98765 24.0003 8.0123 24.0003 10.5098C24.0003 13.0074 21.9756 15.032 19.4781 15.032H5.98771C3.59239 15.0329 1.42719 13.6057 0.483847 11.4039C-0.459499 9.20219 0.00070262 6.65006 1.65367 4.91648C3.30663 3.18291 5.83398 2.60181 8.07811 3.43933ZM17.9903 5.98745C17.9875 3.50355 15.9746 1.49063 13.4907 1.48779L13.4907 1.48783C11.7503 1.49502 10.1686 2.50093 9.42404 4.0741L8.84004 5.31202L7.55777 4.83313C5.86938 4.19731 3.96447 4.63141 2.71826 5.93598C1.47206 7.24055 1.12553 9.16332 1.8379 10.8209C2.55027 12.4784 4.18379 13.5502 5.98792 13.5438H19.4783C21.154 13.5438 22.5124 12.1854 22.5124 10.5096C22.5124 8.8339 21.154 7.47545 19.4783 7.47545H17.9903V5.98745Z" fill="black"/>
</svg>
