<svg width="24" height="23" viewBox="0 0 24 23" fill="none" xmlns="http://www.w3.org/2000/svg">
<path fill-rule="evenodd" clip-rule="evenodd" d="M11.8738 21.4738H12.8843C13.1369 21.9791 13.5159 22.358 14.0212 22.6107C13.3896 22.737 12.6317 22.8633 11.8738 22.8633C5.558 22.8633 0.505371 17.8107 0.505371 11.4949C0.505371 5.1791 5.558 0.126465 11.8738 0.126465C18.1896 0.126465 23.2422 5.1791 23.2422 11.4949C23.2422 12.1565 23.1459 12.7219 23.0375 13.3591C23.0217 13.4518 23.0056 13.546 22.9896 13.6423C22.6106 13.137 22.2317 12.758 21.7264 12.5054V11.4949C21.7264 9.09489 20.8422 6.8212 19.3264 5.05278L5.43169 19.0738C7.07379 20.5896 9.34748 21.4738 11.8738 21.4738ZM11.874 1.64209C6.31607 1.64209 1.89502 6.18946 1.89502 11.621C1.89502 14.1474 2.77923 16.2947 4.29502 18.0631L18.3161 4.04209C16.674 2.5263 14.4003 1.64209 11.874 1.64209Z" fill="#D8DADA"/>
</svg>
