<svg width="24" height="15" viewBox="0 0 24 15" fill="none" xmlns="http://www.w3.org/2000/svg">
<path fill-rule="evenodd" clip-rule="evenodd" d="M9.45093 0.666504H23.9907L24 0.675837V5.67536C22.8599 5.68114 21.9387 6.607 21.9387 7.74712C21.9387 8.88723 22.8599 9.81309 24 9.81888V14.8278H9.45099L9.45427 14.8088C9.45427 14.1887 8.95158 13.686 8.33149 13.686C7.7114 13.686 7.20872 14.1887 7.20872 14.8088L7.212 14.8278H0V9.81888C1.14111 9.81567 2.06367 8.88823 2.06085 7.74712C2.06274 7.19896 1.84658 6.67256 1.45999 6.28393C1.07341 5.8953 0.548156 5.67636 0 5.67536V0.666504H7.212L7.20867 0.679131C7.2078 0.977626 7.32568 1.26421 7.53631 1.47571C7.74695 1.68722 8.03305 1.80627 8.33155 1.80662C8.62994 1.80599 8.91585 1.68684 9.1264 1.47539C9.33694 1.26395 9.45486 0.977522 9.45421 0.679131L9.45093 0.666504ZM22.5118 4.5151V2.1543H10.486C10.0004 2.8672 9.19385 3.29399 8.3313 3.29442C7.46871 3.29398 6.66209 2.8672 6.17646 2.1543H1.48779V4.51538C2.74461 5.10027 3.54842 6.36067 3.5487 7.74691C3.54842 9.13315 2.74461 10.3936 1.48779 10.9784V13.3396H6.17358C6.65895 12.6244 7.46708 12.1963 8.33135 12.1963C9.19563 12.1963 10.0038 12.6244 10.4891 13.3396H22.5118V10.9788C21.2541 10.3945 20.4495 9.1337 20.4495 7.74692C20.4495 6.36014 21.2541 5.09932 22.5118 4.5151Z" fill="black"/>
</svg>
