<svg width="23" height="24" viewBox="0 0 23 24" fill="none" xmlns="http://www.w3.org/2000/svg">
<path fill-rule="evenodd" clip-rule="evenodd" d="M17.0528 12.3787V8.46293C17.0528 5.68398 14.9054 3.4103 12.2528 3.15766V0.631348H10.8633V3.15766C8.08436 3.4103 5.93699 5.68398 5.93699 8.46293V12.505H0.126465V23.3682H22.8633V12.3787H17.0528ZM15.6634 8.46289V12.505H13.895V8.46289H15.6634ZM15.4107 6.94714C14.6528 5.43135 13.137 4.42082 11.4949 4.42082C9.85278 4.42082 8.21068 5.43135 7.5791 6.94714H15.4107ZM12.3793 8.46289V12.505H10.6108V8.46289H12.3793ZM9.2214 8.46289H7.32666V12.505H9.2214V8.46289ZM13.5161 21.8524H9.34766V19.0735L11.495 16.7998L13.5161 19.0735V21.8524ZM15.0319 21.9787H21.474V13.8945H1.51611V21.9787H7.95822V19.7051H6.82138L11.6214 14.9051L16.4214 19.7051H15.0319V21.9787Z" fill="black"/>
</svg>
