<svg width="24" height="24" viewBox="0 0 24 24" fill="none" xmlns="http://www.w3.org/2000/svg">
<path fill-rule="evenodd" clip-rule="evenodd" d="M20.9333 11.2V12.6667L23.6 14.8L22.1333 18.4L18.9333 17.8667C18.7947 18.0053 18.672 18.144 18.5543 18.2771C18.3324 18.528 18.128 18.7591 17.8667 18.9333L18.4 22.1333L14.8 23.6L12.8 20.9333H11.3333L9.33333 23.6L5.6 22.1333L6.13334 18.9333C5.99466 18.7947 5.85598 18.672 5.72287 18.5543C5.47201 18.3324 5.24088 18.128 5.06667 17.8667L1.86667 18.4L0.400002 14.8L3.06667 12.8V11.3333L0.400002 9.33333L1.86667 5.73334L5.2 6.13334L6.26667 5.06667L5.73334 1.86667L9.33333 0.400002L11.2 3.06667H12.6667L14.6667 0.400002L18.4 1.86667L17.8667 5.06667C18.0053 5.20534 18.144 5.32799 18.2771 5.44573C18.528 5.66759 18.7591 5.87201 18.9333 6.13334L22.1333 5.6L23.6 9.2L20.9333 11.2ZM18.2667 16.2667L21.2 16.6667L21.7333 15.0667L19.3333 13.3333V12.9333C19.4667 12.2667 19.4667 11.6 19.3333 10.9333V10.5333L21.7333 8.8L21.0667 7.33333L18.1333 7.73333L17.8667 7.33333C17.4667 6.8 17.0667 6.4 16.5333 6L16.1333 5.73333L16.5333 2.8L15.0667 2.13333L13.3333 4.53333H12.9333C12.2667 4.4 11.6 4.4 10.9333 4.53333H10.5333L8.8 2.13333L7.33333 2.8L7.86667 5.73333L7.46667 6C6.93333 6.4 6.53334 6.8 6.13334 7.33333L5.86667 7.73333L2.93333 7.33333L2.26667 8.8L4.66667 10.6667V11.0667C4.53333 11.7333 4.53333 12.4 4.66667 13.0667V13.4667L2.26667 15.2L2.93333 16.6667L5.86667 16.2667L6.13334 16.6667C6.53334 17.2 6.93333 17.6 7.46667 18L7.86667 18.2667L7.46667 21.2L8.93333 21.8667L10.6667 19.4667H11.0667C11.7333 19.6 12.4 19.6 13.0667 19.4667H13.4667L15.2 21.8667L16.6667 21.2L16.2667 18.2667L16.6667 18C17.2 17.6 17.6 17.2 18 16.6667L18.2667 16.2667Z" fill="black"/>
</svg>
