<svg width="12" height="13" viewBox="0 0 12 13" fill="none" xmlns="http://www.w3.org/2000/svg">
<path fill-rule="evenodd" clip-rule="evenodd" d="M7.9788 7.82631L11.7683 11.6158L11.2756 12.1337L7.48617 8.34421C5.9602 9.64223 3.73696 9.70469 2.14052 8.49439C0.54409 7.28409 0.00387328 5.12656 0.841609 3.30678C1.67935 1.48699 3.6697 0.494414 5.62729 0.920198C7.58487 1.34598 8.98314 3.0756 8.98933 5.07894C8.99173 6.08609 8.63323 7.06076 7.9788 7.82631ZM1.44677 6.43199C1.99677 7.76147 3.29374 8.6285 4.73249 8.6285C5.67497 8.63017 6.57941 8.25695 7.24643 7.59112C7.91346 6.92528 8.28828 6.0215 8.28828 5.07902C8.29084 3.64027 7.42612 2.34176 6.09762 1.7894C4.76911 1.23704 3.23867 1.5397 2.22041 2.55615C1.20215 3.5726 0.896776 5.1025 1.44677 6.43199Z" fill="black"/>
</svg>
