<svg width="24" height="23" viewBox="0 0 24 23" fill="none" xmlns="http://www.w3.org/2000/svg">
<path fill-rule="evenodd" clip-rule="evenodd" d="M22.2313 1.51581C21.4734 0.75791 20.084 0.631595 18.4419 1.13686C17.305 -0.1263 15.5366 -0.1263 14.2734 0.884226C13.6419 1.51581 13.2629 2.2737 13.2629 3.03159C13.2629 3.28423 13.2629 3.53686 13.3892 3.78949L11.8734 4.92633C7.70502 1.64212 3.41029 -0.378932 1.51555 1.51581C-0.252872 3.28423 1.64187 7.57896 5.05239 11.8737C1.64187 16.0421 -0.252872 20.3369 1.64187 22.2316C2.14713 22.7369 2.90502 22.9895 3.5366 22.9895C5.68397 22.9895 8.84186 21.2211 11.9998 18.8211C15.1577 21.3474 18.1892 22.9895 20.4629 22.9895C21.2208 22.9895 21.8524 22.7369 22.3577 22.2316C24.2524 20.3369 22.2313 16.1684 18.9471 11.8737C22.105 7.57896 23.9998 3.28423 22.2313 1.51581ZM16.1682 2.02107C16.7998 2.02107 17.305 2.52633 17.305 3.15791C17.305 3.78949 16.7998 4.29475 16.1682 4.29475C15.9832 4.29475 15.866 4.22706 15.7173 4.14123C15.6629 4.10981 15.6043 4.07597 15.5366 4.04212C15.4884 3.99387 15.4401 3.96405 15.3989 3.93858C15.3322 3.89738 15.284 3.86756 15.284 3.78949C15.1577 3.66317 15.0313 3.41054 15.0313 3.15791C15.1577 2.52633 15.6629 2.02107 16.1682 2.02107ZM14.6525 5.55778C14.6525 5.55778 14.5262 5.55778 14.3999 5.43146C14.0209 5.68409 13.642 5.93672 13.1367 6.18936C13.8946 6.82093 14.5262 7.45251 15.2841 8.21041C16.042 8.84199 16.6736 9.59988 17.3051 10.3578C20.463 6.31567 21.3472 3.41041 20.7157 2.77883C20.463 2.5262 19.9578 2.5262 18.9472 2.77883V3.03146V3.66304C18.6946 5.17883 17.1788 6.18936 15.5367 5.93672H15.4104C15.3472 5.93672 15.2841 5.90514 15.2209 5.87357C15.1578 5.84199 15.0946 5.81041 15.0315 5.81041C15.0315 5.68409 14.9051 5.68409 14.9051 5.68409C14.9051 5.68409 14.7788 5.55778 14.6525 5.55778ZM16.2943 11.8737C15.6627 12.6316 14.9048 13.3895 14.1469 14.1474C13.389 14.9053 12.6311 15.6632 11.8732 16.2947C11.1153 15.6632 10.3574 14.9053 9.59952 14.1474C8.71531 13.3895 8.08373 12.6316 7.45215 11.8737C8.08372 11.1158 8.84162 10.3579 9.59951 9.60001L9.59952 9.60001L9.59953 9.6C10.3574 8.8421 11.1153 8.08421 11.8732 7.45264C12.6311 8.08421 13.389 8.8421 14.1469 9.6L14.1469 9.60001C15.0311 10.3579 15.6627 11.1158 16.2943 11.8737ZM3.53647 2.65242C3.28384 2.5261 3.03121 2.65242 2.90489 2.77874C2.27331 3.41031 3.15752 6.31558 6.1891 10.3577C6.82067 9.5998 7.57855 8.84192 8.21012 8.21035L8.21014 8.21032L8.21015 8.21031C8.96804 7.45242 9.72593 6.82085 10.4838 6.18927L10.4838 6.18926C7.32594 3.66295 4.67331 2.65242 3.53647 2.65242ZM2.90487 20.8421C2.27329 20.2106 3.1575 17.3053 6.31539 13.2632C6.94697 14.0211 7.57855 14.779 8.33645 15.4106C8.71539 15.7263 9.06276 16.0737 9.41013 16.4211L9.41016 16.4211C9.75752 16.7685 10.1049 17.1158 10.4838 17.4316C6.44171 20.5895 3.41013 21.4737 2.90487 20.8421ZM13.2627 17.4316C17.3048 20.5895 20.2101 21.4737 20.8416 20.8421C21.4732 20.2106 20.589 17.3053 17.4311 13.2632C16.7995 14.0211 16.168 14.6527 15.4101 15.4106C14.7785 16.1684 14.0206 16.8 13.2627 17.4316Z" fill="black"/>
</svg>
