<svg width="17" height="23" viewBox="0 0 17 23" fill="none" xmlns="http://www.w3.org/2000/svg">
<path fill-rule="evenodd" clip-rule="evenodd" d="M9.20484 6.46918V5.88293C10.6276 5.58076 11.5926 4.25307 11.4408 2.8065C11.289 1.35994 10.0694 0.261479 8.61493 0.26123C7.16042 0.260982 5.9405 1.35902 5.78821 2.80554C5.63592 4.25205 6.60042 5.58007 8.0231 5.88273V6.45178C6.56385 6.52166 5.14949 6.97864 3.92524 7.77581V7.77574L3.31892 6.99853L4.07078 6.41251L3.20361 5.30054L0.588477 7.33976L1.455 8.45173L2.20747 7.86532L2.81622 8.64632C-0.046942 11.3047 -0.661605 15.6031 1.34173 18.9574C3.34507 22.3117 7.42093 23.8087 11.1191 22.5484C14.8173 21.2881 17.1308 17.6138 16.669 13.7341C16.2071 9.85449 13.0955 6.82598 9.20484 6.46918ZM6.95462 3.10437C6.9493 2.26441 7.57255 1.55299 8.40591 1.44776C9.23926 1.34254 10.0198 1.87672 10.2234 2.69164C10.427 3.50656 9.98952 4.34509 9.20462 4.64423V3.22736H8.02288V4.64415C7.38207 4.40191 6.95715 3.78943 6.95462 3.10437ZM2.09098 17.3465C3.15515 19.9154 5.66205 21.5904 8.44269 21.5903C12.2378 21.5859 15.3131 18.5104 15.3173 14.7153C15.3173 11.9347 13.6422 9.42787 11.0732 8.36381C8.50425 7.29975 5.54724 7.88799 3.58108 9.85424C1.61491 11.8205 1.0268 14.7775 2.09098 17.3465Z" fill="black"/>
</svg>
