<svg width="10" height="23" viewBox="0 0 10 23" fill="none" xmlns="http://www.w3.org/2000/svg">
<path fill-rule="evenodd" clip-rule="evenodd" d="M8.25664 2.80424V14.7102C9.75566 15.9026 10.3367 17.9125 9.70522 19.7209C9.07372 21.5292 7.36774 22.7404 5.45231 22.7404C3.53688 22.7404 1.83091 21.5292 1.1994 19.7209C0.567889 17.9125 1.14896 15.9026 2.64798 14.7102V2.80424C2.65126 1.25778 3.90584 0.00585938 5.45231 0.00585938C6.99878 0.00585938 8.25336 1.25778 8.25664 2.80424ZM2.54062 19.2504C2.97287 20.4883 4.14106 21.317 5.45221 21.3161L5.45225 21.3161C6.7634 21.317 7.93155 20.4882 8.36368 19.2503C8.79582 18.0124 8.39729 16.6366 7.37042 15.8214L6.83537 15.3947V2.80446C6.83687 2.30926 6.57354 1.85104 6.14494 1.60301C5.71634 1.35498 5.18785 1.35498 4.75924 1.60301C4.33064 1.85104 4.06732 2.30926 4.06881 2.80446V4.41625H5.22281V5.837H4.06881V6.861H5.22281V8.28158H4.06881V9.30544H5.22281V10.726H4.06881V11.7497H5.22283V13.1703H4.06884V15.3947L3.53347 15.8213C2.50672 16.6367 2.10836 18.0126 2.54062 19.2504Z" fill="black"/>
</svg>
