<svg width="16" height="18" viewBox="0 0 16 18" fill="none" xmlns="http://www.w3.org/2000/svg">
<path fill-rule="evenodd" clip-rule="evenodd" d="M7.9458 1.77988e-09C5.31442 -0.00380026 2.88645 1.41485 1.59781 3.70909C0.309164 6.00334 0.361084 8.8149 1.73356 11.06C1.93786 11.5029 2.4131 12.3742 2.93752 13.3358L2.93754 13.3358L2.93755 13.3358C3.86869 15.0432 4.95489 17.0348 4.95489 17.4168H10.9367C10.9367 17.0348 12.0228 15.0433 12.9539 13.3361L12.9539 13.3361L12.9539 13.336C13.4784 12.3744 13.9537 11.5029 14.158 11.06C15.5305 8.8149 15.5824 6.00334 14.2938 3.70909C13.0051 1.41484 10.5772 -0.00380405 7.9458 1.77988e-09ZM11.6476 12.6351C10.7726 14.235 10.2348 15.2428 9.91063 15.9286H5.98094C5.65673 15.2427 5.11897 14.235 4.24397 12.6351L4.19582 12.5478H11.6958L11.6476 12.6351ZM3.57549 11.0599H12.3164C13.2316 10.0129 13.7365 8.66988 13.7376 7.27932C13.74 4.71141 12.0496 2.44916 9.58633 1.72356C7.12307 0.99797 4.47627 1.98264 3.0862 4.14177C1.69612 6.3009 1.89536 9.11789 3.57549 11.0599Z" fill="black"/>
</svg>
