<svg width="14" height="13" viewBox="0 0 14 13" fill="none" xmlns="http://www.w3.org/2000/svg">
<path fill-rule="evenodd" clip-rule="evenodd" d="M7.58551 0.905492L12.5791 5.63623C13.1498 6.17689 13.1498 6.98787 12.5791 7.52853L7.58551 12.2593C7.30016 12.5296 6.94348 12.6648 6.5868 12.6648C6.23011 12.6648 5.87343 12.5296 5.58808 12.2593L0.594523 7.52853C0.0238308 6.98787 0.0238308 6.17689 0.594523 5.63623L5.58808 0.905492C5.87343 0.635164 6.23011 0.5 6.5868 0.5C6.94348 0.5 7.30016 0.635164 7.58551 0.905492ZM7.01481 11.7184L12.0084 6.98768C12.151 6.85252 12.2224 6.71736 12.2224 6.58219C12.2224 6.44703 12.151 6.31186 11.937 6.1767L6.94348 1.44596C6.8008 1.37838 6.65813 1.31079 6.51546 1.31079C6.37279 1.31079 6.23011 1.31079 6.08744 1.44596L1.09388 6.1767C1.02254 6.31186 0.951206 6.44703 0.951206 6.58219C0.951206 6.71736 1.02254 6.85252 1.16522 6.98768L6.15878 11.7184C6.30145 11.8536 6.44412 11.8536 6.58679 11.8536C6.72947 11.8536 6.87214 11.8536 7.01481 11.7184Z" fill="black"/>
</svg>
