<svg width="17" height="23" viewBox="0 0 17 23" fill="none" xmlns="http://www.w3.org/2000/svg">
<path fill-rule="evenodd" clip-rule="evenodd" d="M11.4002 6.94745L11.7792 6.31587C13.0423 4.54745 12.5371 2.14745 10.7686 0.884292C9.00023 -0.378866 6.60023 0.126397 5.33707 1.89482C4.45286 3.15798 4.45286 4.9264 5.33707 6.18955L5.84233 6.94745L0.916016 9.7264V18.4422L8.49496 22.8632L16.0739 18.4422V9.7264L11.4002 6.94745ZM7.35791 1.89506C7.73686 1.64243 8.24213 1.51611 8.62107 1.51611C10.0105 1.51611 11.1474 2.65296 11.1474 4.04243C11.1474 4.54769 11.0211 4.92664 10.7684 5.30559L8.62107 8.71611L6.34739 5.4319C5.71581 4.16875 6.09476 2.65296 7.35791 1.89506ZM2.43164 17.6844L7.86322 20.8423V14.5265L2.43164 11.3687V17.6844ZM3.06348 10.2315L6.60032 8.21045L8.62137 11.242L10.5161 8.21045L13.9266 10.2315L8.49506 13.3894L3.06348 10.2315ZM9.25293 20.8423L14.6845 17.6844V11.3687L9.25293 14.5265V20.8423Z" fill="black"/>
</svg>
