<svg width="33" height="40" viewBox="0 0 33 40" fill="none" xmlns="http://www.w3.org/2000/svg">
<g filter="url(#filter0_d_1_39530)">
<path d="M24.8931 18.3289C25.3119 18.5849 25.8041 18.7324 26.3309 18.7324C27.8555 18.7324 29.0914 17.4964 29.0914 15.9718V11.7464C29.0914 11.5338 29.0669 11.3216 29.0181 11.1141L24.8931 18.3289ZM24.8931 18.3289C24.4282 19.1977 23.5119 19.7887 22.4576 19.7887C21.8655 19.7887 21.3169 19.6023 20.8673 19.2849C20.3705 20.0141 19.5333 20.4929 18.5844 20.4929C18.1885 20.4929 17.812 20.4096 17.4717 20.2595V24.7747C17.4717 26.2992 16.2358 27.5352 14.7111 27.5352C13.1864 27.5352 11.9505 26.2992 11.9505 24.7747V15.5862C11.0019 16.4167 9.57269 16.5124 8.51002 15.7396L8.51 15.7396C7.27703 14.8428 7.00445 13.1163 7.90114 11.8833L8.70865 12.4706L7.90115 11.8833L13.5348 4.13681L13.5349 4.13675C13.791 3.78464 14.1268 3.49809 14.5148 3.30051C14.9028 3.10294 15.332 2.99994 15.7674 2.99992H15.7674H24.9224C26.2034 2.99992 27.3162 3.8812 27.6096 5.1282C27.6096 5.1282 27.6096 5.12821 27.6096 5.12821L29.018 11.114L24.8931 18.3289Z" fill="#FF00FF" stroke="white" stroke-width="2"/>
<path d="M16.3007 34.6968L16.3007 34.6974C16.3002 35.7582 15.4403 36.6177 14.3798 36.6185L14.3789 36.6185C13.3177 36.6184 12.4575 35.7582 12.4574 34.697L12.4574 34.6968L12.4574 31.8011L12.4574 31.8008C12.4575 31.2709 12.6735 30.789 13.0203 30.4423C13.3672 30.0953 13.8489 29.8799 14.3782 29.8795L14.3791 29.8795C15.4402 29.8796 16.3004 30.7398 16.3006 31.8009L16.3006 31.801L16.3007 34.6968Z" fill="#FF00FF" stroke="white" stroke-width="2"/>
<path d="M8.37456 28.0933L8.37469 28.0931C9.12494 27.3432 10.3416 27.3427 11.0921 28.0932C11.8426 28.8438 11.8421 30.0604 11.0919 30.8106L9.04433 32.8582C8.29429 33.6083 7.07762 33.6091 6.3269 32.8584C5.57654 32.108 5.57663 30.8912 6.32696 30.1409L8.37456 28.0933Z" fill="#FF00FF" stroke="white" stroke-width="2"/>
<path d="M8.11022 28.0531L8.11048 28.0531C9.17124 28.0529 10.0317 27.1931 10.0317 26.1318L8.11022 28.0531ZM8.11022 28.0531L5.21458 28.0531M8.11022 28.0531L5.21458 28.0531M5.21458 28.0531C5.21452 28.0531 5.21446 28.0531 5.21439 28.0531M5.21458 28.0531L5.21439 28.0531M5.21439 28.0531C5.21433 28.0531 5.21426 28.0531 5.21419 28.0531M5.21439 28.0531H5.21419M5.21419 28.0531C4.15277 28.0533 3.29267 27.1928 3.29274 26.1317L5.21419 28.0531ZM3.29274 26.1316C3.29278 25.6015 3.5087 25.1198 3.85554 24.773C4.20226 24.4263 4.68402 24.2103 5.21413 24.2103L8.11003 24.2102C9.17124 24.21 10.0317 25.0704 10.0317 26.1316L3.29274 26.1316Z" fill="#FF00FF" stroke="white" stroke-width="2"/>
<path d="M17.8102 28.5862C18.5605 27.8359 19.7773 27.836 20.5276 28.5863L22.5754 30.6341C23.3257 31.3844 23.3259 32.6011 22.5754 33.3515C21.825 34.102 20.6084 34.1018 19.8581 33.3515L17.8102 31.3036C17.0601 30.5535 17.0595 29.3369 17.8102 28.5862Z" fill="#FF00FF" stroke="white" stroke-width="2"/>
<path d="M21.5482 24.2102C21.0173 24.2102 20.5359 24.4268 20.1895 24.7732C19.8433 25.1194 19.6267 25.6008 19.6267 26.1316L21.5482 24.2102ZM21.5482 24.2102C21.5483 24.2102 21.5484 24.2102 21.5485 24.2102L24.4438 24.2103M21.5482 24.2102L24.4438 24.2103M24.4438 24.2103C24.4438 24.2103 24.4439 24.2103 24.4439 24.2103M24.4438 24.2103H24.4439M24.4439 24.2103C25.5051 24.2102 26.3655 25.0704 26.3654 26.1317L24.4439 24.2103ZM21.5482 28.0533C21.5483 28.0533 21.5483 28.0533 21.5483 28.0533L24.4436 28.0533C24.4437 28.0533 24.4438 28.0533 24.444 28.0533C25.5052 28.0535 26.3654 27.1929 26.3654 26.1321L21.5482 28.0533ZM21.5482 28.0533C20.4871 28.0533 19.6268 27.1931 19.6267 26.132L21.5482 28.0533Z" fill="#FF00FF" stroke="white" stroke-width="2"/>
</g>
<defs>
<filter id="filter0_d_1_39530" x="0.292969" y="-7.62939e-05" width="31.7988" height="39.6186" filterUnits="userSpaceOnUse" color-interpolation-filters="sRGB">
<feFlood flood-opacity="0" result="BackgroundImageFix"/>
<feColorMatrix in="SourceAlpha" type="matrix" values="0 0 0 0 0 0 0 0 0 0 0 0 0 0 0 0 0 0 127 0" result="hardAlpha"/>
<feOffset/>
<feGaussianBlur stdDeviation="1"/>
<feComposite in2="hardAlpha" operator="out"/>
<feColorMatrix type="matrix" values="0 0 0 0 0 0 0 0 0 0 0 0 0 0 0 0 0 0 0.3 0"/>
<feBlend mode="normal" in2="BackgroundImageFix" result="effect1_dropShadow_1_39530"/>
<feBlend mode="normal" in="SourceGraphic" in2="effect1_dropShadow_1_39530" result="shape"/>
</filter>
</defs>
</svg>
