<svg width="33" height="40" viewBox="0 0 33 40" fill="none" xmlns="http://www.w3.org/2000/svg">
<g filter="url(#filter0_d_1_27577)">
<path d="M8.10783 18.3289C7.68909 18.5849 7.19683 18.7324 6.6701 18.7324C5.14544 18.7324 3.90953 17.4964 3.90953 15.9718L3.90953 11.7464C3.90953 11.5338 3.93407 11.3216 3.9829 11.1141L8.10783 18.3289ZM8.10783 18.3289C8.5728 19.1977 9.48904 19.7887 10.5434 19.7887C11.1355 19.7887 11.6841 19.6023 12.1337 19.2849C12.6305 20.0141 13.4676 20.4929 14.4166 20.4929C14.8125 20.4929 15.1889 20.4096 15.5293 20.2595V24.7747C15.5293 26.2992 16.7652 27.5352 18.2899 27.5352C19.8145 27.5352 21.0504 26.2992 21.0504 24.7747V15.5862C21.9991 16.4167 23.4283 16.5124 24.491 15.7396L24.491 15.7396C25.7239 14.8428 25.9965 13.1163 25.0998 11.8833L24.2923 12.4706L25.0998 11.8833L19.4661 4.13681L19.4661 4.13675C19.21 3.78464 18.8742 3.49809 18.4862 3.30051C18.0982 3.10294 17.669 2.99994 17.2336 2.99992H17.2335L8.07856 2.99992C6.79755 2.99992 5.68476 3.8812 5.39136 5.1282C5.39136 5.1282 5.39136 5.12821 5.39136 5.12821L3.98293 11.114L8.10783 18.3289Z" fill="#FF00FF" stroke="white" stroke-width="2"/>
<path d="M16.7003 34.6968L16.7003 34.6974C16.7008 35.7582 17.5606 36.6177 18.6211 36.6185L18.6221 36.6185C19.6833 36.6184 20.5434 35.7582 20.5436 34.697L20.5436 34.6968L20.5436 31.8011L20.5436 31.8008C20.5434 31.2709 20.3275 30.789 19.9807 30.4423C19.6338 30.0953 19.1521 29.8799 18.6228 29.8795L18.6219 29.8795C17.5608 29.8796 16.7005 30.7398 16.7004 31.8009L16.7004 31.801L16.7003 34.6968Z" fill="#FF00FF" stroke="white" stroke-width="2"/>
<path d="M24.6254 28.0933L24.6253 28.0931C23.8751 27.3432 22.6584 27.3427 21.9079 28.0932C21.1574 28.8438 21.1579 30.0604 21.9081 30.8106L23.9557 32.8582C24.7057 33.6083 25.9224 33.6091 26.6731 32.8584C27.4235 32.108 27.4234 30.8912 26.673 30.1409L24.6254 28.0933Z" fill="#FF00FF" stroke="white" stroke-width="2"/>
<path d="M24.8908 28.0531L24.8905 28.0531C23.8297 28.0529 22.9693 27.1931 22.9693 26.1318L24.8908 28.0531ZM24.8908 28.0531L27.7864 28.0531M24.8908 28.0531L27.7864 28.0531M27.7864 28.0531C27.7865 28.0531 27.7865 28.0531 27.7866 28.0531M27.7864 28.0531L27.7866 28.0531M27.7866 28.0531C27.7866 28.0531 27.7867 28.0531 27.7868 28.0531M27.7866 28.0531H27.7868M27.7868 28.0531C28.8482 28.0533 29.7083 27.1928 29.7082 26.1317L27.7868 28.0531ZM29.7082 26.1316C29.7082 25.6015 29.4923 25.1198 29.1454 24.773C28.7987 24.4263 28.317 24.2103 27.7868 24.2103L24.8909 24.2102C23.8297 24.21 22.9693 25.0704 22.9693 26.1316L29.7082 26.1316Z" fill="#FF00FF" stroke="white" stroke-width="2"/>
<path d="M15.1898 28.5862C14.4395 27.8359 13.2227 27.836 12.4724 28.5863L10.4246 30.6341C9.67429 31.3844 9.67413 32.6011 10.4246 33.3515C11.175 34.102 12.3916 34.1018 13.1419 33.3515L15.1898 31.3036C15.9399 30.5535 15.9405 29.3369 15.1898 28.5862Z" fill="#FF00FF" stroke="white" stroke-width="2"/>
<path d="M11.4518 24.2102C11.9827 24.2102 12.4641 24.4268 12.8105 24.7732C13.1567 25.1194 13.3733 25.6008 13.3733 26.1316L11.4518 24.2102ZM11.4518 24.2102C11.4517 24.2102 11.4516 24.2102 11.4515 24.2102L8.55622 24.2103M11.4518 24.2102L8.55622 24.2103M8.55622 24.2103C8.55617 24.2103 8.55612 24.2103 8.55607 24.2103M8.55622 24.2103H8.55607M8.55607 24.2103C7.49491 24.2102 6.63451 25.0704 6.63457 26.1317L8.55607 24.2103ZM11.4518 28.0533C11.4517 28.0533 11.4517 28.0533 11.4517 28.0533L8.55641 28.0533C8.55628 28.0533 8.55615 28.0533 8.55603 28.0533C7.49482 28.0535 6.63465 27.1929 6.63457 26.1321L11.4518 28.0533ZM11.4518 28.0533C12.5129 28.0533 13.3732 27.1931 13.3733 26.132L11.4518 28.0533Z" fill="#FF00FF" stroke="white" stroke-width="2"/>
</g>
<defs>
<filter id="filter0_d_1_27577" x="0.90918" y="-7.62939e-05" width="31.7988" height="39.6186" filterUnits="userSpaceOnUse" color-interpolation-filters="sRGB">
<feFlood flood-opacity="0" result="BackgroundImageFix"/>
<feColorMatrix in="SourceAlpha" type="matrix" values="0 0 0 0 0 0 0 0 0 0 0 0 0 0 0 0 0 0 127 0" result="hardAlpha"/>
<feOffset/>
<feGaussianBlur stdDeviation="1"/>
<feComposite in2="hardAlpha" operator="out"/>
<feColorMatrix type="matrix" values="0 0 0 0 0 0 0 0 0 0 0 0 0 0 0 0 0 0 0.3 0"/>
<feBlend mode="normal" in2="BackgroundImageFix" result="effect1_dropShadow_1_27577"/>
<feBlend mode="normal" in="SourceGraphic" in2="effect1_dropShadow_1_27577" result="shape"/>
</filter>
</defs>
</svg>
