<svg width="40" height="33" viewBox="0 0 40 33" fill="none" xmlns="http://www.w3.org/2000/svg">
<g filter="url(#filter0_d_1_256)">
<path d="M21.6711 8.10806C21.4152 7.68932 21.2676 7.19706 21.2676 6.67034C21.2676 5.14567 22.5036 3.90977 24.0282 3.90977H28.2536C28.4662 3.90977 28.6784 3.9343 28.8859 3.98314L21.6711 8.10806ZM21.6711 8.10806C20.8023 8.57303 20.2113 9.48927 20.2113 10.5436C20.2113 11.1357 20.3977 11.6843 20.7151 12.1339C19.9859 12.6308 19.5071 13.4679 19.5071 14.4168C19.5071 14.8127 19.5904 15.1892 19.7405 15.5295H15.2254C13.7008 15.5295 12.4648 16.7654 12.4648 18.2901C12.4648 19.8148 13.7008 21.0507 15.2254 21.0507H24.4138C23.5833 21.9993 23.4876 23.4285 24.2605 24.4912L24.2605 24.4912C25.1572 25.7242 26.8837 25.9968 28.1167 25.1001L27.5294 24.2926L28.1167 25.1001L35.8632 19.4664L35.8633 19.4663C36.2154 19.2102 36.5019 18.8744 36.6995 18.4864C36.8971 18.0984 37.0001 17.6692 37.0001 17.2338V17.2338V8.07879C37.0001 6.79778 36.1188 5.68499 34.8718 5.39159C34.8718 5.39159 34.8718 5.39159 34.8718 5.39159L28.886 3.98317L21.6711 8.10806Z" fill="#FF00FF" stroke="white" stroke-width="2"/>
<path d="M5.30322 16.7005L5.30266 16.7005C4.24179 16.7011 3.38235 17.5609 3.38153 18.6214L3.38153 18.6223C3.38166 19.6835 4.24182 20.5437 5.30305 20.5438L5.30317 20.5438L8.19894 20.5438L8.1992 20.5438C8.7291 20.5437 9.21097 20.3277 9.55772 19.9809C9.90467 19.634 10.1201 19.1523 10.1205 18.623L10.1205 18.6221C10.1204 17.561 9.26017 16.7008 8.19907 16.7006L8.19899 16.7006L5.30322 16.7005Z" fill="#FF00FF" stroke="white" stroke-width="2"/>
<path d="M11.9067 24.6257L11.9069 24.6255C12.6568 23.8753 12.6573 22.6586 11.9068 21.9082C11.1562 21.1576 9.93957 21.1581 9.18937 21.9083L7.14177 23.9559C6.39174 24.7059 6.39092 25.9226 7.14164 26.6733C7.892 27.4237 9.10881 27.4236 9.85914 26.6733L11.9067 24.6257Z" fill="#FF00FF" stroke="white" stroke-width="2"/>
<path d="M11.9469 24.891L11.9469 24.8907C11.9471 23.83 12.8069 22.9695 13.8682 22.9695L11.9469 24.891ZM11.9469 24.891L11.9469 27.7866M11.9469 24.891L11.9469 27.7866M11.9469 27.7866C11.9469 27.7867 11.9469 27.7868 11.9469 27.7868M11.9469 27.7866L11.9469 27.7868M11.9469 27.7868C11.9469 27.7869 11.9469 27.7869 11.9469 27.787M11.9469 27.7868V27.787M11.9469 27.787C11.9467 28.8484 12.8072 29.7085 13.8683 29.7085L11.9469 27.787ZM13.8685 29.7085C14.3986 29.7084 14.8802 29.4925 15.227 29.1457C15.5738 28.799 15.7897 28.3172 15.7897 27.7871L15.7898 24.8912C15.79 23.83 14.9296 22.9695 13.8685 22.9695L13.8685 29.7085Z" fill="#FF00FF" stroke="white" stroke-width="2"/>
<path d="M11.4138 15.1901C12.1641 14.4397 12.164 13.2229 11.4137 12.4726L9.36591 10.4248C8.61564 9.67453 7.3989 9.67436 6.64848 10.4248C5.898 11.1753 5.89826 12.3919 6.64854 13.1422L8.6964 15.19C9.44653 15.9401 10.6631 15.9407 11.4138 15.1901Z" fill="#FF00FF" stroke="white" stroke-width="2"/>
<path d="M15.7898 11.452C15.7899 11.9829 15.5732 12.4643 15.2268 12.8107C14.8806 13.1569 14.3992 13.3736 13.8684 13.3735L15.7898 11.452ZM15.7898 11.452C15.7898 11.4519 15.7898 11.4518 15.7898 11.4518L15.7897 8.55645M15.7898 11.452L15.7897 8.55645M15.7897 8.55645C15.7897 8.5564 15.7897 8.55635 15.7897 8.5563M15.7897 8.55645V8.5563M15.7897 8.5563C15.7898 7.49514 14.9296 6.63474 13.8683 6.63481L15.7897 8.5563ZM11.9467 11.452C11.9467 11.452 11.9467 11.4519 11.9467 11.4519L11.9467 8.55665C11.9467 8.55652 11.9467 8.55639 11.9467 8.55626C11.9465 7.49505 12.8071 6.63488 13.8679 6.63481L11.9467 11.452ZM11.9467 11.452C11.9467 12.5131 12.8069 13.3735 13.868 13.3735L11.9467 11.452Z" fill="#FF00FF" stroke="white" stroke-width="2"/>
</g>
<defs>
<filter id="filter0_d_1_256" x="0.381531" y="0.909766" width="39.6186" height="31.7987" filterUnits="userSpaceOnUse" color-interpolation-filters="sRGB">
<feFlood flood-opacity="0" result="BackgroundImageFix"/>
<feColorMatrix in="SourceAlpha" type="matrix" values="0 0 0 0 0 0 0 0 0 0 0 0 0 0 0 0 0 0 127 0" result="hardAlpha"/>
<feOffset/>
<feGaussianBlur stdDeviation="1"/>
<feComposite in2="hardAlpha" operator="out"/>
<feColorMatrix type="matrix" values="0 0 0 0 0 0 0 0 0 0 0 0 0 0 0 0 0 0 0.3 0"/>
<feBlend mode="normal" in2="BackgroundImageFix" result="effect1_dropShadow_1_256"/>
<feBlend mode="normal" in="SourceGraphic" in2="effect1_dropShadow_1_256" result="shape"/>
</filter>
</defs>
</svg>
