<svg width="33" height="40" viewBox="0 0 33 40" fill="none" xmlns="http://www.w3.org/2000/svg">
<g filter="url(#filter0_d_1_39762)">
<path d="M24.8931 21.6711C25.3119 21.4151 25.8041 21.2676 26.3309 21.2676C27.8555 21.2676 29.0914 22.5036 29.0914 24.0282V28.2536C29.0914 28.4662 29.0669 28.6784 29.0181 28.8859L24.8931 21.6711ZM24.8931 21.6711C24.4282 20.8023 23.5119 20.2113 22.4576 20.2113C21.8655 20.2113 21.3169 20.3977 20.8673 20.7151C20.3705 19.9859 19.5333 19.5071 18.5844 19.5071C18.1885 19.5071 17.812 19.5904 17.4717 19.7405V15.2253C17.4717 13.7008 16.2358 12.4648 14.7111 12.4648C13.1864 12.4648 11.9505 13.7008 11.9505 15.2253V24.4138C11.0019 23.5833 9.57269 23.4876 8.51002 24.2604L8.51 24.2604C7.27703 25.1572 7.00445 26.8837 7.90114 28.1167L8.70865 27.5294L7.90115 28.1167L13.5348 35.8632L13.5349 35.8632C13.791 36.2154 14.1268 36.5019 14.5148 36.6995C14.9028 36.8971 15.332 37.0001 15.7674 37.0001H15.7674H24.9224C26.2034 37.0001 27.3162 36.1188 27.6096 34.8718C27.6096 34.8718 27.6096 34.8718 27.6096 34.8718L29.018 28.886L24.8931 21.6711Z" fill="#FF00FF" stroke="white" stroke-width="2"/>
<path d="M16.3007 5.30321L16.3007 5.30264C16.3002 4.24177 15.4403 3.38233 14.3798 3.38151L14.3789 3.38151C13.3177 3.38165 12.4575 4.2418 12.4574 5.30303L12.4574 5.30316L12.4574 8.19893L12.4574 8.19918C12.4575 8.72908 12.6735 9.21095 13.0203 9.55771C13.3672 9.90465 13.8489 10.1201 14.3782 10.1205L14.3791 10.1205C15.4402 10.1204 16.3004 9.26015 16.3006 8.19905L16.3006 8.19897L16.3007 5.30321Z" fill="#FF00FF" stroke="white" stroke-width="2"/>
<path d="M8.37456 11.9067L8.37469 11.9069C9.12494 12.6568 10.3416 12.6573 11.0921 11.9068C11.8426 11.1562 11.8421 9.93955 11.0919 9.18936L9.04433 7.14176C8.29429 6.39172 7.07762 6.3909 6.3269 7.14163C5.57654 7.89199 5.57663 9.10879 6.32696 9.85913L8.37456 11.9067Z" fill="#FF00FF" stroke="white" stroke-width="2"/>
<path d="M8.11022 11.9469L8.11048 11.9469C9.17124 11.9471 10.0317 12.8069 10.0317 13.8682L8.11022 11.9469ZM8.11022 11.9469L5.21458 11.9469M8.11022 11.9469L5.21458 11.9469M5.21458 11.9469C5.21452 11.9469 5.21446 11.9469 5.21439 11.9469M5.21458 11.9469L5.21439 11.9469M5.21439 11.9469C5.21433 11.9469 5.21426 11.9469 5.21419 11.9469M5.21439 11.9469H5.21419M5.21419 11.9469C4.15277 11.9467 3.29267 12.8072 3.29274 13.8683L5.21419 11.9469ZM3.29274 13.8684C3.29278 14.3985 3.5087 14.8802 3.85554 15.227C4.20226 15.5737 4.68402 15.7897 5.21413 15.7897L8.11003 15.7898C9.17124 15.79 10.0317 14.9296 10.0317 13.8684L3.29274 13.8684Z" fill="#FF00FF" stroke="white" stroke-width="2"/>
<path d="M17.8102 11.4138C18.5605 12.1641 19.7773 12.164 20.5276 11.4137L22.5754 9.36589C23.3257 8.61563 23.3259 7.39889 22.5754 6.64846C21.825 5.89799 20.6084 5.89824 19.8581 6.64853L17.8102 8.69639C17.0601 9.44651 17.0595 10.6631 17.8102 11.4138Z" fill="#FF00FF" stroke="white" stroke-width="2"/>
<path d="M21.5482 15.7898C21.0173 15.7898 20.5359 15.5732 20.1895 15.2268C19.8433 14.8806 19.6267 14.3992 19.6267 13.8684L21.5482 15.7898ZM21.5482 15.7898C21.5483 15.7898 21.5484 15.7898 21.5485 15.7898L24.4438 15.7897M21.5482 15.7898L24.4438 15.7897M24.4438 15.7897C24.4438 15.7897 24.4439 15.7897 24.4439 15.7897M24.4438 15.7897H24.4439M24.4439 15.7897C25.5051 15.7898 26.3655 14.9296 26.3654 13.8683L24.4439 15.7897ZM21.5482 11.9467C21.5483 11.9467 21.5483 11.9467 21.5483 11.9467L24.4436 11.9467C24.4437 11.9467 24.4438 11.9467 24.444 11.9467C25.5052 11.9465 26.3654 12.8071 26.3654 13.8679L21.5482 11.9467ZM21.5482 11.9467C20.4871 11.9467 19.6268 12.8069 19.6267 13.868L21.5482 11.9467Z" fill="#FF00FF" stroke="white" stroke-width="2"/>
</g>
<defs>
<filter id="filter0_d_1_39762" x="0.292969" y="0.381516" width="31.7988" height="39.6186" filterUnits="userSpaceOnUse" color-interpolation-filters="sRGB">
<feFlood flood-opacity="0" result="BackgroundImageFix"/>
<feColorMatrix in="SourceAlpha" type="matrix" values="0 0 0 0 0 0 0 0 0 0 0 0 0 0 0 0 0 0 127 0" result="hardAlpha"/>
<feOffset/>
<feGaussianBlur stdDeviation="1"/>
<feComposite in2="hardAlpha" operator="out"/>
<feColorMatrix type="matrix" values="0 0 0 0 0 0 0 0 0 0 0 0 0 0 0 0 0 0 0.3 0"/>
<feBlend mode="normal" in2="BackgroundImageFix" result="effect1_dropShadow_1_39762"/>
<feBlend mode="normal" in="SourceGraphic" in2="effect1_dropShadow_1_39762" result="shape"/>
</filter>
</defs>
</svg>
