<svg width="21" height="22" viewBox="0 0 21 22" fill="none" xmlns="http://www.w3.org/2000/svg">
<path d="M0.330078 14.64H6.65556C6.89885 16.72 8.27748 17.72 10.5076 17.72C12.535 17.72 13.792 17 13.792 15.64C13.792 13.8 11.2375 13.56 8.48022 13.08C4.8309 12.48 0.938297 11.52 0.938297 6.64C0.938297 2.28 5.03364 0 9.98049 0C15.941 0 19.1038 2.56 19.4282 6.64H13.2649C13.0216 4.76 11.7646 4.2 9.89939 4.2C8.27748 4.2 6.97994 4.8 6.97994 6.08C6.97994 7.52 9.37227 7.72 12.0079 8.24C15.6977 8.84 20.0364 9.76 20.0364 15.08C20.0364 19.6 15.9816 21.96 10.4671 21.96C4.38487 22 0.532818 19.2 0.330078 14.64Z" fill="black"/>
</svg>
