<svg width="6" height="8" viewBox="0 0 6 8" fill="none" xmlns="http://www.w3.org/2000/svg">
<path d="M3.15542 7.22672C1.90831 7.22672 1.1252 6.55472 1.09231 5.3405H0.176758C0.209647 7.06228 1.52254 8.00005 3.18831 8.00005C4.72165 8.00005 5.90209 7.1725 5.90209 5.72717C5.90209 4.74583 5.43898 4.07205 4.37942 3.7965V3.76361C5.10831 3.52094 5.62654 3.02494 5.62654 2.17428C5.62654 0.861387 4.51276 0.0996094 3.11098 0.0996094C1.44431 0.0996094 0.440758 1.0925 0.430091 2.58228H1.33498C1.33498 1.53339 1.98565 0.827609 3.0772 0.827609C3.98209 0.827609 4.72076 1.32361 4.72076 2.15205C4.72076 2.95739 4.1252 3.45339 2.94476 3.45339H2.48165V4.17072H2.95631C4.22476 4.17072 4.94209 4.67917 4.94209 5.63917C4.94209 6.7085 4.20342 7.22672 3.15542 7.22672Z" fill="black"/>
</svg>
