<svg width="24" height="18" viewBox="0 0 24 18" fill="none" xmlns="http://www.w3.org/2000/svg">
<path fill-rule="evenodd" clip-rule="evenodd" d="M0 0H16.5L24 9V15H22.5C22.5 16.6573 21.1573 18 19.5 18C17.8427 18 16.5 16.6573 16.5 15H7.5C7.5 16.6573 6.15733 18 4.5 18C2.84267 18 1.5 16.6573 1.5 15H0V0ZM3 15C3 15.8267 3.67333 16.5 4.5 16.5C5.32667 16.5 6 15.8267 6 15C6 14.1733 5.32667 13.5 4.5 13.5C3.67333 13.5 3 14.1733 3 15ZM19.5 16.5C18.6733 16.5 18 15.8267 18 15C18 14.1733 18.6733 13.5 19.5 13.5C20.3267 13.5 21 14.1733 21 15C21 15.8267 20.3267 16.5 19.5 16.5ZM22.084 13.5H22.5V9.54267L15.7973 1.5H1.5V13.5H1.916C2.436 12.6067 3.392 12 4.5 12C5.608 12 6.564 12.6067 7.084 13.5H16.916C17.436 12.6067 18.392 12 19.5 12C20.608 12 21.564 12.6067 22.084 13.5Z" fill="black"/>
</svg>
