<svg width="23" height="24" viewBox="0 0 23 24" fill="none" xmlns="http://www.w3.org/2000/svg">
<path fill-rule="evenodd" clip-rule="evenodd" d="M15.2821 14.6526L22.8611 22.2316L21.8758 23.2674L14.2968 15.6884C11.2449 18.2845 6.79842 18.4094 3.60555 15.9888C0.412685 13.5682 -0.667749 9.25314 1.00772 5.61356C2.6832 1.97399 6.66391 -0.0111645 10.5791 0.840403C14.4942 1.69197 17.2908 5.15121 17.3032 9.1579C17.308 11.1722 16.591 13.1215 15.2821 14.6526ZM2.21805 11.864C3.31804 14.5229 5.91198 16.257 8.78949 16.257C10.6744 16.2604 12.4833 15.5139 13.8174 14.1822C15.1514 12.8506 15.9011 11.043 15.9011 9.15805C15.9062 6.28055 14.1767 3.68353 11.5197 2.57881C8.86273 1.4741 5.80185 2.07941 3.76533 4.11231C1.72881 6.14521 1.11806 9.20502 2.21805 11.864Z" fill="black"/>
</svg>
