<svg width="18" height="23" viewBox="0 0 18 23" fill="none" xmlns="http://www.w3.org/2000/svg">
<path fill-rule="evenodd" clip-rule="evenodd" d="M7.35786 13.1367C7.6105 13.3893 7.86313 13.5156 8.24207 13.5156C8.62102 13.5156 8.87365 13.3893 9.2526 13.1367L11.5263 10.863L10.5158 10.1051C10.2631 9.85244 10.0105 9.72613 9.63155 9.72613C9.2526 9.72613 8.99997 9.85244 8.74734 10.1051L2.0526 16.7998C1.79997 17.0524 1.67365 17.3051 1.67365 17.684C1.67365 18.063 1.79997 18.3156 2.0526 18.5682L4.70523 21.2209C4.95786 21.4735 5.2105 21.5998 5.58944 21.5998C5.96839 21.5998 6.22102 21.4735 6.47365 21.2209L13.1684 14.3998C13.421 14.1472 13.5473 13.8945 13.5473 13.5156C13.5473 13.1367 13.421 12.884 13.1684 12.6314L12.9158 12.3788L13.9263 11.3682L14.1789 11.7472C15.1894 12.7577 15.1894 14.5261 14.1789 15.5367L7.48418 22.2314C6.97892 22.7367 6.22102 22.9893 5.58944 22.9893C4.95786 22.9893 4.19997 22.7367 3.69471 22.2314L1.04207 19.5788C0.0315481 18.5682 0.0315481 16.7998 1.04207 15.7893L4.4526 12.3788L3.69471 11.6209C2.68418 10.484 2.68418 8.84192 3.69471 7.70507L10.3894 1.01034C10.8947 0.505073 11.6526 0.252441 12.2842 0.252441C12.9158 0.252441 13.6737 0.505073 14.1789 1.01034L16.8315 3.66297C17.8421 4.67349 17.8421 6.44192 16.8315 7.45244L10.1368 14.1472C9.63155 14.6524 8.87365 14.9051 8.24207 14.9051C7.6105 14.9051 6.8526 14.6524 6.34734 14.1472L6.09471 13.8945L7.10523 12.884L7.35786 13.1367ZM7.86301 8.96841C8.36828 8.46314 8.99986 8.21051 9.75775 8.21051C10.3893 8.21051 11.1472 8.46314 11.7788 9.09472L12.5367 9.85262L15.9472 6.44209C16.4525 5.93683 16.4525 5.17893 15.9472 4.67367L13.2946 2.02104C13.042 1.76841 12.7893 1.64209 12.4104 1.64209C12.0314 1.64209 11.7788 1.76841 11.5262 2.02104L4.70512 8.71577C4.45249 8.96841 4.32617 9.22104 4.32617 9.59999C4.32617 9.97893 4.45249 10.3579 4.70512 10.6105L5.46301 11.3684L7.86301 8.96841Z" fill="black"/>
</svg>
