<svg width="12" height="12" viewBox="0 0 12 12" fill="none" xmlns="http://www.w3.org/2000/svg">
<path fill-rule="evenodd" clip-rule="evenodd" d="M8.14103 7.32631L11.9305 11.1158L11.4379 11.6337L7.6484 7.84421C6.12243 9.14223 3.89919 9.20469 2.30275 7.99439C0.706321 6.78409 0.166105 4.62656 1.00384 2.80678C1.84158 0.986989 3.83193 -0.00558609 5.78952 0.420198C7.7471 0.845982 9.14537 2.5756 9.15156 4.57894C9.15396 5.58609 8.79546 6.56076 8.14103 7.32631ZM1.609 5.93199C2.159 7.26147 3.45597 8.1285 4.89472 8.1285C5.8372 8.13017 6.74164 7.75695 7.40867 7.09112C8.07569 6.42528 8.45052 5.5215 8.45051 4.57902C8.45307 3.14027 7.58835 1.84176 6.25985 1.2894C4.93135 0.737044 3.4009 1.0397 2.38264 2.05615C1.36439 3.0726 1.05901 4.6025 1.609 5.93199Z" fill="black"/>
</svg>
