<svg width="24" height="24" viewBox="0 0 24 24" fill="none" xmlns="http://www.w3.org/2000/svg">
<path fill-rule="evenodd" clip-rule="evenodd" d="M24 9.33333L21.3333 11.3333V12.8L23.8667 14.8L22.2667 18.5333L18.9333 18C18.6667 18.4 18.2667 18.8 17.8667 19.0667L18.4 22.4L14.6667 24L12.6667 21.3333H11.2L9.2 24L5.46667 22.2667L6 18.9333C5.6 18.6667 5.2 18.2667 4.93333 17.8667L1.6 18.4L0 14.6667L2.66667 12.6667V11.2L0 9.2L1.6 5.46667L4.93333 6C5.2 5.6 5.6 5.2 6 4.93333L5.46667 1.6L9.2 0L11.2 2.66667H12.8L14.8 0L18.5333 1.73333L18 5.06667C18.4 5.33333 18.8 5.73333 19.0667 6.13333L22.4 5.6L24 9.33333ZM21.4667 16.8L22.1333 15.3333L19.7333 13.6C19.8667 13.0667 19.8667 12.5333 19.8667 12C19.8667 11.4667 19.8667 11.0667 19.7333 10.5333L22.1333 8.8L21.4667 7.33333L18.6667 7.73333C18 6.8 17.2 6 16.2667 5.33333L16.6667 2.4L15.2 1.73333L13.4667 4.13333C12.9333 4 12.5333 4 12 4C11.4306 4 11.0557 4.09727 10.6262 4.20872C10.5528 4.22776 10.4778 4.24721 10.4 4.26667L8.66667 1.86667L7.2 2.53333L7.6 5.33333C6.8 5.86667 6 6.66667 5.33333 7.6L2.53333 7.2L1.86667 8.66667L4.13333 10.6667C4 11.0667 4 11.4667 4 12C4 12.4418 4.09151 12.7922 4.19871 13.2026C4.22091 13.2876 4.24379 13.3752 4.26667 13.4667L1.73333 15.3333L2.4 16.8L5.46667 16.4C6 17.2 6.8 18 7.6 18.5333L7.2 21.6L8.66667 22.2667L10.5333 19.7333C10.9333 19.8667 11.4667 19.8667 12 19.8667C12.4 19.8667 12.9333 19.8667 13.3333 19.7333L15.2 22.2667L16.6667 21.6L16.2667 18.6667C17.2 18 17.8667 17.3333 18.5333 16.4L21.4667 16.8Z" fill="black"/>
</svg>
