<svg width="24" height="16" viewBox="0 0 24 16" fill="none" xmlns="http://www.w3.org/2000/svg">
<path fill-rule="evenodd" clip-rule="evenodd" d="M24 6.08284L11.9967 0L0 6.07975L2.42904 7.27441V13.7705H3.87037V7.9834L7.02857 9.53673C5.81973 10.9354 5.15873 12.7248 5.168 14.5734V15.3127H18.832V14.5734C18.8431 12.7146 18.1744 10.9158 16.9518 9.51563L24 6.08284ZM11.9966 1.61572L20.7596 6.05718L11.9465 10.3493L3.22705 6.06039L11.9966 1.61572ZM6.68896 13.8338H17.3114C17.1586 12.4554 16.5339 11.1722 15.5431 10.2017L11.9442 11.9543L8.42725 10.2245C7.45422 11.1949 6.84107 12.468 6.68896 13.8338Z" fill="black"/>
</svg>
