<svg width="23" height="23" viewBox="0 0 23 23" fill="none" xmlns="http://www.w3.org/2000/svg">
<path fill-rule="evenodd" clip-rule="evenodd" d="M11.3684 0C17.6842 0 22.7368 5.05263 22.7368 11.3684C22.7368 12.6316 22.4842 13.8947 22.2316 15.0316C22.6105 15.7895 22.8632 16.5474 22.8632 17.4316C22.8632 20.3368 20.5895 22.6105 17.6842 22.6105C16.8 22.6105 16.0421 22.3579 15.2842 21.9789C14.0211 22.4842 12.7579 22.7368 11.3684 22.7368C5.05263 22.7368 0 17.6842 0 11.3684C0 5.05263 5.05263 0 11.3684 0ZM4.7998 18.821C6.56823 20.4631 8.84191 21.3473 11.3682 21.3473C12.1261 21.3473 13.0103 21.221 13.8945 20.9683C13.0103 20.0841 12.5051 18.821 12.5051 17.4315C12.5051 16.7999 12.6314 16.2947 12.7577 15.7894C12.3788 15.6631 11.8735 15.6631 11.4945 15.6631C8.96823 15.6631 6.56823 16.7999 4.7998 18.821ZM17.558 21.221C15.537 21.221 13.7686 19.5789 13.7686 17.4316C13.7686 15.4105 15.4107 13.6421 17.558 13.6421C19.5791 13.6421 21.3475 15.2842 21.3475 17.4316C21.2212 19.5789 19.5791 21.221 17.558 21.221ZM17.5581 12.2527C18.8212 12.2527 20.0844 12.8842 20.9686 13.6421C21.0949 12.8842 21.2212 12.1263 21.3475 11.2421C21.3475 5.68424 16.9265 1.26318 11.3686 1.26318C5.8107 1.26318 1.38965 5.81055 1.38965 11.2421C1.38965 13.6421 2.27386 15.9158 3.78965 17.6842C5.8107 15.4106 8.58965 14.1474 11.4949 14.1474C12.1265 14.1474 12.7581 14.2737 13.3896 14.4C14.2739 13.1369 15.7896 12.2527 17.5581 12.2527Z" fill="black"/>
</svg>
