<svg width="20" height="23" viewBox="0 0 20 23" fill="none" xmlns="http://www.w3.org/2000/svg">
<path fill-rule="evenodd" clip-rule="evenodd" d="M0.399902 11.6209C0.399902 5.30507 5.45253 0.252441 11.7683 0.252441C12.5262 0.252441 13.2841 0.252441 13.9157 0.505073C11.642 2.65244 10.2525 5.5577 10.2525 8.84192C10.2525 14.2735 14.2946 18.9472 19.4736 19.9577C17.4525 21.8524 14.7999 22.9893 11.7683 22.9893C5.45253 22.9893 0.399902 17.9367 0.399902 11.6209ZM8.98955 8.71577C8.98955 6.18946 9.74745 3.78946 11.1369 1.64209C5.95797 2.02104 1.91587 6.31577 1.78955 11.4947C1.78955 17.0526 6.33692 21.4737 11.7685 21.4737C13.4106 21.4737 15.0527 21.0947 16.4422 20.3368C12.0211 18.3158 8.98955 13.7684 8.98955 8.71577Z" fill="black"/>
</svg>
