<svg width="12" height="12" viewBox="0 0 12 12" fill="none" xmlns="http://www.w3.org/2000/svg">
<path fill-rule="evenodd" clip-rule="evenodd" d="M8.14103 7.506L11.9305 11.2955L11.4379 11.8134L7.6484 8.02389C6.12243 9.32192 3.89919 9.38438 2.30275 8.17407C0.706321 6.96377 0.166105 4.80625 1.00384 2.98646C1.84158 1.16668 3.83193 0.174101 5.78952 0.599885C7.7471 1.02567 9.14537 2.75529 9.15156 4.75863C9.15396 5.76577 8.79546 6.74045 8.14103 7.506ZM1.609 6.11167C2.159 7.44116 3.45597 8.30818 4.89472 8.30819C5.8372 8.30986 6.74164 7.93664 7.40867 7.2708C8.07569 6.60497 8.45052 5.70119 8.45051 4.75871C8.45307 3.31996 7.58835 2.02145 6.25985 1.46909C4.93135 0.916731 3.4009 1.21939 2.38264 2.23584C1.36439 3.25229 1.05901 4.78219 1.609 6.11167Z" fill="#747676"/>
</svg>
