<svg width="17" height="23" viewBox="0 0 17 23" fill="none" xmlns="http://www.w3.org/2000/svg">
<path fill-rule="evenodd" clip-rule="evenodd" d="M8.3789 0.126465C8.3789 0.126465 14.1894 9.85278 15.3263 12.3791C15.7052 13.2633 15.9578 14.2738 16.0842 15.4107C16.0842 19.5791 12.6736 22.9896 8.50522 22.9896C4.3368 22.9896 0.92627 19.5791 0.92627 15.4107C0.92627 14.6528 1.1789 13.2633 1.68416 12.2528C3.07364 9.2212 8.3789 0.126465 8.3789 0.126465ZM2.31592 15.4107C2.31592 18.6949 4.96855 21.4738 8.37908 21.4738C11.7896 21.4738 14.5685 18.8212 14.5685 15.4107C14.5685 14.5265 14.4422 13.7686 14.0633 13.0107C13.4428 11.6664 11.2139 7.86705 9.45566 4.86997C9.06617 4.20606 8.69978 3.58151 8.37908 3.03174C6.73697 5.81069 3.95802 10.8633 2.9475 12.8844C2.56855 13.6423 2.31592 14.9054 2.31592 15.4107Z" fill="black"/>
</svg>
