<svg width="23" height="23" viewBox="0 0 23 23" fill="none" xmlns="http://www.w3.org/2000/svg">
<path fill-rule="evenodd" clip-rule="evenodd" d="M20.5895 12.7579H22.7368C22.7368 6.69474 18.0632 1.76842 12.1263 1.38947V0H10.6105V1.51579C4.67368 1.76842 0 6.69474 0 12.7579H2.14737V21.3474H0V22.7368H22.7368V21.3474H20.5895V12.7579ZM1.51562 11.3688C2.27352 6.56877 6.31563 2.7793 11.3683 2.7793C16.4209 2.7793 20.463 6.44245 21.2209 11.3688H1.51562ZM3.53662 12.7578V21.3473H7.83136V12.7578H3.53662ZM9.22119 21.3473V12.7578H13.5159V21.3473H9.22119ZM14.9053 12.7578V21.3473H19.2V12.7578H14.9053Z" fill="black"/>
</svg>
