<svg width="24" height="24" viewBox="0 0 24 24" fill="none" xmlns="http://www.w3.org/2000/svg">
<path fill-rule="evenodd" clip-rule="evenodd" d="M21.1387 11.2777H24V12.722H21.1301C20.7333 17.1659 17.1908 20.6766 12.7435 21.0333V24H11.2995V21.0333C6.85199 20.6767 3.30923 17.1661 2.91211 12.722H0V11.2777H2.90364C3.22582 6.76783 6.79271 3.16893 11.2995 2.80648V0H12.7435V2.80648C17.2501 3.16899 20.8168 6.76794 21.1387 11.2777ZM17.2814 11.2778H19.6942C19.3799 7.56364 16.4542 4.6058 12.7437 4.25098V6.6685C15.127 6.99702 16.9902 8.88959 17.2814 11.2778ZM15.8162 12.7222C15.4895 14.2507 14.2788 15.4347 12.7433 15.7274V13.7739H11.2993V15.7274C9.76377 15.435 8.55295 14.2508 8.22639 12.7222H10.2264V11.2778H8.20557C8.47447 9.68017 9.70819 8.41802 11.2993 8.11279V10.2261H12.7433V8.11279C14.3344 8.41786 15.568 9.68015 15.8364 11.2778H13.7733V12.7222H15.8162ZM11.2993 6.66846V4.25098C7.58856 4.60552 4.66251 7.56341 4.34814 11.2778H6.76156C7.05263 8.8895 8.91587 6.99687 11.2993 6.66846ZM4.35791 12.7222H6.77791C7.13456 15.0424 8.97374 16.8523 11.2994 17.1717V19.5892C7.64744 19.2411 4.74533 16.3702 4.35791 12.7222ZM12.7437 17.1717V19.5892C16.3953 19.2408 19.297 16.3699 19.6844 12.7222H17.2651C16.9085 15.0424 15.0693 16.8524 12.7437 17.1717Z" fill="black"/>
</svg>
