<svg width="23" height="24" viewBox="0 0 23 24" fill="none" xmlns="http://www.w3.org/2000/svg">
<path fill-rule="evenodd" clip-rule="evenodd" d="M11.6209 0.378906C5.30507 0.378906 0.252441 5.43154 0.252441 11.7473C0.252441 18.0631 5.30507 23.1157 11.6209 23.1157C17.9367 23.1157 22.9893 18.0631 22.9893 11.7473C22.9893 5.43154 17.9367 0.378906 11.6209 0.378906ZM11.621 1.76855C17.0526 1.76855 21.6 6.18961 21.6 11.7475C21.6 14.2738 20.7158 16.4212 19.2 18.1896C17.3052 15.9159 14.6526 14.5264 11.621 14.5264C8.71577 14.5264 5.93683 15.9159 4.04209 18.1896C2.65262 16.4212 1.64209 14.1475 1.64209 11.7475C1.64209 6.18961 6.18946 1.76855 11.621 1.76855ZM11.6207 16.042C8.96804 16.042 6.56804 17.1788 5.05225 19.1999C6.82067 20.7157 9.09435 21.7262 11.6207 21.7262C14.147 21.7262 16.4207 20.7157 18.1891 19.1999C16.547 17.1788 14.2733 16.042 11.6207 16.042Z" fill="black"/>
</svg>
