<svg width="23" height="10" viewBox="0 0 23 10" fill="none" xmlns="http://www.w3.org/2000/svg">
<path fill-rule="evenodd" clip-rule="evenodd" d="M17.937 0.0737305C15.158 0.0737305 13.0107 2.34741 13.0107 5.00005C13.0107 6.38952 13.6423 7.65268 14.5265 8.53689H8.58962C9.60015 7.65268 10.1054 6.38952 10.1054 5.00005C10.1054 2.2211 7.83173 0.0737305 5.1791 0.0737305C2.52646 0.0737305 0.126465 2.2211 0.126465 5.00005C0.126465 7.77899 2.40015 9.92636 5.05278 9.92636H17.8107C20.5896 9.92636 22.737 7.65268 22.737 5.00005C22.737 2.34741 20.7159 0.0737305 17.937 0.0737305ZM1.64209 5.00022C1.64209 2.97917 3.28419 1.46338 5.17893 1.46338C7.19998 1.46338 8.71577 3.10548 8.71577 5.00022C8.71577 6.89496 7.07367 8.53706 5.17893 8.53706C3.15788 8.53706 1.64209 7.02127 1.64209 5.00022ZM14.4004 5.00022C14.4004 6.89496 15.9162 8.53706 17.9372 8.53706C19.9583 8.53706 21.4741 7.02127 21.4741 5.00022C21.4741 2.97917 19.9583 1.46338 17.9372 1.46338C16.0425 1.46338 14.4004 3.10548 14.4004 5.00022Z" fill="black"/>
</svg>
