<svg width="24" height="24" viewBox="0 0 24 24" fill="none" xmlns="http://www.w3.org/2000/svg">
<path fill-rule="evenodd" clip-rule="evenodd" d="M23.4667 4.13333C23.7333 4.93333 24 5.73333 24 7.06667V12C24 13.9447 23.9508 14.8553 23.9121 15.5697C23.8872 16.0309 23.8667 16.4103 23.8667 16.9333C23.8667 18.2667 23.6 19.0667 23.3333 19.8667C23.0667 20.6667 22.6667 21.3333 22 22C21.3333 22.6667 20.6667 23.0667 19.8667 23.3333C19.0667 23.6 18.2667 23.8667 16.9333 23.8667C15.7333 24 15.2 24 12 24C8.8 24 8.4 24 7.06667 23.8667C5.73333 23.8667 4.93333 23.6 4.13333 23.3333C3.33333 23.0667 2.66667 22.6667 2 22C1.33333 21.3333 0.933333 20.6667 0.666667 19.8667C0.4 19.0667 0.133333 18.2667 0.133333 16.9333C0 15.7333 0 15.2 0 12C0 8.8 0 8.26667 0.133333 7.06667C0.133333 5.73333 0.4 4.93333 0.666667 4.13333C0.933333 3.33333 1.33333 2.66667 2 2C2.66667 1.33333 3.33333 0.933333 4.13333 0.533333C4.93333 0.266667 5.73333 0 7.06667 0H12C15.2 0 15.7333 0 17.0667 0.133333C18.4 0.133333 19.2 0.4 20 0.666667C20.8 0.933333 21.4667 1.33333 22.1333 2C22.8 2.66667 23.2 3.33333 23.4667 4.13333ZM21.3702 18.9579C21.5104 18.5487 21.7333 17.8973 21.7333 16.8C21.8667 15.6 21.8667 15.2 21.8667 12C21.8667 10.0153 21.8154 9.10772 21.7764 8.4183C21.7526 7.99611 21.7333 7.65576 21.7333 7.2C21.7333 6.1027 21.5104 5.45135 21.3702 5.04206C21.3571 5.00375 21.3447 4.96757 21.3333 4.93333C21.0667 4.4 20.8 4 20.4 3.6C20 3.2 19.6 2.93333 19.0667 2.66667C19.0324 2.65526 18.9962 2.64287 18.9579 2.62976C18.5487 2.48964 17.8973 2.26667 16.8 2.26667C15.6 2.13333 15.2 2.13333 12 2.13333C10.0153 2.13333 9.10772 2.18462 8.4183 2.22358C7.99611 2.24743 7.65576 2.26667 7.2 2.26667C6.1027 2.26667 5.45135 2.48964 5.04206 2.62975C5.00375 2.64287 4.96757 2.65526 4.93333 2.66667C4.4 2.8 4 3.06667 3.6 3.6C3.2 4 2.93333 4.4 2.66667 4.93333C2.65526 4.96757 2.64287 5.00375 2.62975 5.04206C2.48964 5.45135 2.26667 6.1027 2.26667 7.2C2.13333 8.4 2.13333 8.8 2.13333 12C2.13333 13.9847 2.18462 14.8923 2.22358 15.5817C2.24743 16.0039 2.26667 16.3442 2.26667 16.8C2.26667 17.8973 2.48964 18.5487 2.62976 18.9579C2.64287 18.9962 2.65526 19.0324 2.66667 19.0667C2.93333 19.6 3.2 20 3.6 20.4C4 20.8 4.4 21.0667 4.93333 21.3333C4.96757 21.3447 5.00375 21.3571 5.04206 21.3702C5.45135 21.5104 6.1027 21.7333 7.2 21.7333C8.4 21.8667 8.8 21.8667 12 21.8667C13.9847 21.8667 14.8923 21.8154 15.5817 21.7764C16.0039 21.7526 16.3442 21.7333 16.8 21.7333C17.8973 21.7333 18.5487 21.5104 18.9579 21.3702C18.9962 21.3571 19.0324 21.3447 19.0667 21.3333C19.6 21.0667 20 20.8 20.4 20.4C20.8 20 21.0667 19.6 21.3333 19.0667C21.3447 19.0324 21.3571 18.9962 21.3702 18.9579Z" fill="black"/>
</svg>
