<svg width="18" height="24" viewBox="0 0 18 24" fill="none" xmlns="http://www.w3.org/2000/svg">
<path fill-rule="evenodd" clip-rule="evenodd" d="M17.2668 6.66667L12.7335 12.2667L17.6668 18.4L14.7335 23.8667L9.00016 16.9333L3.26683 24L0.333496 18.5333L5.40016 12.4L0.866829 6.93333L4.7335 0H13.5335L17.2668 6.66667ZM15.4002 6.53333L13.9335 3.86667L10.0668 8.8L11.8002 11.0667L15.4002 6.53333ZM9.13366 7.60003L7.66699 5.8667H10.467L9.13366 7.60003ZM12.6 1.4668H5.53333L5 2.53346L6.46667 4.40013H11.6667L13.1333 2.40013L12.6 1.4668ZM3.5335 21.3333L2.06683 18.6667L6.3335 13.6L8.20016 15.8667L3.5335 21.3333ZM2.60016 6.66667L14.4668 21.3333L15.9335 18.6667L4.20016 4L2.60016 6.66667Z" fill="black"/>
</svg>
