<svg width="23" height="23" viewBox="0 0 23 23" fill="none" xmlns="http://www.w3.org/2000/svg">
<path fill-rule="evenodd" clip-rule="evenodd" d="M15.7896 5.81068H9.60015C9.9791 5.43173 10.358 5.05278 10.6107 4.54752L10.8633 3.91594L8.33699 2.65278L9.34752 0.631728L8.08436 0.126465L7.07383 2.14752L4.54752 1.01068L4.29489 1.51594C3.66331 3.03173 4.04225 4.80015 5.30541 5.81068H0.126465V20.0844H1.51594C1.51594 21.6001 2.7791 22.9896 4.29489 22.9896C5.81068 22.9896 7.07383 21.7265 7.07383 20.0844H15.6633C15.6633 21.6001 16.9265 22.9896 18.4423 22.9896C19.958 22.9896 21.2212 21.7265 21.2212 20.0844H22.8633V14.4001L15.7896 5.81068ZM8.84231 4.54738C8.08442 5.30527 6.69494 5.30527 5.93705 4.54738C5.5581 4.04212 5.30547 3.41054 5.43178 2.90527L8.84231 4.54738ZM3.03173 20.0844C3.03173 20.8423 3.66331 21.4738 4.4212 21.4738C5.1791 21.4738 5.81068 20.8423 5.81068 20.0844C5.81068 19.3265 5.1791 18.6949 4.4212 18.6949C3.66331 18.6949 3.03173 19.3265 3.03173 20.0844ZM18.5687 21.4738C17.8108 21.4738 17.1792 20.8422 17.1792 20.0843C17.1792 19.3264 17.8108 18.6948 18.5687 18.6948C19.3266 18.6948 19.9581 19.3264 19.9581 20.0843C19.9581 20.8422 19.3266 21.4738 18.5687 21.4738ZM21.0951 18.5686H21.3477V14.7791L15.0319 7.2002H1.51611V18.5686H2.02138C2.27401 18.1897 2.65296 17.8107 3.0319 17.5581C4.29506 16.8002 6.06348 17.1791 6.82138 18.5686H16.2951C16.5477 18.1897 16.9266 17.8107 17.3056 17.5581C18.5687 16.8002 20.3372 17.1791 21.0951 18.5686Z" fill="black"/>
</svg>
