<svg width="24" height="20" viewBox="0 0 24 20" fill="none" xmlns="http://www.w3.org/2000/svg">
<path fill-rule="evenodd" clip-rule="evenodd" d="M24.0002 8.7184H19.8837L17.773 4.8544H13.0562V3.99492C13.1537 3.07294 12.8977 2.14832 12.34 1.40768C11.8856 0.915 11.2391 0.644548 10.5692 0.6668V2.1588C10.8146 2.13501 11.0574 2.22492 11.2281 2.4028C11.5064 2.84224 11.6265 3.36344 11.5686 3.88035L11.564 4.85447H11.5589L11.5472 15.1215H10.3309C9.82639 14.4005 9.00169 13.971 8.1216 13.971C7.24152 13.971 6.41682 14.4005 5.91227 15.1215H4.91687C4.14617 14.0351 2.69849 13.6728 1.5069 14.2681C0.315313 14.8634 -0.264346 16.2386 0.141529 17.5073C0.547404 18.7759 1.81761 19.5593 3.13346 19.3524C4.44932 19.1455 5.41787 18.0102 5.41487 16.6782C5.41487 18.1732 6.62685 19.3852 8.1219 19.3852C9.61695 19.3852 10.8289 18.1732 10.8289 16.6782C10.8289 16.6664 10.8273 16.6551 10.8256 16.6439C10.8242 16.6339 10.8227 16.624 10.8224 16.6137H13.6017V16.6121H17.2059C17.2056 16.6227 17.2042 16.6329 17.2027 16.6431C17.2011 16.6546 17.1994 16.6661 17.1994 16.6782C17.1973 17.6468 17.7128 18.5427 18.5512 19.0276C19.3896 19.5125 20.4233 19.5125 21.2617 19.0276C22.1001 18.5427 22.6156 17.6468 22.6135 16.6782C22.6135 16.6661 22.6118 16.6546 22.6102 16.6431L22.6102 16.6431C22.6087 16.6329 22.6073 16.6227 22.607 16.6121H24.0002V8.7184ZM5.41487 16.6782C5.41487 16.6671 5.41323 16.6564 5.41159 16.6457L5.41159 16.6457C5.40997 16.6351 5.40835 16.6246 5.40835 16.6137H5.42138C5.42107 16.624 5.41962 16.6339 5.41817 16.6439L5.41816 16.6439C5.41652 16.6552 5.41487 16.6664 5.41487 16.6782ZM2.70704 17.8931C2.0361 17.8931 1.49219 17.3492 1.49219 16.6782C1.49219 16.0073 2.0361 15.4634 2.70704 15.4634C3.37799 15.4634 3.92189 16.0073 3.92189 16.6782C3.92093 17.3488 3.37758 17.8921 2.70704 17.8931V17.8931ZM6.99974 17.1432C7.18778 17.5971 7.63076 17.8931 8.12213 17.8931L8.12218 17.8931C8.7928 17.8923 9.33624 17.3489 9.33697 16.6783C9.33697 16.1869 9.04098 15.7439 8.58702 15.5559C8.13306 15.3679 7.61052 15.4718 7.26308 15.8192C6.91564 16.1667 6.8117 16.6892 6.99974 17.1432ZM19.9064 17.8931C19.415 17.8931 18.9721 17.5971 18.784 17.1431C18.596 16.6892 18.6999 16.1666 19.0474 15.8192C19.3948 15.4717 19.9173 15.3678 20.3713 15.5558C20.8253 15.7439 21.1212 16.1868 21.1212 16.6782C21.1205 17.3488 20.5771 17.8923 19.9065 17.893L19.9064 17.8931ZM17.6979 15.1198C18.2032 14.4003 19.027 13.9717 19.9062 13.9709L19.9062 13.9709C20.7853 13.9715 21.609 14.4002 22.1139 15.1198H22.5078V10.2106H18.998L18.5736 9.43361L16.8874 6.34668H13.0495L13.0391 15.1198H17.6979Z" fill="black"/>
</svg>
