<svg width="23" height="23" viewBox="0 0 23 23" fill="none" xmlns="http://www.w3.org/2000/svg">
<path fill-rule="evenodd" clip-rule="evenodd" d="M16.1682 4.92613C16.1682 2.27349 14.1472 0.252441 11.6209 0.252441C9.09455 0.252441 7.07349 2.27349 7.07349 4.79981V4.92613H0.252441V22.9893H22.9893V4.92613H16.1682ZM8.46289 4.79998C8.46289 3.03156 9.85236 1.64209 11.6208 1.64209C13.3892 1.64209 14.7787 3.03156 14.7787 4.79998V4.9263L8.46289 4.79998ZM1.64209 21.5999H21.4737V12.7578H14.021V15.0315H9.09472V12.7578H1.64209V21.5999ZM10.4839 13.5155V10.4839H12.6313V13.5155H10.4839ZM14.1474 11.3681H21.4737V6.31543H6.94735H1.64209V11.3681H9.09472V9.09438H14.1474V11.3681Z" fill="black"/>
</svg>
