<svg width="23" height="23" viewBox="0 0 23 23" fill="none" xmlns="http://www.w3.org/2000/svg">
<path fill-rule="evenodd" clip-rule="evenodd" d="M11.4949 0.252441C5.1791 0.252441 0.126465 5.30507 0.126465 11.6209C0.126465 17.9367 5.1791 22.9893 11.4949 22.9893C17.8107 22.9893 22.8633 17.9367 22.8633 11.6209C22.8633 5.30507 17.8107 0.252441 11.4949 0.252441ZM21.4739 10.8631H16.6739C16.5476 7.19994 15.6634 3.91573 14.2739 2.021C18.316 3.15784 21.2213 6.69468 21.4739 10.8631ZM7.70557 12.3789C7.9582 18.0631 9.97925 21.6 11.495 21.6C13.0108 21.6 15.1582 17.9368 15.1582 12.3789H7.70557ZM7.83154 10.8631C7.95786 5.17893 10.1052 1.64209 11.621 1.64209C13.1368 1.64209 15.1579 5.17893 15.4105 10.8631H7.83154ZM6.31577 10.8631C6.44209 7.19994 7.3263 3.91573 8.71577 2.021C4.79998 3.15784 1.89472 6.69468 1.64209 10.8631H6.31577ZM1.64209 12.2524H6.44209C6.56841 15.9156 7.45262 19.1998 8.84209 21.0945C4.79998 19.9577 1.89472 16.5472 1.64209 12.2524ZM16.8004 12.2524C16.6741 15.9156 15.7899 19.1998 14.4004 21.0945C18.3162 19.9577 21.2214 16.5472 21.4741 12.2524H16.8004Z" fill="black"/>
</svg>
