<svg width="23" height="23" viewBox="0 0 23 23" fill="none" xmlns="http://www.w3.org/2000/svg">
<path fill-rule="evenodd" clip-rule="evenodd" d="M0 11.3684C0 5.05263 5.05263 0 11.3684 0C17.6842 0 22.7368 5.05263 22.7368 11.3684C22.7368 17.6842 17.6842 22.7368 11.3684 22.7368C5.05263 22.7368 0 17.6842 0 11.3684ZM4.92615 18.9475C6.56826 20.4633 8.84194 21.3475 11.3683 21.3475C16.9262 21.3475 21.3472 16.9265 21.3472 11.3686C21.3472 8.9686 20.463 6.69491 18.9472 4.92649L16.6735 7.20017L15.663 6.18965L17.9367 3.78965C16.2946 2.27386 14.0209 1.38965 11.4946 1.38965C5.93668 1.38965 1.51562 5.93702 1.51562 11.3686C1.51562 13.8949 2.39984 16.1686 3.91563 17.937L6.31563 15.537L7.32615 16.5475L4.92615 18.9475Z" fill="black"/>
</svg>
