<svg width="23" height="21" viewBox="0 0 23 21" fill="none" xmlns="http://www.w3.org/2000/svg">
<path fill-rule="evenodd" clip-rule="evenodd" d="M8.84192 15.1686C10.3577 16.0528 11.2419 17.5686 11.4945 19.2107H22.9893V20.4739H0.252441V19.0844C0.505073 17.4423 1.5156 15.9265 2.90507 15.0423V8.09491C1.89455 7.33702 1.38928 6.07386 1.38928 4.8107C1.38928 2.4107 3.41034 0.389648 5.81034 0.389648H17.684C18.8209 0.389648 19.7051 1.14754 20.084 2.15807C20.463 3.42123 19.8314 4.93702 18.4419 5.31596H18.3156V7.9686L20.8419 10.4949C20.9682 10.6212 21.0945 10.8739 21.0945 11.0002V12.2633C21.0945 12.3896 21.0945 12.516 20.9682 12.6423L19.5788 14.7896L18.4419 14.0318L19.7051 12.137V11.2528L18.063 9.6107H17.3051L15.663 11.2528V12.2633L16.9261 14.1581L15.7893 14.916L14.3998 12.7686C14.2735 12.6423 14.2735 12.516 14.2735 12.3896V11.0002C14.2735 10.7475 14.3998 10.6212 14.5261 10.4949L17.0524 7.9686V5.82123L8.84192 8.47386V15.1686ZM5.81039 1.7793H5.30512C3.91565 2.03193 2.77881 3.29509 2.77881 4.81088C2.77881 6.45298 4.16828 7.84245 5.81039 7.84245H6.31565C6.39372 7.76439 6.47179 7.73457 6.57967 7.69336C6.64635 7.66789 6.72442 7.63807 6.82091 7.58982L8.08407 7.21088L17.3051 4.1793L18.063 3.92667C18.5683 3.80035 18.8209 3.4214 18.8209 2.91614C18.8209 2.28456 18.3157 1.7793 17.6841 1.7793H16.5472H6.56828H5.81039ZM4.29443 8.97934C4.79971 9.10566 5.30496 9.23197 5.81022 9.23197C6.2288 9.23197 6.56068 9.14529 6.9495 9.04372L6.94976 9.04366C7.03021 9.02264 7.1131 9.00099 7.1997 8.97934L7.45233 8.85303V14.4109C6.94707 14.2846 6.4418 14.1583 5.93654 14.1583C5.43128 14.1583 4.92601 14.2846 4.42075 14.4109L4.29443 8.97934ZM9.97893 19.2107C9.59999 17.1896 7.83156 15.6738 5.81051 15.6738C3.78946 15.6738 2.02104 17.1896 1.64209 19.2107H9.97893Z" fill="black"/>
</svg>
