<svg width="23" height="21" viewBox="0 0 23 21" fill="none" xmlns="http://www.w3.org/2000/svg">
<path fill-rule="evenodd" clip-rule="evenodd" d="M19.5788 0.389648V1.14754C19.5788 2.53702 19.4524 3.92649 19.3261 5.31596H22.9893V6.07386C22.9893 9.48439 20.5893 12.516 16.9261 14.0318C15.663 16.4318 14.0209 17.9475 12.2524 18.3265V19.4633H16.4209V20.8528H6.69455V19.4633H10.9893V18.3265C9.22086 17.9475 7.57876 16.4318 6.3156 14.0318C2.52613 12.516 0.252441 9.48439 0.252441 6.07386V5.31596H3.78928C3.72613 4.62123 3.69455 3.92649 3.66297 3.23175C3.63139 2.53702 3.59981 1.84228 3.53665 1.14754V0.389648H19.5788ZM4.04209 6.70557H1.64209C2.02104 8.97925 3.41051 10.874 5.30525 11.8845C4.79998 10.2424 4.29472 8.47399 4.04209 6.70557ZM11.6207 16.9369C8.46277 16.9369 5.17856 10.8737 5.05225 1.90527H18.1891C17.9365 10.8737 14.6522 16.9369 11.6207 16.9369ZM19.0737 6.70557C18.8211 8.47399 18.4421 10.2424 17.8105 11.8845C19.8316 10.874 21.0948 8.97925 21.4737 6.70557H19.0737Z" fill="black"/>
</svg>
