<svg width="16" height="17" viewBox="0 0 16 17" fill="none" xmlns="http://www.w3.org/2000/svg">
<path d="M14.7558 8.5C14.7558 12.2333 11.7336 15.2556 8.00025 15.2556C5.86692 15.2556 3.91136 14.2778 2.66692 12.5889H5.86692V11.6111H0.978027V16.5H1.95581V13.3889C3.46692 15.1667 5.60025 16.2333 8.00025 16.2333C12.2669 16.2333 15.7336 12.7667 15.7336 8.5H14.7558Z" fill="black"/>
<path d="M7.99994 1.74444C10.1333 1.74444 12.0888 2.72222 13.3333 4.41111H10.0444V5.38889H14.9333V0.5H13.9555V3.52222C12.4444 1.74444 10.311 0.766667 7.99994 0.766667C3.73327 0.766667 0.266602 4.23333 0.266602 8.5H1.24438C1.24438 4.76667 4.2666 1.74444 7.99994 1.74444Z" fill="black"/>
</svg>
