<svg width="21" height="22" viewBox="0 0 21 22" fill="none" xmlns="http://www.w3.org/2000/svg">
<path d="M0.331055 14.64H6.65653C6.89982 16.72 8.27845 17.72 10.5086 17.72C12.536 17.72 13.793 17 13.793 15.64C13.793 13.8 11.2385 13.56 8.48119 13.08C4.83188 12.48 0.939274 11.52 0.939274 6.64C0.939274 2.28 5.03462 0 9.98147 0C15.942 0 19.1048 2.56 19.4291 6.64H13.2658C13.0226 4.76 11.7656 4.2 9.90037 4.2C8.27845 4.2 6.98092 4.8 6.98092 6.08C6.98092 7.52 9.37325 7.72 12.0089 8.24C15.6987 8.84 20.0374 9.76 20.0374 15.08C20.0374 19.6 15.9826 21.96 10.468 21.96C4.38585 22 0.533794 19.2 0.331055 14.64Z" fill="black"/>
</svg>
