<svg width="23" height="23" viewBox="0 0 23 23" fill="none" xmlns="http://www.w3.org/2000/svg">
<path fill-rule="evenodd" clip-rule="evenodd" d="M6.56841 16.5475C11.1158 21.0949 14.9053 22.8633 17.4316 22.8633C18.4421 22.8633 19.3263 22.6107 20.0842 22.1054L22.4842 19.7054C23.1158 19.0738 23.1158 18.0633 22.4842 17.4317L18.5684 13.5159C17.9368 12.8844 16.9263 12.8844 16.2947 13.5159L14.7789 15.0317C13.2631 14.4001 11.8737 13.5159 10.7368 12.3791C9.59999 11.2423 8.71578 9.85278 8.0842 8.33699L9.72631 6.8212C10.3579 6.18962 10.3579 5.1791 9.72631 4.54752L5.81052 0.631728C5.55788 0.252781 5.05262 0.126465 4.67367 0.126465C4.16841 0.126465 3.78946 0.252781 3.53683 0.631728L1.13683 3.03173C-0.884221 5.05278 0.126305 9.9791 6.56841 16.5475ZM7.57916 15.5368C2.90548 10.8631 0.505478 5.81051 2.14758 4.04209L4.54758 1.64209H4.6739H4.80021L8.58969 5.55788C8.716 5.6842 8.716 5.6842 8.58969 5.81051L6.44232 7.95788L6.69495 8.33683C8.08443 12 10.9897 15.0316 14.7792 16.421L15.1581 16.6737L17.4318 14.2737C17.495 14.2105 17.5265 14.1789 17.5581 14.1789C17.5897 14.1789 17.6213 14.2105 17.6844 14.2737L21.6002 18.1895C21.6634 18.2526 21.695 18.2842 21.695 18.3158C21.695 18.3474 21.6634 18.3789 21.6002 18.4421L19.2002 20.8421L19.0739 20.9684C17.3055 22.6105 12.3792 20.3368 7.57916 15.5368Z" fill="black"/>
</svg>
