<svg width="24" height="21" viewBox="0 0 24 21" fill="none" xmlns="http://www.w3.org/2000/svg">
<path fill-rule="evenodd" clip-rule="evenodd" d="M3.73333 0.333496H17.7333L24 7.9335V13.0002H22.5333C22.5333 14.4668 21.3333 15.5335 20 15.5335V18.2002H18.8C18.8 19.1335 18.4 19.8002 17.7333 20.3335C16.6667 21.1335 15.0667 20.8668 14.2667 19.6668C14.2667 19.6002 14.2333 19.5668 14.2 19.5335C14.1667 19.5002 14.1333 19.4668 14.1333 19.4002C14.1333 19.3335 14.1 19.3002 14.0667 19.2668C14.0333 19.2335 14 19.2002 14 19.1335C14 19.0136 13.9731 18.8938 13.9434 18.7618C13.9071 18.6002 13.8667 18.4204 13.8667 18.2002H6.26667C6.26667 19.6668 5.06667 20.7335 3.73333 20.7335C2.26667 20.7335 1.2 19.5335 1.2 18.2002H0V5.5335H3.73333V0.333496ZM3.7332 19.4C4.39987 19.4 4.9332 18.8667 4.9332 18.2C4.9332 17.5333 4.39987 17 3.7332 17C3.06654 17 2.5332 17.5333 2.5332 18.2C2.5332 18.8667 3.06654 19.4 3.7332 19.4ZM16.4002 19.4C15.7335 19.4 15.2002 18.8667 15.2002 18.2C15.2002 17.5333 15.7335 17 16.4002 17C17.0669 17 17.6002 17.5333 17.6002 18.2C17.6002 18.8667 17.0669 19.4 16.4002 19.4ZM18.6668 16.8667H18.9335V13.6667L13.3335 6.8667H1.3335V16.8667H1.7335C1.86683 16.6 2.1335 16.3334 2.5335 16.0667C2.63535 16.0158 2.71775 15.9648 2.78813 15.9213L2.78814 15.9213C2.90202 15.851 2.98442 15.8 3.06683 15.8H3.20016C3.46683 15.6667 3.60016 15.6667 3.86683 15.6667C4.00016 15.6667 4.10016 15.7 4.20016 15.7334C4.30016 15.7667 4.40016 15.8 4.5335 15.8H4.66683C4.76869 15.851 4.85109 15.8824 4.92147 15.9093C5.03535 15.9528 5.11776 15.9843 5.20016 16.0667C5.46683 16.2 5.7335 16.4667 6.00016 16.8667H14.4002C14.5335 16.6 14.8002 16.3334 15.2002 16.0667H15.3335C15.4354 16.0158 15.5178 15.9648 15.5881 15.9213C15.702 15.851 15.7844 15.8 15.8668 15.8H16.0002C16.4002 15.6667 16.8002 15.6667 17.2002 15.8H17.3335C17.4354 15.851 17.5178 15.8824 17.5881 15.9093C17.702 15.9528 17.7844 15.9843 17.8668 16.0667C18.1335 16.2 18.4002 16.4667 18.6668 16.8667ZM20.2668 14.2003V13.1337L19.4668 12.067C19.7335 11.8003 20.0001 11.667 20.2668 11.667C20.9335 11.667 21.4668 12.2003 21.4668 12.867C21.4668 13.667 20.9335 14.2003 20.2668 14.2003ZM22.4002 11.667H22.6669V8.33366L17.0669 1.66699H5.06689V5.53366H13.8669L18.5336 11.1337C19.0669 10.7337 19.6002 10.467 20.2669 10.467C21.0669 10.467 22.0002 10.867 22.4002 11.667Z" fill="black"/>
</svg>
