<svg width="16" height="24" viewBox="0 0 16 24" fill="none" xmlns="http://www.w3.org/2000/svg">
<path fill-rule="evenodd" clip-rule="evenodd" d="M14 4.53333H14.1333C15.2 4.53333 16 5.33333 16 6.26667V17.6C16 18.6667 15.0667 19.4667 14.1333 19.4667H14L12.6667 24H3.33333L2 19.4667H1.86667C0.8 19.4667 0 18.5333 0 17.6V6.26667C0 5.33333 0.8 4.53333 1.86667 4.53333H2L3.33333 0H12.6667L14 4.53333ZM11.4668 1.4668H4.40013L3.4668 4.40013H12.4001L11.4668 1.4668ZM11.6001 22.5334H4.40013L3.4668 19.6001H12.4001L11.6001 22.5334ZM14.2667 18C14.4 18 14.5333 17.8667 14.5333 17.7333V6.26667C14.5333 6.13333 14.4 6 14.2667 6H1.86667C1.73333 6 1.6 6.13333 1.6 6.26667V17.7333C1.6 17.8667 1.73333 18 1.86667 18H14.2667Z" fill="black"/>
</svg>
