<svg width="19" height="23" viewBox="0 0 19 23" fill="none" xmlns="http://www.w3.org/2000/svg">
<path fill-rule="evenodd" clip-rule="evenodd" d="M18.4421 9.22105C18.4421 4.16842 14.2737 0 9.22105 0C4.16842 0 0 4.16842 0 9.22105V9.47368L3.53684 14.0211V19.5789L9.22105 22.8632L14.9053 19.5789V13.8947L18.4421 9.6V9.22105ZM9.22115 1.38965C12.379 1.38965 15.0317 3.28439 16.2948 5.93702C15.9159 5.68439 15.4106 5.68439 14.9054 5.68439C13.7685 5.68439 12.758 6.18965 12.1264 7.07386C11.4948 6.18965 10.358 5.68439 9.22115 5.68439C8.0843 5.68439 7.07378 6.18965 6.4422 7.07386C5.81062 6.18965 4.67378 5.68439 3.53693 5.68439C3.03167 5.68439 2.52641 5.8107 2.14746 5.93702C3.41062 3.28439 6.06325 1.38965 9.22115 1.38965ZM5.05273 18.6949L8.58958 20.716V16.6739L5.05273 14.6528V18.6949ZM5.68408 13.3897L9.22092 11.3687L10.3578 12.0002L6.82092 14.0213L5.68408 13.3897ZM11.6208 12.6313L8.08398 14.6524L9.34714 15.284L12.884 13.2629L11.6208 12.6313ZM13.5158 18.5684L9.97895 20.5895V16.5474L13.5158 14.5263V18.5684ZM9.22123 9.72636L14.1475 12.5053L17.0528 8.96847C16.9265 7.95794 16.0423 7.07373 14.9054 7.07373C13.7686 7.07373 12.7581 8.08426 12.7581 9.2211H11.3686C11.3686 8.08426 10.3581 7.07373 9.22123 7.07373C8.08439 7.07373 7.07386 8.08426 7.07386 9.2211H5.68439C5.68439 8.08426 4.67386 7.07373 3.53702 7.07373C2.40017 7.07373 1.51596 7.95794 1.38965 8.96847L4.29491 12.6316L9.22123 9.72636Z" fill="black"/>
</svg>
