<svg width="14" height="23" viewBox="0 0 14 23" fill="none" xmlns="http://www.w3.org/2000/svg">
<path fill-rule="evenodd" clip-rule="evenodd" d="M10.7893 5.1791H9.6525V2.0212C9.6525 1.01068 8.76829 0.126465 7.75777 0.126465H6.24198C5.23145 0.126465 4.34724 1.01068 4.34724 2.0212V5.1791H3.2104C1.82092 5.1791 0.684082 6.31594 0.684082 7.70541V22.8633H2.07356V21.3475C2.4525 21.4738 2.83145 21.6001 3.2104 21.6001H10.7893C11.1683 21.6001 11.5472 21.4738 11.9262 21.3475V22.8633H13.3157V7.70541C13.3157 6.31594 12.1788 5.1791 10.7893 5.1791ZM5.86279 2.02104C5.86279 1.76841 6.11542 1.64209 6.24174 1.64209H7.75753C8.01016 1.64209 8.13648 1.89472 8.13648 2.02104V5.17893H5.86279V2.02104ZM3.21057 20.2105H10.7895C11.4211 20.2105 11.9264 19.7052 11.9264 19.0736V7.7052C11.9264 7.07362 11.4211 6.56836 10.7895 6.56836H9.52636V11.621H8.13689V6.56836H5.73689V11.621H4.34741V6.56836H3.21057C2.57899 6.56836 2.07373 7.07362 2.07373 7.7052V19.0736C2.07373 19.7052 2.57899 20.2105 3.21057 20.2105Z" fill="black"/>
</svg>
