<svg width="23" height="20" viewBox="0 0 23 20" fill="none" xmlns="http://www.w3.org/2000/svg">
<path fill-rule="evenodd" clip-rule="evenodd" d="M11.3708 2.4C12.5716 0.90381 14.3788 0.0233642 16.2971 0C19.8493 0.0138486 22.7254 2.88998 22.7392 6.44211C22.6682 8.28536 21.8468 10.0195 20.4656 11.2421L11.3708 19.9579L1.89713 10.9895C0.643712 9.81481 -0.0461087 8.15924 0.00239615 6.44211C0.0162448 2.88998 2.89238 0.0138486 6.4445 0C8.36281 0.0233642 10.17 0.90381 11.3708 2.4ZM21.3499 6.44228C21.3499 3.65179 19.0877 1.38965 16.2973 1.38965C14.7815 1.38965 12.7604 2.77912 11.4973 4.42123L11.3709 4.54754L11.2446 4.42123C10.1587 2.76367 8.40795 1.65791 6.44462 1.38965C3.65413 1.38965 1.39199 3.65179 1.39199 6.44228C1.33266 7.79047 1.89059 9.0923 2.90778 9.97912L11.3709 17.937L19.4551 10.2318C20.5713 9.27534 21.2545 7.90907 21.3499 6.44228Z" fill="black"/>
</svg>
