<svg width="23" height="17" viewBox="0 0 23 17" fill="none" xmlns="http://www.w3.org/2000/svg">
<path fill-rule="evenodd" clip-rule="evenodd" d="M20.463 0.67372C21.4735 0.926352 22.2314 1.68425 22.484 2.69477C22.9893 4.58951 22.9893 8.25267 22.9893 8.25267C22.9893 8.25267 22.9893 11.9158 22.484 13.8106C22.2314 14.8211 21.4735 15.579 20.463 15.8316C18.6945 16.3369 11.6209 16.3369 11.6209 16.3369C11.6209 16.3369 4.54718 16.3369 2.77876 15.8316C1.76823 15.579 1.01034 14.6948 0.757705 13.8106C0.252441 11.9158 0.252441 8.25267 0.252441 8.25267C0.252441 8.25267 0.252441 4.58951 0.757705 2.69477C1.01034 1.81056 1.76823 0.926352 2.77876 0.67372C4.54718 0.168457 11.6209 0.168457 11.6209 0.168457C11.6209 0.168457 18.6945 0.168457 20.463 0.67372ZM15.284 8.25281L9.34717 4.84229V11.6633L15.284 8.25281Z" fill="black"/>
</svg>
