<svg width="23" height="23" viewBox="0 0 23 23" fill="none" xmlns="http://www.w3.org/2000/svg">
<path fill-rule="evenodd" clip-rule="evenodd" d="M22.8632 11.4947C22.8632 5.17895 17.6842 0.126316 11.4947 0.126316C5.17895 0.126316 0.126316 5.17895 0.126316 11.4947C0.126316 17.8105 5.17895 22.8632 11.4947 22.8632V21.4737C7.70526 21.4737 4.42105 19.3263 2.65263 16.1684L5.55789 15.6632L4.67368 9.97895L1.64211 10.4842C2.14737 5.43158 6.44211 1.51579 11.4947 1.51579C16.6737 1.51579 20.8421 5.43158 21.3474 10.4842L18.3158 9.97895L17.3053 15.6632L21.8526 16.4211L22.8632 11.4947ZM3.53684 11.6211L4.04211 14.4L2.27368 14.6526L1.76842 12L3.53684 11.6211ZM19.0737 14.5263L20.8421 14.7789L21.3474 12L19.5789 11.7474L19.0737 14.5263Z" fill="black"/>
</svg>
