<svg width="24" height="24" viewBox="0 0 24 24" fill="none" xmlns="http://www.w3.org/2000/svg">
<path fill-rule="evenodd" clip-rule="evenodd" d="M16.8 12V21.2L19.4667 18.4L20.5333 19.4667L16 24L11.4667 19.4667L12.5333 18.4L15.3333 21.2V15.4667C14.4 16.2667 13.2 16.8 12 16.8H2.8L5.6 19.6L4.53333 20.6667L0 16.1333L4.53333 11.6L5.6 12.5333L2.8 15.3333H8.53333C7.73333 14.4 7.2 13.2 7.2 12V2.8L4.4 5.6L3.33333 4.53333L7.86667 0L12.5333 4.53333L11.4667 5.6L8.66667 2.8V8.53333C9.6 7.73333 10.8 7.2 12 7.2H21.2L18.4 4.4L19.4667 3.33333L24 7.86667L19.4667 12.5333L18.4 11.4667L21.2 8.66667H15.4667C16.2667 9.6 16.8 10.8 16.8 12ZM8.6665 11.9998C8.6665 13.8665 10.1332 15.3332 11.9998 15.3332C13.8665 15.3332 15.3332 13.8665 15.3332 11.9998C15.3332 10.1332 13.8665 8.6665 11.9998 8.6665C10.1332 8.6665 8.6665 10.1332 8.6665 11.9998Z" fill="black"/>
</svg>
