<svg width="24" height="24" viewBox="0 0 24 24" fill="none" xmlns="http://www.w3.org/2000/svg">
<path fill-rule="evenodd" clip-rule="evenodd" d="M16.5002 6.44L22.8869 0.0533333L23.9469 1.112L1.10688 23.952L0.046875 22.892L5.58021 17.3587C4.90021 16.2307 4.50021 14.9133 4.50021 13.5H6.00021C6.00021 14.4933 6.26954 15.4133 6.70554 16.2347L7.82021 15.12C7.61754 14.6173 7.50021 14.0733 7.50021 13.5V4.5C7.50021 2.02533 9.52554 0 12.0002 0C14.4749 0 16.5002 2.02533 16.5002 4.5V6.44ZM9 4.5V13.5C9 13.6387 9.016 13.772 9.036 13.904L15 7.94V4.5C15 2.84533 13.6547 1.5 12 1.5C10.3453 1.5 9 2.84533 9 4.5Z" fill="black"/>
</svg>
