<svg width="24" height="23" viewBox="0 0 24 23" fill="none" xmlns="http://www.w3.org/2000/svg">
<path fill-rule="evenodd" clip-rule="evenodd" d="M16.4 14.8C17.4667 14.4 18.8 14.5333 19.7333 15.2H24V19.8667H21.6C21.2 21.3333 20.1333 22.4 18.6667 22.8C16.5333 23.3333 14.1333 22.1333 13.6 19.8667H10.1333C9.73333 21.3333 8.66667 22.4 7.2 22.8C4.93333 23.3333 2.66667 22.1333 2.13333 19.8667H0V13.2L1.6 8.13333C1.86667 7.2 2.66667 6.53333 3.73333 6.53333H8.8V15.2H11.7333V12.5333L8.53333 4.13333L12.6667 1.06667L16.8 0L21.8667 1.6L23.7333 6.53333L20.9333 10.9333L17.0667 12.8H16.4V14.8ZM1.4668 18.3998H2.00013C2.2668 16.2665 4.00013 14.6665 6.13346 14.6665C6.53346 14.6665 6.93346 14.6665 7.33346 14.7998V8.13312H3.73346C3.33346 7.99979 3.0668 8.26645 2.93346 8.53312L1.4668 13.4665V18.3998ZM6.13346 21.4666C4.6668 21.4666 3.4668 20.2666 3.4668 18.8C3.4668 17.3333 4.6668 16.1333 6.13346 16.1333C7.60013 16.1333 8.80013 17.3333 8.80013 18.8C8.80013 20.2666 7.60013 21.4666 6.13346 21.4666ZM13.3333 2.53333L10.4 4.66667L11.7333 8.53333C12 7.6 12.9333 6.93333 13.8667 6.8H14.1333C15.4667 6.8 16.4 7.86667 16.4 9.06667V11.3333H16.6667L19.8667 9.73333L22 6.26667L20.6667 2.66667L16.8 1.6L13.3333 2.53333ZM13.4667 18.3998H10.2667C10.2667 17.8665 10.0001 17.3331 9.7334 16.7998H13.8667C13.8391 16.8828 13.8056 16.9716 13.77 17.0662L13.7699 17.0664L13.7699 17.0665C13.6341 17.4272 13.4667 17.8717 13.4667 18.3998ZM13.2002 15.1999H14.8002V9.06657C14.8002 8.66657 14.5335 8.3999 14.1335 8.3999H13.8669C13.4669 8.3999 13.2002 8.66657 13.2002 9.06657V15.1999ZM17.5998 21.4666C16.1331 21.4666 14.9331 20.2666 14.9331 18.8C14.9331 17.3333 16.1331 16.1333 17.5998 16.1333C19.0664 16.1333 20.2664 17.3333 20.2664 18.8C20.2664 20.2666 19.0664 21.4666 17.5998 21.4666ZM21.7335 18.3998H22.5335V16.7998H21.2002C21.4669 17.3331 21.7335 17.8665 21.7335 18.3998Z" fill="black"/>
</svg>
