<svg width="24" height="23" viewBox="0 0 24 23" fill="none" xmlns="http://www.w3.org/2000/svg">
<path fill-rule="evenodd" clip-rule="evenodd" d="M23.701 11.4947C23.701 5.17894 18.522 0.126312 12.3325 0.126312C6.01674 0.126312 0.964111 5.17894 0.964111 11.4947C0.964111 17.8105 6.01674 22.8632 12.3325 22.8632V21.4737C8.54306 21.4737 5.25885 19.3263 3.49043 16.1684L6.39569 15.6632L5.51148 9.97894L2.4799 10.4842C2.98516 5.43158 7.2799 1.51579 12.3325 1.51579C17.5115 1.51579 21.6799 5.43158 22.1852 10.4842L19.1536 9.97894L18.1431 15.6632L22.6904 16.421L23.701 11.4947ZM4.37464 11.621L4.8799 14.4L3.11148 14.6526L2.60622 12L4.37464 11.621ZM19.9115 14.5263L21.6799 14.7789L22.1852 12L20.4167 11.7474L19.9115 14.5263Z" fill="black"/>
</svg>
