<svg width="24" height="24" viewBox="0 0 24 24" fill="none" xmlns="http://www.w3.org/2000/svg">
<path fill-rule="evenodd" clip-rule="evenodd" d="M12.6665 16.6667V10.2667C12.7332 10.2667 12.7998 10.2333 12.8665 10.2C12.9332 10.1667 12.9998 10.1333 13.0665 10.1333L18.1332 13.8667L19.0665 12.6667L13.9998 8.8C14.1332 8.53333 14.1332 8.4 14.1332 8.13333C14.1332 7.2 13.5998 6.4 12.6665 6V0H11.1998V6.13333C10.2665 6.4 9.73317 7.2 9.73317 8.13333C9.73317 8.4 9.73317 8.66667 9.8665 8.8L4.93317 12.6667L5.8665 13.8667L10.7998 10.1333C10.9332 10.2667 11.0665 10.2667 11.1998 10.2667V16.6667C4.79984 16.8 0.666504 19.4667 0.666504 23.2V24H23.1998V23.2C23.1998 19.4667 18.9332 16.8 12.6665 16.6667ZM11.1997 8.13346C11.1997 7.73346 11.4664 7.4668 11.8664 7.4668C12.2664 7.4668 12.6664 7.73346 12.6664 8.13346C12.6664 8.53346 12.3997 8.80013 11.9997 8.80013C11.4664 8.93346 11.1997 8.53346 11.1997 8.13346ZM11.9998 18.1333C5.8665 18.1333 2.79984 20.2667 2.2665 22.5333H21.7332C21.1998 20.2667 18.1332 18.1333 11.9998 18.1333Z" fill="black"/>
</svg>
