<svg width="24" height="19" viewBox="0 0 24 19" fill="none" xmlns="http://www.w3.org/2000/svg">
<path fill-rule="evenodd" clip-rule="evenodd" d="M22.208 8.54916C21.9227 6.88249 20.4973 5.66649 18.8307 5.66649H16.084V4.33316C16.084 2.08249 14.252 0.250488 12.0013 0.250488C9.75067 0.250488 7.91733 2.08249 7.91733 4.33316V5.66649H5.17067C3.504 5.66649 2.07867 6.88249 1.79333 8.54916L0 18.9998H24L22.208 8.54916ZM9.41602 4.33302C9.41602 2.90902 10.5747 1.74902 12 1.74902C13.4253 1.74902 14.584 2.90769 14.584 4.33302V5.66636H9.41602V4.33302ZM5.16948 7.1665C4.23214 7.1665 3.43348 7.8545 3.27081 8.8025L1.77881 17.4998H22.2201L20.7295 8.8025C20.5668 7.8545 19.7681 7.1665 18.8295 7.1665H16.0828V12.1385H14.5828V7.1665H9.41614V12.1385H7.91614V7.1665H5.16948Z" fill="black"/>
</svg>
