<svg width="16" height="24" viewBox="0 0 16 24" fill="none" xmlns="http://www.w3.org/2000/svg">
<path fill-rule="evenodd" clip-rule="evenodd" d="M0.00650667 0V11.9486L0 12.6881L0.00650667 12.6883V24H15.0065V0H0.00650667ZM1.50635 1.5H13.5063V3.75H1.50635V1.5ZM1.50635 22.5H13.5063V20.25H9.00635V21.75H6.00635V20.25H1.50635V22.5ZM1.50635 18.75V12.7027L5.95427 12.746L4.04932 14.5397L4.95427 15.5007L8.6294 12.0399L5.02197 8.50831L4.0988 9.45149L5.94384 11.2578L1.50635 11.2148V5.25H13.5063V7.51676C11.3688 7.90828 9.81621 9.77108 9.81621 11.9442C9.81621 14.1173 11.3688 15.9801 13.5063 16.3716V18.75H1.50635ZM11.1362 11.9442C11.1362 13.3875 12.1103 14.6491 13.5067 15.0143V8.87402C12.1103 9.23924 11.1362 10.5008 11.1362 11.9442Z" fill="black"/>
</svg>
