<svg width="12" height="12" viewBox="0 0 12 12" fill="none" xmlns="http://www.w3.org/2000/svg">
<path fill-rule="evenodd" clip-rule="evenodd" d="M8.14201 7.32631L11.9315 11.1158L11.4388 11.6337L7.64938 7.84421C6.12341 9.14223 3.90016 9.20469 2.30373 7.99439C0.707298 6.78409 0.167081 4.62656 1.00482 2.80678C1.84255 0.986989 3.83291 -0.00558609 5.79049 0.420198C7.74808 0.845982 9.14635 2.5756 9.15253 4.57894C9.15494 5.58609 8.79644 6.56076 8.14201 7.32631ZM1.60998 5.93199C2.15998 7.26147 3.45694 8.1285 4.8957 8.1285C5.83817 8.13017 6.74262 7.75695 7.40964 7.09112C8.07666 6.42528 8.45149 5.5215 8.45149 4.57902C8.45405 3.14027 7.58933 1.84176 6.26083 1.2894C4.93232 0.737044 3.40188 1.0397 2.38362 2.05615C1.36536 3.0726 1.05998 4.6025 1.60998 5.93199Z" fill="black"/>
</svg>
