<svg width="24" height="20" viewBox="0 0 24 20" fill="none" xmlns="http://www.w3.org/2000/svg">
<path fill-rule="evenodd" clip-rule="evenodd" d="M24 5.89323V4.44108L23.9915 4.44287C23.9963 4.29683 23.9678 4.15163 23.9082 4.01823L22.2148 0H1.70964L0.0807333 4.04232C0.0293722 4.16969 0.00627143 4.30669 0.0130267 4.44385L0 4.44108V5.89323C0.00312304 6.94509 0.564914 7.91608 1.47527 8.44304V19.151H22.457V8.47965C23.4048 7.96366 23.9962 6.97233 24 5.89323ZM18.0389 5.39307V5.89323C18.0405 6.43706 17.7513 6.94027 17.2806 7.21265C16.8099 7.48504 16.2295 7.48504 15.7588 7.21265C15.2881 6.94027 14.9989 6.43706 15.0005 5.89323V5.39307H18.0389ZM13.5286 5.89323V5.39307H10.4902V5.89323C10.4902 6.73226 11.1704 7.41243 12.0094 7.41243C12.8485 7.41243 13.5286 6.73226 13.5286 5.89323ZM8.99594 5.39307V5.89323C8.99755 6.43706 8.70834 6.94027 8.23764 7.21265C7.76693 7.48504 7.18653 7.48504 6.71583 7.21265C6.24512 6.94027 5.95591 6.43706 5.95753 5.89323V5.39307H8.99594ZM21.257 1.44189H2.68344L1.67236 3.95004H22.3143L21.257 1.44189ZM1.44727 5.39307H4.48568V5.89323C4.48729 6.43706 4.19808 6.94027 3.72738 7.21265C3.25667 7.48504 2.67627 7.48504 2.20557 7.21265C1.73486 6.94027 1.44566 6.43706 1.44727 5.89323V5.39307ZM15.9779 11.7559V17.709H18.1186V11.7559H15.9779ZM19.5607 17.7088V10.3138H14.536V17.7088H2.91748V8.85483C2.9258 8.85491 2.93381 8.85613 2.94181 8.85735H2.94182C2.95009 8.85861 2.95836 8.85987 2.96696 8.85987C3.83874 8.85655 4.66438 8.46769 5.22216 7.79769C5.77969 8.47264 6.61023 8.86237 7.48566 8.85985C8.36109 8.85733 9.18937 8.46282 9.743 7.78467C10.2969 8.46278 11.1253 8.85727 12.0009 8.85985C12.8765 8.86243 13.7072 8.47284 14.2651 7.798C14.8212 8.47085 15.6486 8.86025 16.5215 8.85984C17.3944 8.85944 18.2214 8.46926 18.7769 7.79589C19.3307 8.4615 20.1493 8.84988 21.0151 8.85789V17.7088L19.5607 17.7088ZM21.7943 7.21265C22.265 6.94027 22.5542 6.43706 22.5526 5.89323V5.39307H19.5142V5.89323C19.5126 6.43706 19.8018 6.94027 20.2725 7.21265C20.7432 7.48504 21.3236 7.48504 21.7943 7.21265Z" fill="black"/>
</svg>
