<svg width="23" height="23" viewBox="0 0 23 23" fill="none" xmlns="http://www.w3.org/2000/svg">
<path fill-rule="evenodd" clip-rule="evenodd" d="M11.621 0.252441C5.30526 0.252441 0.252625 5.30507 0.252625 11.6209C0.252625 17.9367 5.30526 22.9893 11.621 22.9893C17.9368 22.9893 22.9895 17.9367 22.9895 11.6209C22.9895 5.30507 17.9368 0.252441 11.621 0.252441ZM1.64209 11.621C1.64209 6.18946 6.06314 1.64209 11.621 1.64209C14.1474 1.64209 16.421 2.5263 18.0631 4.04209L4.16841 18.1895C2.65262 16.421 1.64209 14.1474 1.64209 11.621ZM5.17894 19.1998C6.82105 20.7156 9.09473 21.5998 11.621 21.5998C17.1789 21.5998 21.6 17.1788 21.6 11.6209C21.6 9.22086 20.7158 6.94718 19.2 5.17876L5.17894 19.1998Z" fill="black"/>
</svg>
