<svg width="12" height="13" viewBox="0 0 12 13" fill="none" xmlns="http://www.w3.org/2000/svg">
<path fill-rule="evenodd" clip-rule="evenodd" d="M8.14105 7.82634L11.9305 11.6158L11.4379 12.1337L7.64842 8.34424C6.12246 9.64226 3.89921 9.70472 2.30278 8.49442C0.706344 7.28412 0.166128 5.1266 1.00386 3.30681C1.8416 1.48702 3.83196 0.494444 5.78954 0.920228C7.74713 1.34601 9.14539 3.07563 9.15158 5.07897C9.15399 6.08612 8.79548 7.06079 8.14105 7.82634ZM1.60903 6.43202C2.15902 7.7615 3.45599 8.62853 4.89475 8.62853C5.83722 8.63021 6.74167 8.25698 7.40869 7.59115C8.07571 6.92531 8.45054 6.02153 8.45054 5.07905C8.45309 3.6403 7.58838 2.34179 6.25987 1.78943C4.93137 1.23707 3.40093 1.53973 2.38267 2.55618C1.36441 3.57263 1.05903 5.10253 1.60903 6.43202Z" fill="#747676"/>
</svg>
