<svg width="8" height="9" viewBox="0 0 8 9" fill="none" xmlns="http://www.w3.org/2000/svg">
<path fill-rule="evenodd" clip-rule="evenodd" d="M5.42735 5.38423L7.95367 7.91054L7.62525 8.25581L5.09893 5.72949C4.08162 6.59484 2.59946 6.63648 1.53517 5.82961C0.470881 5.02274 0.110736 3.5844 0.669227 2.37121C1.22772 1.15801 2.55462 0.496296 3.85968 0.780152C5.16474 1.06401 6.09691 2.21709 6.10104 3.55265C6.10264 4.22408 5.86364 4.87386 5.42735 5.38423ZM1.07267 4.45468C1.43933 5.341 2.30398 5.91902 3.26315 5.91902C3.89147 5.92014 4.49443 5.67132 4.93911 5.22743C5.38379 4.78354 5.63368 4.18102 5.63368 3.5527C5.63538 2.59353 5.0589 1.72786 4.17323 1.35962C3.28756 0.991383 2.26727 1.19315 1.58843 1.87079C0.90959 2.54842 0.706005 3.56836 1.07267 4.45468Z" fill="black"/>
</svg>
