<svg width="12" height="13" viewBox="0 0 12 13" fill="none" xmlns="http://www.w3.org/2000/svg">
<path fill-rule="evenodd" clip-rule="evenodd" d="M8.14102 7.82634L11.9305 11.6158L11.4379 12.1337L7.64839 8.34424C6.12243 9.64226 3.89918 9.70472 2.30275 8.49442C0.706314 7.28412 0.166097 5.1266 1.00383 3.30681C1.84157 1.48702 3.83193 0.494444 5.78951 0.920228C7.7471 1.34601 9.14536 3.07563 9.15155 5.07897C9.15395 6.08612 8.79545 7.06079 8.14102 7.82634ZM1.609 6.43202C2.15899 7.7615 3.45596 8.62853 4.89472 8.62853C5.83719 8.63021 6.74164 8.25698 7.40866 7.59115C8.07568 6.92531 8.45051 6.02153 8.45051 5.07905C8.45306 3.6403 7.58834 2.34179 6.25984 1.78943C4.93134 1.23707 3.4009 1.53973 2.38264 2.55618C1.36438 3.57263 1.059 5.10253 1.609 6.43202Z" fill="black"/>
</svg>
