<svg width="17" height="24" viewBox="0 0 17 24" fill="none" xmlns="http://www.w3.org/2000/svg">
<path fill-rule="evenodd" clip-rule="evenodd" d="M0.77812 12.8467C2.33133 9.59765 7.96383 0 7.96383 0C7.96383 0 8.37915 0.694453 9.01381 1.76555C10.445 4.2054 9.9417 5.99358 9.53921 7.42356C9.42995 7.81172 9.32813 8.17348 9.27444 8.51472L9.266 8.56605C9.24483 8.70273 9.23325 8.84073 9.23133 8.97903C9.14156 10.0881 9.95822 11.0641 11.0658 11.1714C12.1733 11.0641 12.9899 10.0881 12.9002 8.97899C12.8992 8.71591 12.8569 8.45463 12.7751 8.20461C13.9411 10.2407 14.9754 12.1032 15.4012 13.0203C16.3381 15.1962 16.2656 17.675 15.2032 19.7925C14.1407 21.9099 12.1969 23.4498 9.89249 23.9994C10.1689 23.4073 10.3094 22.7609 10.3036 22.1074C10.3036 20.2811 9.28452 18.8007 8.0278 18.8007C6.77085 18.8007 5.7518 20.2811 5.7518 22.1074C5.74604 22.7611 5.88666 23.4078 6.16336 24C2.55077 23.1392 0.00108526 19.9117 0 16.1979C0.041308 15.0412 0.305514 13.9033 0.77812 12.8467ZM8.10662 7.0202C8.64131 5.70653 8.59006 4.22713 7.96575 2.95361L7.96573 2.95364C6.21562 5.97436 3.17578 11.2807 2.12039 13.4883C1.74477 14.3449 1.53033 15.2634 1.48782 16.1978C1.48162 18.3376 2.52804 20.3437 4.28649 21.563C4.49227 19.1397 6.06165 17.3125 8.02758 17.3125C9.99305 17.3125 11.562 19.1392 11.7684 21.5619C14.3083 19.7888 15.2576 16.4782 14.0431 13.6286C13.9008 13.3243 13.6317 12.7927 13.1251 11.865C12.5587 12.3726 11.8261 12.6551 11.0656 12.6592C9.13517 12.5533 7.65162 10.91 7.7431 8.97881C7.74513 8.77061 7.76166 8.5628 7.79255 8.35689L7.79466 8.34148L7.79725 8.32613L7.80451 8.28324H7.80427C7.88022 7.85667 7.98118 7.43493 8.10662 7.0202Z" fill="black"/>
</svg>
