<svg width="9" height="9" viewBox="0 0 9 9" fill="none" xmlns="http://www.w3.org/2000/svg">
<path fill-rule="evenodd" clip-rule="evenodd" d="M4.68569 0.770328L7.83951 3.92415C8.19995 4.28459 8.19995 4.82525 7.83951 5.18569L4.68569 8.33951C4.50547 8.51973 4.28019 8.60984 4.05492 8.60984C3.82965 8.60984 3.60437 8.51973 3.42416 8.33951L0.270328 5.18569C-0.0901093 4.82525 -0.0901093 4.28459 0.270328 3.92415L3.42416 0.770328C3.60437 0.590109 3.82965 0.5 4.05492 0.5C4.28019 0.5 4.50547 0.590109 4.68569 0.770328ZM4.32525 7.97895L7.47908 4.82512C7.56919 4.73501 7.61424 4.6449 7.61424 4.55479C7.61424 4.46468 7.56919 4.37458 7.43402 4.28447L4.28019 1.13064C4.19008 1.08558 4.09998 1.04053 4.00987 1.04053C3.91976 1.04053 3.82965 1.04053 3.73954 1.13064L0.585711 4.28447C0.540656 4.37458 0.495602 4.46468 0.495602 4.55479C0.495602 4.6449 0.540656 4.73501 0.630766 4.82512L3.78459 7.97895C3.8747 8.06906 3.96481 8.06906 4.05492 8.06906C4.14503 8.06906 4.23514 8.06906 4.32525 7.97895Z" fill="black"/>
</svg>
