<svg width="16" height="23" viewBox="0 0 16 23" fill="none" xmlns="http://www.w3.org/2000/svg">
<path fill-rule="evenodd" clip-rule="evenodd" d="M7.62094 0.126465C7.62094 0.126465 13.4315 9.85278 14.5683 12.3791C14.9473 13.2633 15.0736 14.2738 15.1999 15.4107C15.1999 19.5791 11.7894 22.9896 7.62094 22.9896C3.45252 22.9896 0.0419922 19.5791 0.0419922 15.4107C0.168308 14.2738 0.294624 13.2633 0.799887 12.2528C2.31568 9.09489 7.62094 0.126465 7.62094 0.126465ZM7.62078 21.4738C8.37867 21.4738 9.26288 21.3475 10.0208 20.9686C13.1787 19.5791 14.5681 16.0423 13.305 13.0107C12.6845 11.6664 10.4556 7.86705 8.69736 4.86997C8.30787 4.20606 7.94148 3.58151 7.62078 3.03174C5.97867 5.81069 3.19972 10.8633 2.1892 12.8844C1.81025 13.6423 1.55762 14.5265 1.55762 15.4107C1.55762 18.6949 4.21025 21.4738 7.62078 21.4738Z" fill="black"/>
</svg>
