<svg width="14" height="13" viewBox="0 0 14 13" fill="none" xmlns="http://www.w3.org/2000/svg">
<path fill-rule="evenodd" clip-rule="evenodd" d="M8.08502 0.905492L13.0786 5.63623C13.6493 6.17689 13.6493 6.98787 13.0786 7.52853L8.08502 12.2593C7.79967 12.5296 7.44299 12.6648 7.08631 12.6648C6.72962 12.6648 6.37294 12.5296 6.0876 12.2593L1.09404 7.52853C0.523342 6.98787 0.523342 6.17689 1.09404 5.63623L6.0876 0.905492C6.37294 0.635164 6.72962 0.5 7.08631 0.5C7.44299 0.5 7.79967 0.635164 8.08502 0.905492ZM7.51433 11.7184L12.5079 6.98768C12.6506 6.85252 12.7219 6.71736 12.7219 6.58219C12.7219 6.44703 12.6506 6.31186 12.4365 6.1767L7.44299 1.44596C7.30032 1.37838 7.15764 1.31079 7.01497 1.31079C6.8723 1.31079 6.72962 1.31079 6.58695 1.44596L1.59339 6.1767C1.52205 6.31186 1.45072 6.44703 1.45072 6.58219C1.45072 6.71736 1.52205 6.85252 1.66473 6.98768L6.65829 11.7184C6.80096 11.8536 6.94363 11.8536 7.08631 11.8536C7.22898 11.8536 7.37165 11.8536 7.51433 11.7184Z" fill="black"/>
</svg>
