<svg width="22" height="22" viewBox="0 0 22 22" fill="none" xmlns="http://www.w3.org/2000/svg">
<path fill-rule="evenodd" clip-rule="evenodd" d="M8.46404 9.04001C4.12541 9.60001 0.435547 11 0.435547 15.56C0.435547 19.64 3.43609 21.88 7.53144 21.84C10.6942 21.84 12.5594 20.72 13.7758 19H13.8569C14.0191 20.08 14.2218 20.88 14.5462 21.32H21.0339V21.04C20.4662 20.68 20.304 19.72 20.304 18.08V7.64001C20.304 5.04001 19.412 3.00001 17.6279 1.72001C16.0871 0.600008 13.9786 0.0400085 10.8158 0.0400085C4.49034 0.0400085 1.48979 3.32001 1.3276 7.16001H7.49089C7.69363 5.40001 8.74788 4.48001 10.8969 4.48001C12.9243 4.48001 13.7758 5.40001 13.7758 6.72001C13.7758 8.16001 12.3972 8.56001 8.46404 9.04001ZM13.9786 11.48V13.96C13.9786 16.16 12.235 17.68 9.76157 17.68C8.09911 17.68 6.88267 17 6.88267 15.36C6.88267 13.76 7.93692 13.12 10.532 12.56C11.8701 12.24 13.1271 11.92 13.9786 11.48Z" fill="black"/>
</svg>
