<svg width="33" height="40" viewBox="0 0 33 40" fill="none" xmlns="http://www.w3.org/2000/svg">
<g filter="url('#filter0_d_1_10915')">
<path d="M8.10832 18.3289C7.68958 18.5848 7.19732 18.7324 6.67059 18.7324C5.14593 18.7324 3.91002 17.4964 3.91002 15.9718L3.91002 11.7464C3.91002 11.5338 3.93456 11.3216 3.98339 11.1141L8.10832 18.3289ZM8.10832 18.3289C8.57329 19.1977 9.48953 19.7887 10.5438 19.7887C11.136 19.7887 11.6846 19.6023 12.1341 19.2849C12.631 20.0141 13.4681 20.4929 14.4171 20.4929C14.813 20.4929 15.1894 20.4096 15.5298 20.2595V24.7746C15.5298 26.2992 16.7657 27.5352 18.2904 27.5352C19.815 27.5352 21.0509 26.2992 21.0509 24.7746V15.5862C21.9996 16.4167 23.4288 16.5124 24.4914 15.7395L24.4915 15.7395C25.7244 14.8428 25.997 13.1163 25.1003 11.8833L24.2928 12.4706L25.1003 11.8833L19.4666 4.13679L19.4666 4.13674C19.2105 3.78462 18.8747 3.49807 18.4867 3.3005C18.0987 3.10292 17.6695 2.99992 17.2341 2.99991H17.234L8.07905 2.99991C6.79804 2.99991 5.68525 3.88118 5.39185 5.12818C5.39185 5.12819 5.39184 5.12819 5.39184 5.1282L3.98342 11.114L8.10832 18.3289Z" fill="#FF00FF" stroke="white" stroke-width="2"></path>
<path d="M16.7008 34.6968L16.7008 34.6973C16.7013 35.7582 17.5611 36.6177 18.6216 36.6185L18.6225 36.6185C19.6838 36.6183 20.5439 35.7582 20.5441 34.697L20.5441 34.6968L20.5441 31.8011L20.5441 31.8008C20.5439 31.2709 20.3279 30.789 19.9812 30.4423C19.6343 30.0953 19.1526 29.8799 18.6233 29.8795L18.6223 29.8795C17.5613 29.8796 16.701 30.7398 16.7009 31.8009L16.7009 31.801L16.7008 34.6968Z" fill="#FF00FF" stroke="white" stroke-width="2"></path>
<path d="M24.6259 28.0933L24.6258 28.0931C23.8755 27.3432 22.6589 27.3427 21.9084 28.0932C21.1579 28.8438 21.1584 30.0604 21.9086 30.8106L23.9562 32.8582C24.7062 33.6083 25.9229 33.6091 26.6736 32.8584C27.424 32.108 27.4239 30.8912 26.6735 30.1409L24.6259 28.0933Z" fill="#FF00FF" stroke="white" stroke-width="2"></path>
<path d="M24.8912 28.0531L24.891 28.0531C23.8302 28.0529 22.9698 27.1931 22.9698 26.1318L24.8912 28.0531ZM24.8912 28.0531L27.7869 28.0531M24.8912 28.0531L27.7869 28.0531M27.7869 28.0531C27.7869 28.0531 27.787 28.0531 27.7871 28.0531M27.7869 28.0531L27.7871 28.0531M27.7871 28.0531C27.7871 28.0531 27.7872 28.0531 27.7873 28.0531M27.7871 28.0531H27.7873M27.7873 28.0531C28.8487 28.0533 29.7088 27.1928 29.7087 26.1317L27.7873 28.0531ZM29.7087 26.1315C29.7087 25.6014 29.4928 25.1198 29.1459 24.773C28.7992 24.4262 28.3174 24.2103 27.7873 24.2103L24.8914 24.2102C23.8302 24.21 22.9698 25.0704 22.9698 26.1315L29.7087 26.1315Z" fill="#FF00FF" stroke="white" stroke-width="2"></path>
<path d="M15.1903 28.5862C14.44 27.8359 13.2232 27.836 12.4728 28.5863L10.425 30.6341C9.67478 31.3844 9.67462 32.6011 10.425 33.3515C11.1755 34.102 12.3921 34.1017 13.1424 33.3515L15.1903 31.3036C15.9404 30.5535 15.941 29.3369 15.1903 28.5862Z" fill="#FF00FF" stroke="white" stroke-width="2"></path>
<path d="M11.4523 24.2102C11.9831 24.2101 12.4646 24.4268 12.811 24.7732C13.1572 25.1194 13.3738 25.6008 13.3738 26.1316L11.4523 24.2102ZM11.4523 24.2102C11.4522 24.2102 11.4521 24.2102 11.452 24.2102L8.55671 24.2103M11.4523 24.2102L8.55671 24.2103M8.55671 24.2103C8.55666 24.2103 8.55661 24.2103 8.55656 24.2103M8.55671 24.2103H8.55656M8.55656 24.2103C7.4954 24.2102 6.635 25.0704 6.63506 26.1317L8.55656 24.2103ZM11.4523 28.0533C11.4522 28.0533 11.4522 28.0533 11.4522 28.0533L8.5569 28.0533C8.55677 28.0533 8.55664 28.0533 8.55651 28.0533C7.49531 28.0535 6.63513 27.1929 6.63506 26.1321L11.4523 28.0533ZM11.4523 28.0533C12.5134 28.0533 13.3737 27.1931 13.3738 26.132L11.4523 28.0533Z" fill="#FF00FF" stroke="white" stroke-width="2"></path>
</g>
<defs>
<filter id="filter0_d_1_10915" x="0.910156" y="-9.15527e-05" width="31.7983" height="39.6186" filterUnits="userSpaceOnUse" color-interpolation-filters="sRGB">
<feFlood flood-opacity="0" result="BackgroundImageFix"></feFlood>
<feColorMatrix in="SourceAlpha" type="matrix" values="0 0 0 0 0 0 0 0 0 0 0 0 0 0 0 0 0 0 127 0" result="hardAlpha"></feColorMatrix>
<feOffset></feOffset>
<feGaussianBlur stdDeviation="1"></feGaussianBlur>
<feComposite in2="hardAlpha" operator="out"></feComposite>
<feColorMatrix type="matrix" values="0 0 0 0 0 0 0 0 0 0 0 0 0 0 0 0 0 0 0.3 0"></feColorMatrix>
<feBlend mode="normal" in2="BackgroundImageFix" result="effect1_dropShadow_1_10915"></feBlend>
<feBlend mode="normal" in="SourceGraphic" in2="effect1_dropShadow_1_10915" result="shape"></feBlend>
</filter>
</defs>
</svg>
