<svg width="33" height="40" viewBox="0 0 33 40" fill="none" xmlns="http://www.w3.org/2000/svg">
<g filter="url('#filter0_d_1_2322')">
<path d="M8.10808 18.3289C7.68933 18.5848 7.19707 18.7324 6.67035 18.7324C5.14568 18.7324 3.90978 17.4964 3.90978 15.9718L3.90978 11.7464C3.90978 11.5338 3.93431 11.3216 3.98315 11.1141L8.10808 18.3289ZM8.10808 18.3289C8.57304 19.1977 9.48928 19.7887 10.5436 19.7887C11.1358 19.7887 11.6844 19.6023 12.1339 19.2849C12.6308 20.0141 13.4679 20.4929 14.4169 20.4929C14.8128 20.4929 15.1892 20.4096 15.5295 20.2595V24.7746C15.5295 26.2992 16.7655 27.5352 18.2901 27.5352C19.8148 27.5352 21.0507 26.2992 21.0507 24.7746V15.5862C21.9994 16.4167 23.4285 16.5124 24.4912 15.7395L24.4912 15.7395C25.7242 14.8428 25.9968 13.1163 25.1001 11.8833L24.2926 12.4706L25.1001 11.8833L19.4664 4.13679L19.4663 4.13674C19.2102 3.78462 18.8745 3.49807 18.4865 3.3005C18.0985 3.10292 17.6692 2.99992 17.2338 2.99991H17.2338L8.07881 2.99991C6.79779 2.99991 5.685 3.88118 5.3916 5.12818C5.3916 5.12819 5.3916 5.12819 5.3916 5.1282L3.98318 11.114L8.10808 18.3289Z" fill="#FF00FF" stroke="white" stroke-width="2"></path>
<path d="M16.7005 34.6968L16.7005 34.6973C16.7011 35.7582 17.5609 36.6177 18.6214 36.6185L18.6223 36.6185C19.6835 36.6183 20.5437 35.7582 20.5438 34.697L20.5438 34.6968L20.5438 31.8011L20.5438 31.8008C20.5437 31.2709 20.3277 30.789 19.981 30.4423C19.634 30.0953 19.1523 29.8799 18.623 29.8795L18.6221 29.8795C17.561 29.8796 16.7008 30.7398 16.7007 31.8009L16.7007 31.801L16.7005 34.6968Z" fill="#FF00FF" stroke="white" stroke-width="2"></path>
<path d="M24.6257 28.0933L24.6256 28.0931C23.8753 27.3432 22.6587 27.3427 21.9082 28.0932C21.1576 28.8438 21.1581 30.0604 21.9083 30.8106L23.9559 32.8582C24.706 33.6083 25.9226 33.6091 26.6733 32.8584C27.4237 32.108 27.4236 30.8912 26.6733 30.1409L24.6257 28.0933Z" fill="#FF00FF" stroke="white" stroke-width="2"></path>
<path d="M24.891 28.0531L24.8907 28.0531C23.83 28.0529 22.9695 27.1931 22.9695 26.1318L24.891 28.0531ZM24.891 28.0531L27.7866 28.0531M24.891 28.0531L27.7866 28.0531M27.7866 28.0531C27.7867 28.0531 27.7868 28.0531 27.7868 28.0531M27.7866 28.0531L27.7868 28.0531M27.7868 28.0531C27.7869 28.0531 27.787 28.0531 27.787 28.0531M27.7868 28.0531H27.787M27.787 28.0531C28.8485 28.0533 29.7085 27.1928 29.7085 26.1317L27.787 28.0531ZM29.7085 26.1315C29.7084 25.6014 29.4925 25.1198 29.1457 24.773C28.799 24.4262 28.3172 24.2103 27.7871 24.2103L24.8912 24.2102C23.83 24.21 22.9695 25.0704 22.9695 26.1315L29.7085 26.1315Z" fill="#FF00FF" stroke="white" stroke-width="2"></path>
<path d="M15.1901 28.5862C14.4397 27.8359 13.2229 27.836 12.4726 28.5863L10.4248 30.6341C9.67454 31.3844 9.67437 32.6011 10.4248 33.3515C11.1753 34.102 12.3919 34.1017 13.1422 33.3515L15.19 31.3036C15.9402 30.5535 15.9407 29.3369 15.1901 28.5862Z" fill="#FF00FF" stroke="white" stroke-width="2"></path>
<path d="M11.452 24.2102C11.9829 24.2101 12.4644 24.4268 12.8108 24.7732C13.157 25.1194 13.3736 25.6008 13.3736 26.1316L11.452 24.2102ZM11.452 24.2102C11.4519 24.2102 11.4519 24.2102 11.4518 24.2102L8.55646 24.2103M11.452 24.2102L8.55646 24.2103M8.55646 24.2103C8.55641 24.2103 8.55636 24.2103 8.55631 24.2103M8.55646 24.2103H8.55631M8.55631 24.2103C7.49515 24.2102 6.63475 25.0704 6.63482 26.1317L8.55631 24.2103ZM11.452 28.0533C11.452 28.0533 11.4519 28.0533 11.4519 28.0533L8.55666 28.0533C8.55653 28.0533 8.5564 28.0533 8.55627 28.0533C7.49506 28.0535 6.63489 27.1929 6.63482 26.1321L11.452 28.0533ZM11.452 28.0533C12.5131 28.0533 13.3735 27.1931 13.3736 26.132L11.452 28.0533Z" fill="#FF00FF" stroke="white" stroke-width="2"></path>
</g>
<defs>
<filter id="filter0_d_1_2322" x="0.909668" y="-9.15527e-05" width="31.7988" height="39.6186" filterUnits="userSpaceOnUse" color-interpolation-filters="sRGB">
<feFlood flood-opacity="0" result="BackgroundImageFix"></feFlood>
<feColorMatrix in="SourceAlpha" type="matrix" values="0 0 0 0 0 0 0 0 0 0 0 0 0 0 0 0 0 0 127 0" result="hardAlpha"></feColorMatrix>
<feOffset></feOffset>
<feGaussianBlur stdDeviation="1"></feGaussianBlur>
<feComposite in2="hardAlpha" operator="out"></feComposite>
<feColorMatrix type="matrix" values="0 0 0 0 0 0 0 0 0 0 0 0 0 0 0 0 0 0 0.3 0"></feColorMatrix>
<feBlend mode="normal" in2="BackgroundImageFix" result="effect1_dropShadow_1_2322"></feBlend>
<feBlend mode="normal" in="SourceGraphic" in2="effect1_dropShadow_1_2322" result="shape"></feBlend>
</filter>
</defs>
</svg>
