<svg width="25" height="24" viewBox="0 0 25 24" fill="none" xmlns="http://www.w3.org/2000/svg">
<path fill-rule="evenodd" clip-rule="evenodd" d="M0.837769 12C0.837769 5.372 6.20977 0 12.8378 0C19.4658 0 24.8378 5.372 24.8378 12C24.8378 18.628 19.4658 24 12.8378 24C6.20977 24 0.837769 18.628 0.837769 12ZM23.3378 12C23.3378 6.21067 18.6271 1.5 12.8378 1.5C7.04844 1.5 2.33777 6.21067 2.33777 12C2.33777 14.6067 3.2991 16.9893 4.87777 18.828C6.81777 16.4307 9.72443 15.0107 12.8378 15.0107C15.9498 15.0107 18.8578 16.4307 20.7978 18.828C22.3764 16.9893 23.3378 14.6067 23.3378 12ZM5.94177 19.8987C7.59777 17.7733 10.1258 16.5107 12.8378 16.5107C15.5498 16.5107 18.0778 17.7733 19.7338 19.8987C17.8871 21.5133 15.4778 22.5 12.8378 22.5C10.1978 22.5 7.78844 21.5133 5.94177 19.8987ZM12.8378 13.5C15.3231 13.5 17.3378 11.4853 17.3378 9C17.3378 6.51467 15.3231 4.5 12.8378 4.5C10.3524 4.5 8.33777 6.51467 8.33777 9C8.33777 11.4853 10.3524 13.5 12.8378 13.5ZM12.8378 6C14.4924 6 15.8378 7.34533 15.8378 9C15.8378 10.6547 14.4924 12 12.8378 12C11.1831 12 9.83777 10.6547 9.83777 9C9.83777 7.34533 11.1831 6 12.8378 6Z" fill="black"></path>
</svg>
