<svg width="18" height="18" viewBox="0 0 18 18" fill="none" xmlns="http://www.w3.org/2000/svg">
<path fill-rule="evenodd" clip-rule="evenodd" d="M13.137 1.92705L16.0463 4.8363C16.3399 5.12989 16.5 5.50356 16.5 5.90391V15.0053C16.5 15.8327 15.8327 16.5 15.0053 16.5H2.99466C2.16726 16.5 1.5 15.8327 1.5 15.0053V2.99466C1.5 2.16726 2.16726 1.5 2.99466 1.5H12.0694C12.4698 1.5 12.8434 1.63345 13.137 1.92705ZM10.1477 5.31656V2.48737H4.83631V5.31656C4.83631 5.39663 4.91638 5.4767 4.99645 5.4767H9.98756C10.0676 5.4767 10.1477 5.39663 10.1477 5.31656ZM4.80963 15.4855V10.8147C4.80963 10.7346 4.8897 10.6546 4.96977 10.6546H12.9769C13.057 10.6546 13.137 10.7346 13.137 10.8147V15.4855H4.80963ZM14.9786 15.5125C15.2722 15.5125 15.4857 15.2723 15.4857 15.0054H15.459V5.87724C15.4857 5.74379 15.4323 5.63702 15.3256 5.53026L12.4163 2.62101C12.3363 2.54094 12.2028 2.48756 12.0694 2.48756H11.1619V5.29005C11.1619 5.93062 10.6281 6.46443 9.9875 6.46443H4.9964C4.35583 6.46443 3.82202 5.93062 3.82202 5.29005V2.46087H2.99462C2.70103 2.46087 2.48751 2.70108 2.48751 2.96799V14.9787C2.48751 15.2723 2.72772 15.4858 2.99462 15.4858H3.79533V10.815C3.79533 10.1744 4.32914 9.64058 4.96971 9.64058H12.9768C13.6174 9.64058 14.1512 10.1744 14.1512 10.815V15.5125H14.9786Z" fill="#010101"></path>
<path d="M6.49117 13.5374H11.4823C11.6691 13.5374 11.8026 13.3773 11.8026 13.2171C11.8026 13.0303 11.6424 12.8969 11.4823 12.8969H6.49117C6.30434 12.8969 6.17089 13.057 6.17089 13.2171C6.1442 13.3773 6.30434 13.5374 6.49117 13.5374Z" fill="#010101"></path>
<rect x="4.67578" y="2.35382" width="2.90925" height="3.3363" fill="black"></rect>
</svg>
