<svg width="14" height="13" viewBox="0 0 14 13" fill="none" xmlns="http://www.w3.org/2000/svg">
<path fill-rule="evenodd" clip-rule="evenodd" d="M7.586 0.405492L12.5796 5.13623C13.1502 5.67689 13.1502 6.48787 12.5796 7.02853L7.586 11.7593C7.30065 12.0296 6.94397 12.1648 6.58728 12.1648C6.2306 12.1648 5.87392 12.0296 5.58857 11.7593L0.595012 7.02853C0.024319 6.48787 0.024319 5.67689 0.595012 5.13623L5.58857 0.405492C5.87392 0.135164 6.2306 0 6.58728 0C6.94397 0 7.30065 0.135164 7.586 0.405492ZM7.0153 11.2184L12.0089 6.48768C12.1515 6.35252 12.2229 6.21736 12.2229 6.08219C12.2229 5.94703 12.1515 5.81186 11.9375 5.6767L6.94397 0.945959C6.80129 0.878377 6.65862 0.810795 6.51595 0.810795C6.37327 0.810795 6.2306 0.810795 6.08793 0.945959L1.09437 5.6767C1.02303 5.81186 0.951695 5.94703 0.951695 6.08219C0.951695 6.21736 1.02303 6.35252 1.1657 6.48768L6.15926 11.2184C6.30194 11.3536 6.44461 11.3536 6.58728 11.3536C6.72996 11.3536 6.87263 11.3536 7.0153 11.2184Z" fill="black"></path>
</svg>
