<svg width="8" height="9" viewBox="0 0 8 9" fill="none" xmlns="http://www.w3.org/2000/svg">
<path fill-rule="evenodd" clip-rule="evenodd" d="M4.10019 0.279785C1.9002 0.279785 0.200195 2.07978 0.200195 4.17978C0.200195 6.27978 2.0002 8.07978 4.10019 8.07978C6.20019 8.07978 8.00019 6.27978 8.00019 4.17978C8.00019 2.07978 6.20019 0.279785 4.10019 0.279785ZM4.10027 1.37988C5.50027 1.37988 6.60027 2.37988 6.90027 3.57988L1.40027 3.57988C1.60027 2.37988 2.70027 1.37988 4.10027 1.37988ZM1.30029 4.87976C1.60029 6.07976 2.70029 7.07976 4.10029 7.07976C5.40029 7.07976 6.60029 6.07976 6.80029 4.87976L1.30029 4.87976Z" fill="black"></path>
</svg>
