<svg width="9" height="9" viewBox="0 0 9 9" fill="none" xmlns="http://www.w3.org/2000/svg">
<path fill-rule="evenodd" clip-rule="evenodd" d="M5.35219 0.270328L8.50602 3.42415C8.86645 3.78459 8.86645 4.32525 8.50602 4.68569L5.35219 7.83951C5.17197 8.01973 4.9467 8.10984 4.72142 8.10984C4.49615 8.10984 4.27088 8.01973 4.09066 7.83951L0.936832 4.68569C0.576395 4.32525 0.576395 3.78459 0.936832 3.42415L4.09066 0.270328C4.27088 0.0901094 4.49615 0 4.72142 0C4.9467 0 5.17197 0.0901094 5.35219 0.270328ZM4.99175 7.47895L8.14558 4.32512C8.23569 4.23501 8.28074 4.1449 8.28074 4.05479C8.28074 3.96468 8.23569 3.87458 8.10053 3.78447L4.9467 0.630639C4.85659 0.585585 4.76648 0.54053 4.67637 0.54053C4.58626 0.54053 4.49615 0.54053 4.40604 0.630639L1.25221 3.78447C1.20716 3.87458 1.16211 3.96468 1.16211 4.05479C1.16211 4.1449 1.20716 4.23501 1.29727 4.32512L4.4511 7.47895C4.54121 7.56906 4.63132 7.56906 4.72143 7.56906C4.81153 7.56906 4.90164 7.56906 4.99175 7.47895Z" fill="black"></path>
</svg>
