<svg width="12" height="13" viewBox="0 0 12 13" fill="none" xmlns="http://www.w3.org/2000/svg">
<path fill-rule="evenodd" clip-rule="evenodd" d="M8.14103 7.82632L11.9305 11.6158L11.4379 12.1337L7.6484 8.34421C6.12243 9.64223 3.89919 9.70469 2.30275 8.49439C0.706321 7.28409 0.166105 5.12657 1.00384 3.30678C1.84158 1.48699 3.83193 0.494418 5.78952 0.920202C7.7471 1.34599 9.14537 3.0756 9.15156 5.07895C9.15396 6.08609 8.79546 7.06077 8.14103 7.82632ZM1.609 6.43199C2.159 7.76147 3.45597 8.6285 4.89472 8.6285C5.8372 8.63018 6.74164 8.25696 7.40867 7.59112C8.07569 6.92528 8.45052 6.0215 8.45051 5.07903C8.45307 3.64027 7.58835 2.34177 6.25985 1.78941C4.93135 1.23705 3.4009 1.5397 2.38264 2.55615C1.36439 3.5726 1.05901 5.10251 1.609 6.43199Z" fill="#747676"></path>
</svg>
