<svg width="20" height="20" viewBox="0 0 20 20" fill="none" xmlns="http://www.w3.org/2000/svg">
<path fill-rule="evenodd" clip-rule="evenodd" d="M15.516 0.569395L19.395 4.4484C19.7865 4.83986 20 5.33808 20 5.87189V18.0071C20 19.1103 19.1103 20 18.0071 20H1.99288C0.88968 20 0 19.1103 0 18.0071V1.99288C0 0.88968 0.88968 0 1.99288 0H14.0925C14.6263 0 15.1246 0.177936 15.516 0.569395ZM11.5303 5.08874V1.3165H4.44842V5.08874C4.44842 5.1955 4.55518 5.30226 4.66194 5.30226H11.3167C11.4235 5.30226 11.5303 5.1955 11.5303 5.08874ZM4.41284 18.6474V12.4196C4.41284 12.3129 4.5196 12.2061 4.62636 12.2061H15.3025C15.4093 12.2061 15.516 12.3129 15.516 12.4196V18.6474H4.41284ZM17.9715 18.6833C18.3629 18.6833 18.6476 18.363 18.6476 18.0071H18.612V5.83632C18.6476 5.65838 18.5765 5.51603 18.4341 5.37368L14.5551 1.49468C14.4483 1.38792 14.2704 1.31674 14.0925 1.31674H12.8825V5.0534C12.8825 5.90749 12.1708 6.61924 11.3167 6.61924H4.66187C3.80778 6.61924 3.09603 5.90749 3.09603 5.0534V1.28116H1.99283C1.60137 1.28116 1.31667 1.60144 1.31667 1.95731V17.9715C1.31667 18.363 1.63696 18.6477 1.99283 18.6477H3.06045V12.4199C3.06045 11.5659 3.77219 10.8541 4.62628 10.8541H15.3024C16.1565 10.8541 16.8683 11.5659 16.8683 12.4199V18.6833H17.9715Z" fill="#010101"></path>
</svg>
