<svg width="14" height="13" viewBox="0 0 14 13" fill="none" xmlns="http://www.w3.org/2000/svg">
<path fill-rule="evenodd" clip-rule="evenodd" d="M8.08551 0.905492L13.0791 5.63623C13.6498 6.17689 13.6498 6.98787 13.0791 7.52853L8.08551 12.2593C7.80016 12.5296 7.44348 12.6648 7.0868 12.6648C6.73011 12.6648 6.37343 12.5296 6.08808 12.2593L1.09452 7.52853C0.523831 6.98787 0.523831 6.17689 1.09452 5.63623L6.08808 0.905492C6.37343 0.635164 6.73011 0.5 7.0868 0.5C7.44348 0.5 7.80016 0.635164 8.08551 0.905492ZM7.51481 11.7184L12.5084 6.98768C12.651 6.85252 12.7224 6.71736 12.7224 6.58219C12.7224 6.44703 12.651 6.31186 12.437 6.1767L7.44348 1.44596C7.3008 1.37838 7.15813 1.31079 7.01546 1.31079C6.87279 1.31079 6.73011 1.31079 6.58744 1.44596L1.59388 6.1767C1.52254 6.31186 1.45121 6.44703 1.45121 6.58219C1.45121 6.71736 1.52254 6.85252 1.66522 6.98768L6.65878 11.7184C6.80145 11.8536 6.94412 11.8536 7.08679 11.8536C7.22947 11.8536 7.37214 11.8536 7.51481 11.7184Z" fill="black"></path>
</svg>
