<svg width="14" height="13" viewBox="0 0 14 13" fill="none" xmlns="http://www.w3.org/2000/svg">
<path fill-rule="evenodd" clip-rule="evenodd" d="M7.58551 0.405492L12.5791 5.13623C13.1498 5.67689 13.1498 6.48787 12.5791 7.02853L7.58551 11.7593C7.30016 12.0296 6.94348 12.1648 6.5868 12.1648C6.23011 12.1648 5.87343 12.0296 5.58808 11.7593L0.594523 7.02853C0.0238308 6.48787 0.0238308 5.67689 0.594523 5.13623L5.58808 0.405492C5.87343 0.135164 6.23011 0 6.5868 0C6.94348 0 7.30016 0.135164 7.58551 0.405492ZM7.01481 11.2184L12.0084 6.48768C12.151 6.35252 12.2224 6.21736 12.2224 6.08219C12.2224 5.94703 12.151 5.81186 11.937 5.6767L6.94348 0.945959C6.8008 0.878377 6.65813 0.810795 6.51546 0.810795C6.37279 0.810795 6.23011 0.810795 6.08744 0.945959L1.09388 5.6767C1.02254 5.81186 0.951206 5.94703 0.951206 6.08219C0.951206 6.21736 1.02254 6.35252 1.16522 6.48768L6.15878 11.2184C6.30145 11.3536 6.44412 11.3536 6.58679 11.3536C6.72947 11.3536 6.87214 11.3536 7.01481 11.2184Z" fill="black"></path>
</svg>
