<svg width="9" height="9" viewBox="0 0 9 9" fill="none" xmlns="http://www.w3.org/2000/svg">
<path fill-rule="evenodd" clip-rule="evenodd" d="M5.35268 0.270328L8.5065 3.42415C8.86694 3.78459 8.86694 4.32525 8.5065 4.68569L5.35268 7.83951C5.17246 8.01973 4.94719 8.10984 4.72191 8.10984C4.49664 8.10984 4.27137 8.01973 4.09115 7.83951L0.93732 4.68569C0.576883 4.32525 0.576883 3.78459 0.93732 3.42415L4.09115 0.270328C4.27137 0.0901094 4.49664 0 4.72191 0C4.94719 0 5.17246 0.0901094 5.35268 0.270328ZM4.99224 7.47895L8.14607 4.32512C8.23618 4.23501 8.28123 4.1449 8.28123 4.05479C8.28123 3.96468 8.23618 3.87458 8.10101 3.78447L4.94719 0.630639C4.85708 0.585585 4.76697 0.54053 4.67686 0.54053C4.58675 0.54053 4.49664 0.54053 4.40653 0.630639L1.2527 3.78447C1.20765 3.87458 1.16259 3.96468 1.16259 4.05479C1.16259 4.1449 1.20765 4.23501 1.29776 4.32512L4.45159 7.47895C4.54169 7.56906 4.6318 7.56906 4.72191 7.56906C4.81202 7.56906 4.90213 7.56906 4.99224 7.47895Z" fill="black"></path>
</svg>
