<svg width="127" height="31" viewBox="0 0 127 31" fill="none" xmlns="http://www.w3.org/2000/svg">
<mask id="path-1-inside-1_1_10908" fill="white">
<path fill-rule="evenodd" clip-rule="evenodd" d="M59.5308 25L63.5 31L67.4692 25L127 25V0L0 0V25L59.5308 25Z"></path>
</mask>
<path fill-rule="evenodd" clip-rule="evenodd" d="M59.5308 25L63.5 31L67.4692 25L127 25V0L0 0V25L59.5308 25Z" fill="white"></path>
<path d="M63.5 31L62.666 31.5517L63.5 32.8125L64.334 31.5517L63.5 31ZM59.5308 25L60.3649 24.4483L60.0683 24H59.5308V25ZM67.4692 25V24H66.9317L66.6351 24.4483L67.4692 25ZM127 25V26H128V25H127ZM127 0H128V-1H127V0ZM0 0V-1H-1V0H0ZM0 25H-1V26H0V25ZM64.334 30.4483L60.3649 24.4483L58.6968 25.5517L62.666 31.5517L64.334 30.4483ZM66.6351 24.4483L62.666 30.4483L64.334 31.5517L68.3032 25.5517L66.6351 24.4483ZM127 24L67.4692 24V26L127 26V24ZM126 0V25H128V0H126ZM0 1L127 1V-1L0 -1V1ZM1 25V0H-1V25H1ZM59.5308 24L0 24V26L59.5308 26V24Z" fill="black" mask="url('#path-1-inside-1_1_10908')"></path>
</svg>
